<?xml version="1.0" encoding="UTF-8" standalone="no"?>
<!DOCTYPE svg PUBLIC "-//W3C//DTD SVG 1.1//EN"
 "http://www.w3.org/Graphics/SVG/1.1/DTD/svg11.dtd">
<!-- Generated by graphviz version 2.40.1 (20161225.0304)
 -->
<!-- Title: /home/travis/build/AliceO2Group/AliceO2/GPU/GPUTracking/Merger/GPUTPCGMPropagator.h Pages: 1 -->
<svg width="1591pt" height="417pt"
 viewBox="0.00 0.00 1590.50 417.00" xmlns="http://www.w3.org/2000/svg" xmlns:xlink="http://www.w3.org/1999/xlink">
<g id="graph0" class="graph" transform="scale(1 1) rotate(0) translate(4 413)">
<title>/home/travis/build/AliceO2Group/AliceO2/GPU/GPUTracking/Merger/GPUTPCGMPropagator.h</title>
<!-- Node22 -->
<g id="node1" class="node">
<title>Node22</title>
<polygon fill="#bfbfbf" stroke="#000000" points="547.5,-356.5 547.5,-408.5 689.5,-408.5 689.5,-356.5 547.5,-356.5"/>
<text text-anchor="start" x="555.5" y="-396.5" font-family="Helvetica,sans-Serif" font-size="10.00" fill="#000000">/home/travis/build</text>
<text text-anchor="start" x="555.5" y="-385.5" font-family="Helvetica,sans-Serif" font-size="10.00" fill="#000000">/AliceO2Group/AliceO2</text>
<text text-anchor="start" x="555.5" y="-374.5" font-family="Helvetica,sans-Serif" font-size="10.00" fill="#000000">/GPU/GPUTracking/Merger</text>
<text text-anchor="middle" x="618.5" y="-363.5" font-family="Helvetica,sans-Serif" font-size="10.00" fill="#000000">/GPUTPCGMPropagator.h</text>
</g>
<!-- Node23 -->
<g id="node2" class="node">
<title>Node23</title>
<g id="a_node2"><a xlink:href="../../df/dbd/AliHLTTPCClusterStatComponent_8cxx.html" target="_top" xlink:title="/home/travis/build\l/AliceO2Group/AliceO2\l/GPU/GPUTracking/DataCompression\l/AliHLTTPCClusterStatComponent.cxx">
<polygon fill="none" stroke="#000000" points="0,-267.5 0,-319.5 199,-319.5 199,-267.5 0,-267.5"/>
<text text-anchor="start" x="8" y="-307.5" font-family="Helvetica,sans-Serif" font-size="10.00" fill="#000000">/home/travis/build</text>
<text text-anchor="start" x="8" y="-296.5" font-family="Helvetica,sans-Serif" font-size="10.00" fill="#000000">/AliceO2Group/AliceO2</text>
<text text-anchor="start" x="8" y="-285.5" font-family="Helvetica,sans-Serif" font-size="10.00" fill="#000000">/GPU/GPUTracking/DataCompression</text>
<text text-anchor="middle" x="99.5" y="-274.5" font-family="Helvetica,sans-Serif" font-size="10.00" fill="#000000">/AliHLTTPCClusterStatComponent.cxx</text>
</a>
</g>
</g>
<!-- Node22&#45;&gt;Node23 -->
<g id="edge1" class="edge">
<title>Node22&#45;&gt;Node23</title>
<path fill="none" stroke="#191970" d="M537.3152,-372.2502C454.3368,-361.2765 321.9147,-342.3868 208.5,-320 205.443,-319.3966 202.3424,-318.7651 199.2155,-318.1114"/>
<polygon fill="#191970" stroke="#191970" points="537.0639,-375.7473 547.4351,-373.5817 537.9771,-368.8071 537.0639,-375.7473"/>
</g>
<!-- Node24 -->
<g id="node3" class="node">
<title>Node24</title>
<g id="a_node3"><a xlink:href="../../d8/de7/GPUTPCGMPropagator_8cxx.html" target="_top" xlink:title="/home/travis/build\l/AliceO2Group/AliceO2\l/GPU/GPUTracking/Merger\l/GPUTPCGMPropagator.cxx">
<polygon fill="none" stroke="#000000" points="387.5,-267.5 387.5,-319.5 535.5,-319.5 535.5,-267.5 387.5,-267.5"/>
<text text-anchor="start" x="395.5" y="-307.5" font-family="Helvetica,sans-Serif" font-size="10.00" fill="#000000">/home/travis/build</text>
<text text-anchor="start" x="395.5" y="-296.5" font-family="Helvetica,sans-Serif" font-size="10.00" fill="#000000">/AliceO2Group/AliceO2</text>
<text text-anchor="start" x="395.5" y="-285.5" font-family="Helvetica,sans-Serif" font-size="10.00" fill="#000000">/GPU/GPUTracking/Merger</text>
<text text-anchor="middle" x="461.5" y="-274.5" font-family="Helvetica,sans-Serif" font-size="10.00" fill="#000000">/GPUTPCGMPropagator.cxx</text>
</a>
</g>
</g>
<!-- Node22&#45;&gt;Node24 -->
<g id="edge2" class="edge">
<title>Node22&#45;&gt;Node24</title>
<path fill="none" stroke="#191970" d="M563.4303,-351.2821C545.1302,-340.9082 524.9598,-329.4741 507.4254,-319.5341"/>
<polygon fill="#191970" stroke="#191970" points="561.8185,-354.3917 572.244,-356.2784 565.2706,-348.3021 561.8185,-354.3917"/>
</g>
<!-- Node27 -->
<g id="node6" class="node">
<title>Node27</title>
<g id="a_node6"><a xlink:href="../../df/dad/GPUTPCGMTrackParam_8cxx.html" target="_top" xlink:title="/home/travis/build\l/AliceO2Group/AliceO2\l/GPU/GPUTracking/Merger\l/GPUTPCGMTrackParam.cxx">
<polygon fill="none" stroke="#000000" points="217.5,-267.5 217.5,-319.5 369.5,-319.5 369.5,-267.5 217.5,-267.5"/>
<text text-anchor="start" x="225.5" y="-307.5" font-family="Helvetica,sans-Serif" font-size="10.00" fill="#000000">/home/travis/build</text>
<text text-anchor="start" x="225.5" y="-296.5" font-family="Helvetica,sans-Serif" font-size="10.00" fill="#000000">/AliceO2Group/AliceO2</text>
<text text-anchor="start" x="225.5" y="-285.5" font-family="Helvetica,sans-Serif" font-size="10.00" fill="#000000">/GPU/GPUTracking/Merger</text>
<text text-anchor="middle" x="293.5" y="-274.5" font-family="Helvetica,sans-Serif" font-size="10.00" fill="#000000">/GPUTPCGMTrackParam.cxx</text>
</a>
</g>
</g>
<!-- Node22&#45;&gt;Node27 -->
<g id="edge5" class="edge">
<title>Node22&#45;&gt;Node27</title>
<path fill="none" stroke="#191970" d="M537.6223,-362.456C490.9598,-350.6376 431.2551,-335.0836 378.5,-320 375.6762,-319.1926 372.8034,-318.3591 369.9043,-317.5078"/>
<polygon fill="#191970" stroke="#191970" points="536.8217,-365.8636 547.3744,-364.9197 538.5364,-359.0768 536.8217,-365.8636"/>
</g>
<!-- Node28 -->
<g id="node7" class="node">
<title>Node28</title>
<g id="a_node7"><a xlink:href="../../df/d2b/GPUTrackingRefit_8cxx.html" target="_top" xlink:title="/home/travis/build\l/AliceO2Group/AliceO2\l/GPU/GPUTracking/Refit\l/GPUTrackingRefit.cxx">
<polygon fill="none" stroke="#000000" points="553.5,-267.5 553.5,-319.5 683.5,-319.5 683.5,-267.5 553.5,-267.5"/>
<text text-anchor="start" x="561.5" y="-307.5" font-family="Helvetica,sans-Serif" font-size="10.00" fill="#000000">/home/travis/build</text>
<text text-anchor="start" x="561.5" y="-296.5" font-family="Helvetica,sans-Serif" font-size="10.00" fill="#000000">/AliceO2Group/AliceO2</text>
<text text-anchor="start" x="561.5" y="-285.5" font-family="Helvetica,sans-Serif" font-size="10.00" fill="#000000">/GPU/GPUTracking/Refit</text>
<text text-anchor="middle" x="618.5" y="-274.5" font-family="Helvetica,sans-Serif" font-size="10.00" fill="#000000">/GPUTrackingRefit.cxx</text>
</a>
</g>
</g>
<!-- Node22&#45;&gt;Node28 -->
<g id="edge7" class="edge">
<title>Node22&#45;&gt;Node28</title>
<path fill="none" stroke="#191970" d="M618.5,-346.1155C618.5,-337.2061 618.5,-327.8475 618.5,-319.5341"/>
<polygon fill="#191970" stroke="#191970" points="615.0001,-346.2784 618.5,-356.2784 622.0001,-346.2785 615.0001,-346.2784"/>
</g>
<!-- Node29 -->
<g id="node8" class="node">
<title>Node29</title>
<g id="a_node8"><a xlink:href="../../d7/d9f/genEvents_8cxx.html" target="_top" xlink:title="/home/travis/build\l/AliceO2Group/AliceO2\l/GPU/GPUTracking/Standalone\l/qa/genEvents.cxx">
<polygon fill="none" stroke="#000000" points="702,-267.5 702,-319.5 865,-319.5 865,-267.5 702,-267.5"/>
<text text-anchor="start" x="710" y="-307.5" font-family="Helvetica,sans-Serif" font-size="10.00" fill="#000000">/home/travis/build</text>
<text text-anchor="start" x="710" y="-296.5" font-family="Helvetica,sans-Serif" font-size="10.00" fill="#000000">/AliceO2Group/AliceO2</text>
<text text-anchor="start" x="710" y="-285.5" font-family="Helvetica,sans-Serif" font-size="10.00" fill="#000000">/GPU/GPUTracking/Standalone</text>
<text text-anchor="middle" x="783.5" y="-274.5" font-family="Helvetica,sans-Serif" font-size="10.00" fill="#000000">/qa/genEvents.cxx</text>
</a>
</g>
</g>
<!-- Node22&#45;&gt;Node29 -->
<g id="edge8" class="edge">
<title>Node22&#45;&gt;Node29</title>
<path fill="none" stroke="#191970" d="M676.1137,-351.4235C695.4156,-341.0122 716.7228,-329.5192 735.2344,-319.5341"/>
<polygon fill="#191970" stroke="#191970" points="674.2527,-348.4506 667.113,-356.2784 677.5759,-354.6115 674.2527,-348.4506"/>
</g>
<!-- Node30 -->
<g id="node9" class="node">
<title>Node30</title>
<g id="a_node9"><a xlink:href="../../de/ddc/GPUQA_8cxx.html" target="_top" xlink:title="/home/travis/build\l/AliceO2Group/AliceO2\l/GPU/GPUTracking/Standalone\l/qa/GPUQA.cxx">
<polygon fill="none" stroke="#000000" points="883,-267.5 883,-319.5 1046,-319.5 1046,-267.5 883,-267.5"/>
<text text-anchor="start" x="891" y="-307.5" font-family="Helvetica,sans-Serif" font-size="10.00" fill="#000000">/home/travis/build</text>
<text text-anchor="start" x="891" y="-296.5" font-family="Helvetica,sans-Serif" font-size="10.00" fill="#000000">/AliceO2Group/AliceO2</text>
<text text-anchor="start" x="891" y="-285.5" font-family="Helvetica,sans-Serif" font-size="10.00" fill="#000000">/GPU/GPUTracking/Standalone</text>
<text text-anchor="middle" x="964.5" y="-274.5" font-family="Helvetica,sans-Serif" font-size="10.00" fill="#000000">/qa/GPUQA.cxx</text>
</a>
</g>
</g>
<!-- Node22&#45;&gt;Node30 -->
<g id="edge9" class="edge">
<title>Node22&#45;&gt;Node30</title>
<path fill="none" stroke="#191970" d="M699.4416,-363.6013C749.6846,-351.6376 815.5078,-335.5431 873.5,-320 876.5198,-319.1906 879.5927,-318.3554 882.694,-317.5027"/>
<polygon fill="#191970" stroke="#191970" points="698.5279,-360.2208 689.6077,-365.9375 700.1459,-367.0313 698.5279,-360.2208"/>
</g>
<!-- Node31 -->
<g id="node10" class="node">
<title>Node31</title>
<g id="a_node10"><a xlink:href="../../df/d77/GPUTRDInterfaces_8h.html" target="_top" xlink:title="/home/travis/build\l/AliceO2Group/AliceO2\l/GPU/GPUTracking/TRDTracking\l/GPUTRDInterfaces.h">
<polygon fill="none" stroke="#000000" points="1064,-267.5 1064,-319.5 1233,-319.5 1233,-267.5 1064,-267.5"/>
<text text-anchor="start" x="1072" y="-307.5" font-family="Helvetica,sans-Serif" font-size="10.00" fill="#000000">/home/travis/build</text>
<text text-anchor="start" x="1072" y="-296.5" font-family="Helvetica,sans-Serif" font-size="10.00" fill="#000000">/AliceO2Group/AliceO2</text>
<text text-anchor="start" x="1072" y="-285.5" font-family="Helvetica,sans-Serif" font-size="10.00" fill="#000000">/GPU/GPUTracking/TRDTracking</text>
<text text-anchor="middle" x="1148.5" y="-274.5" font-family="Helvetica,sans-Serif" font-size="10.00" fill="#000000">/GPUTRDInterfaces.h</text>
</a>
</g>
</g>
<!-- Node22&#45;&gt;Node31 -->
<g id="edge10" class="edge">
<title>Node22&#45;&gt;Node31</title>
<path fill="none" stroke="#191970" d="M699.797,-374.1053C787.7945,-364.2624 931.9854,-345.9314 1054.5,-320 1057.5688,-319.3505 1060.6849,-318.6564 1063.8256,-317.9277"/>
<polygon fill="#191970" stroke="#191970" points="699.1669,-370.6536 689.6136,-375.2345 699.9385,-377.611 699.1669,-370.6536"/>
</g>
<!-- Node25 -->
<g id="node4" class="node">
<title>Node25</title>
<g id="a_node4"><a xlink:href="../../d0/d25/GPUReconstructionIncludesDevice_8h.html" target="_top" xlink:title="/home/travis/build\l/AliceO2Group/AliceO2\l/GPU/GPUTracking/Base\l/GPUReconstructionIncludesDevice.h">
<polygon fill="none" stroke="#000000" points="279.5,-178.5 279.5,-230.5 475.5,-230.5 475.5,-178.5 279.5,-178.5"/>
<text text-anchor="start" x="287.5" y="-218.5" font-family="Helvetica,sans-Serif" font-size="10.00" fill="#000000">/home/travis/build</text>
<text text-anchor="start" x="287.5" y="-207.5" font-family="Helvetica,sans-Serif" font-size="10.00" fill="#000000">/AliceO2Group/AliceO2</text>
<text text-anchor="start" x="287.5" y="-196.5" font-family="Helvetica,sans-Serif" font-size="10.00" fill="#000000">/GPU/GPUTracking/Base</text>
<text text-anchor="middle" x="377.5" y="-185.5" font-family="Helvetica,sans-Serif" font-size="10.00" fill="#000000">/GPUReconstructionIncludesDevice.h</text>
</a>
</g>
</g>
<!-- Node24&#45;&gt;Node25 -->
<g id="edge3" class="edge">
<title>Node24&#45;&gt;Node25</title>
<path fill="none" stroke="#191970" d="M429.8847,-260.0029C420.6826,-250.2529 410.7707,-239.7511 402.0716,-230.5341"/>
<polygon fill="#191970" stroke="#191970" points="427.3423,-262.4084 436.7516,-267.2784 432.433,-257.6037 427.3423,-262.4084"/>
</g>
<!-- Node26 -->
<g id="node5" class="node">
<title>Node26</title>
<g id="a_node5"><a xlink:href="../../d3/d33/GPUReconstructionHIP_8hip_8cxx.html" target="_top" xlink:title="/home/travis/build\l/AliceO2Group/AliceO2\l/GPU/GPUTracking/Base\l/hip/GPUReconstructionHIP.hip.cxx">
<polygon fill="none" stroke="#000000" points="285.5,-89.5 285.5,-141.5 469.5,-141.5 469.5,-89.5 285.5,-89.5"/>
<text text-anchor="start" x="293.5" y="-129.5" font-family="Helvetica,sans-Serif" font-size="10.00" fill="#000000">/home/travis/build</text>
<text text-anchor="start" x="293.5" y="-118.5" font-family="Helvetica,sans-Serif" font-size="10.00" fill="#000000">/AliceO2Group/AliceO2</text>
<text text-anchor="start" x="293.5" y="-107.5" font-family="Helvetica,sans-Serif" font-size="10.00" fill="#000000">/GPU/GPUTracking/Base</text>
<text text-anchor="middle" x="377.5" y="-96.5" font-family="Helvetica,sans-Serif" font-size="10.00" fill="#000000">/hip/GPUReconstructionHIP.hip.cxx</text>
</a>
</g>
</g>
<!-- Node25&#45;&gt;Node26 -->
<g id="edge4" class="edge">
<title>Node25&#45;&gt;Node26</title>
<path fill="none" stroke="#191970" d="M377.5,-168.1155C377.5,-159.2061 377.5,-149.8475 377.5,-141.5341"/>
<polygon fill="#191970" stroke="#191970" points="374.0001,-168.2784 377.5,-178.2784 381.0001,-168.2785 374.0001,-168.2784"/>
</g>
<!-- Node27&#45;&gt;Node25 -->
<g id="edge6" class="edge">
<title>Node27&#45;&gt;Node25</title>
<path fill="none" stroke="#191970" d="M325.1153,-260.0029C334.3174,-250.2529 344.2293,-239.7511 352.9284,-230.5341"/>
<polygon fill="#191970" stroke="#191970" points="322.567,-257.6037 318.2484,-267.2784 327.6577,-262.4084 322.567,-257.6037"/>
</g>
<!-- Node32 -->
<g id="node11" class="node">
<title>Node32</title>
<g id="a_node11"><a xlink:href="../../db/dca/GPUTRDTrack_8h.html" target="_top" xlink:title="/home/travis/build\l/AliceO2Group/AliceO2\l/GPU/GPUTracking/TRDTracking\l/GPUTRDTrack.h">
<polygon fill="none" stroke="#000000" points="1064,-178.5 1064,-230.5 1233,-230.5 1233,-178.5 1064,-178.5"/>
<text text-anchor="start" x="1072" y="-218.5" font-family="Helvetica,sans-Serif" font-size="10.00" fill="#000000">/home/travis/build</text>
<text text-anchor="start" x="1072" y="-207.5" font-family="Helvetica,sans-Serif" font-size="10.00" fill="#000000">/AliceO2Group/AliceO2</text>
<text text-anchor="start" x="1072" y="-196.5" font-family="Helvetica,sans-Serif" font-size="10.00" fill="#000000">/GPU/GPUTracking/TRDTracking</text>
<text text-anchor="middle" x="1148.5" y="-185.5" font-family="Helvetica,sans-Serif" font-size="10.00" fill="#000000">/GPUTRDTrack.h</text>
</a>
</g>
</g>
<!-- Node31&#45;&gt;Node32 -->
<g id="edge11" class="edge">
<title>Node31&#45;&gt;Node32</title>
<path fill="none" stroke="#191970" d="M1148.5,-257.1155C1148.5,-248.2061 1148.5,-238.8475 1148.5,-230.5341"/>
<polygon fill="#191970" stroke="#191970" points="1145.0001,-257.2784 1148.5,-267.2784 1152.0001,-257.2785 1145.0001,-257.2784"/>
</g>
<!-- Node33 -->
<g id="node12" class="node">
<title>Node33</title>
<g id="a_node12"><a xlink:href="../../da/df6/GPUReconstructionCPU_8cxx.html" target="_top" xlink:title="/home/travis/build\l/AliceO2Group/AliceO2\l/GPU/GPUTracking/Base\l/GPUReconstructionCPU.cxx">
<polygon fill="none" stroke="#000000" points="926,-.5 926,-52.5 1079,-52.5 1079,-.5 926,-.5"/>
<text text-anchor="start" x="934" y="-40.5" font-family="Helvetica,sans-Serif" font-size="10.00" fill="#000000">/home/travis/build</text>
<text text-anchor="start" x="934" y="-29.5" font-family="Helvetica,sans-Serif" font-size="10.00" fill="#000000">/AliceO2Group/AliceO2</text>
<text text-anchor="start" x="934" y="-18.5" font-family="Helvetica,sans-Serif" font-size="10.00" fill="#000000">/GPU/GPUTracking/Base</text>
<text text-anchor="middle" x="1002.5" y="-7.5" font-family="Helvetica,sans-Serif" font-size="10.00" fill="#000000">/GPUReconstructionCPU.cxx</text>
</a>
</g>
</g>
<!-- Node32&#45;&gt;Node33 -->
<g id="edge12" class="edge">
<title>Node32&#45;&gt;Node33</title>
<path fill="none" stroke="#191970" d="M1054.1545,-183.8283C1013.8211,-172.9 973.2828,-158.3616 961.5,-142 941.9778,-114.8915 961.8215,-77.5921 980.0889,-52.7975"/>
<polygon fill="#191970" stroke="#191970" points="1053.2737,-187.2156 1063.836,-186.3861 1055.0618,-180.4478 1053.2737,-187.2156"/>
</g>
<!-- Node34 -->
<g id="node13" class="node">
<title>Node34</title>
<g id="a_node13"><a xlink:href="../../d2/d58/GPUChainTracking_8cxx.html" target="_top" xlink:title="/home/travis/build\l/AliceO2Group/AliceO2\l/GPU/GPUTracking/Global\l/GPUChainTracking.cxx">
<polygon fill="none" stroke="#000000" points="1284.5,-.5 1284.5,-52.5 1424.5,-52.5 1424.5,-.5 1284.5,-.5"/>
<text text-anchor="start" x="1292.5" y="-40.5" font-family="Helvetica,sans-Serif" font-size="10.00" fill="#000000">/home/travis/build</text>
<text text-anchor="start" x="1292.5" y="-29.5" font-family="Helvetica,sans-Serif" font-size="10.00" fill="#000000">/AliceO2Group/AliceO2</text>
<text text-anchor="start" x="1292.5" y="-18.5" font-family="Helvetica,sans-Serif" font-size="10.00" fill="#000000">/GPU/GPUTracking/Global</text>
<text text-anchor="middle" x="1354.5" y="-7.5" font-family="Helvetica,sans-Serif" font-size="10.00" fill="#000000">/GPUChainTracking.cxx</text>
</a>
</g>
</g>
<!-- Node32&#45;&gt;Node34 -->
<g id="edge13" class="edge">
<title>Node32&#45;&gt;Node34</title>
<path fill="none" stroke="#191970" d="M1242.9114,-182.6085C1282.5888,-171.5176 1322.5541,-157.1951 1335.5,-142 1356.5864,-117.2501 1358.7367,-78.3204 1357.3841,-52.6036"/>
<polygon fill="#191970" stroke="#191970" points="1241.8417,-179.2724 1233.118,-185.2847 1243.687,-186.0248 1241.8417,-179.2724"/>
</g>
<!-- Node35 -->
<g id="node14" class="node">
<title>Node35</title>
<g id="a_node14"><a xlink:href="../../d3/d85/GPUChainTrackingIO_8cxx.html" target="_top" xlink:title="/home/travis/build\l/AliceO2Group/AliceO2\l/GPU/GPUTracking/Global\l/GPUChainTrackingIO.cxx">
<polygon fill="none" stroke="#000000" points="1442.5,-.5 1442.5,-52.5 1582.5,-52.5 1582.5,-.5 1442.5,-.5"/>
<text text-anchor="start" x="1450.5" y="-40.5" font-family="Helvetica,sans-Serif" font-size="10.00" fill="#000000">/home/travis/build</text>
<text text-anchor="start" x="1450.5" y="-29.5" font-family="Helvetica,sans-Serif" font-size="10.00" fill="#000000">/AliceO2Group/AliceO2</text>
<text text-anchor="start" x="1450.5" y="-18.5" font-family="Helvetica,sans-Serif" font-size="10.00" fill="#000000">/GPU/GPUTracking/Global</text>
<text text-anchor="middle" x="1512.5" y="-7.5" font-family="Helvetica,sans-Serif" font-size="10.00" fill="#000000">/GPUChainTrackingIO.cxx</text>
</a>
</g>
</g>
<!-- Node32&#45;&gt;Node35 -->
<g id="edge14" class="edge">
<title>Node32&#45;&gt;Node35</title>
<path fill="none" stroke="#191970" d="M1242.9401,-184.2636C1280.3834,-174.2807 1323.1009,-160.3662 1359.5,-142 1407.1897,-117.9369 1455.2207,-78.647 1484.4197,-52.6819"/>
<polygon fill="#191970" stroke="#191970" points="1241.83,-180.936 1233.0367,-186.846 1243.5963,-187.7095 1241.83,-180.936"/>
</g>
<!-- Node36 -->
<g id="node15" class="node">
<title>Node36</title>
<g id="a_node15"><a xlink:href="../../d0/d7f/GPUTRDTrack_8cxx.html" target="_top" xlink:title="/home/travis/build\l/AliceO2Group/AliceO2\l/GPU/GPUTracking/TRDTracking\l/GPUTRDTrack.cxx">
<polygon fill="none" stroke="#000000" points="971,-89.5 971,-141.5 1140,-141.5 1140,-89.5 971,-89.5"/>
<text text-anchor="start" x="979" y="-129.5" font-family="Helvetica,sans-Serif" font-size="10.00" fill="#000000">/home/travis/build</text>
<text text-anchor="start" x="979" y="-118.5" font-family="Helvetica,sans-Serif" font-size="10.00" fill="#000000">/AliceO2Group/AliceO2</text>
<text text-anchor="start" x="979" y="-107.5" font-family="Helvetica,sans-Serif" font-size="10.00" fill="#000000">/GPU/GPUTracking/TRDTracking</text>
<text text-anchor="middle" x="1055.5" y="-96.5" font-family="Helvetica,sans-Serif" font-size="10.00" fill="#000000">/GPUTRDTrack.cxx</text>
</a>
</g>
</g>
<!-- Node32&#45;&gt;Node36 -->
<g id="edge15" class="edge">
<title>Node32&#45;&gt;Node36</title>
<path fill="none" stroke="#191970" d="M1113.7968,-171.2894C1103.5246,-161.459 1092.4299,-150.8415 1082.7042,-141.5341"/>
<polygon fill="#191970" stroke="#191970" points="1111.4553,-173.8931 1121.0999,-178.2784 1116.2951,-168.8357 1111.4553,-173.8931"/>
</g>
<!-- Node37 -->
<g id="node16" class="node">
<title>Node37</title>
<g id="a_node16"><a xlink:href="../../dd/d44/GPUTRDTracker_8h.html" target="_top" xlink:title="Online TRD tracker based on extrapolated TPC tracks. ">
<polygon fill="none" stroke="#000000" points="1158,-89.5 1158,-141.5 1327,-141.5 1327,-89.5 1158,-89.5"/>
<text text-anchor="start" x="1166" y="-129.5" font-family="Helvetica,sans-Serif" font-size="10.00" fill="#000000">/home/travis/build</text>
<text text-anchor="start" x="1166" y="-118.5" font-family="Helvetica,sans-Serif" font-size="10.00" fill="#000000">/AliceO2Group/AliceO2</text>
<text text-anchor="start" x="1166" y="-107.5" font-family="Helvetica,sans-Serif" font-size="10.00" fill="#000000">/GPU/GPUTracking/TRDTracking</text>
<text text-anchor="middle" x="1242.5" y="-96.5" font-family="Helvetica,sans-Serif" font-size="10.00" fill="#000000">/GPUTRDTracker.h</text>
</a>
</g>
</g>
<!-- Node32&#45;&gt;Node37 -->
<g id="edge16" class="edge">
<title>Node32&#45;&gt;Node37</title>
<path fill="none" stroke="#191970" d="M1183.5763,-171.2894C1193.959,-161.459 1205.173,-150.8415 1215.0033,-141.5341"/>
<polygon fill="#191970" stroke="#191970" points="1181.0499,-168.8615 1176.1947,-178.2784 1185.8626,-173.9447 1181.0499,-168.8615"/>
</g>
<!-- Node39 -->
<g id="node18" class="node">
<title>Node39</title>
<g id="a_node18"><a xlink:href="../../db/dd1/GPUTRDTrackerComponent_8cxx.html" target="_top" xlink:title="A TRD tracker processing component for the GPU. ">
<polygon fill="none" stroke="#000000" points="735,-.5 735,-52.5 908,-52.5 908,-.5 735,-.5"/>
<text text-anchor="start" x="743" y="-40.5" font-family="Helvetica,sans-Serif" font-size="10.00" fill="#000000">/home/travis/build</text>
<text text-anchor="start" x="743" y="-29.5" font-family="Helvetica,sans-Serif" font-size="10.00" fill="#000000">/AliceO2Group/AliceO2</text>
<text text-anchor="start" x="743" y="-18.5" font-family="Helvetica,sans-Serif" font-size="10.00" fill="#000000">/GPU/GPUTracking/TRDTracking</text>
<text text-anchor="middle" x="821.5" y="-7.5" font-family="Helvetica,sans-Serif" font-size="10.00" fill="#000000">/GPUTRDTrackerComponent.cxx</text>
</a>
</g>
</g>
<!-- Node32&#45;&gt;Node39 -->
<g id="edge22" class="edge">
<title>Node32&#45;&gt;Node39</title>
<path fill="none" stroke="#191970" d="M1053.8526,-183.7388C1019.6279,-173.956 981.5492,-160.3166 949.5,-142 907.6607,-118.0882 867.8205,-78.5701 844.0132,-52.5331"/>
<polygon fill="#191970" stroke="#191970" points="1053.2934,-187.2161 1063.8656,-186.5239 1055.1693,-180.4721 1053.2934,-187.2161"/>
</g>
<!-- Node37&#45;&gt;Node33 -->
<g id="edge17" class="edge">
<title>Node37&#45;&gt;Node33</title>
<path fill="none" stroke="#191970" d="M1162.4322,-85.8082C1133.454,-75.0621 1100.9692,-63.0157 1072.885,-52.6011"/>
<polygon fill="#191970" stroke="#191970" points="1161.5207,-89.203 1172.1137,-89.3984 1163.9546,-82.6398 1161.5207,-89.203"/>
</g>
<!-- Node37&#45;&gt;Node34 -->
<g id="edge18" class="edge">
<title>Node37&#45;&gt;Node34</title>
<path fill="none" stroke="#191970" d="M1283.5736,-82.8612C1296.1445,-72.8718 1309.7979,-62.0222 1321.7379,-52.5341"/>
<polygon fill="#191970" stroke="#191970" points="1281.1496,-80.3169 1275.4979,-89.2784 1285.5045,-85.7972 1281.1496,-80.3169"/>
</g>
<!-- Node37&#45;&gt;Node35 -->
<g id="edge19" class="edge">
<title>Node37&#45;&gt;Node35</title>
<path fill="none" stroke="#191970" d="M1332.2413,-86.2859C1364.2189,-75.836 1400.4842,-63.9391 1433.5,-53 1436.3838,-52.0445 1439.326,-51.0675 1442.2977,-50.0788"/>
<polygon fill="#191970" stroke="#191970" points="1330.8822,-83.0478 1322.4633,-89.4799 1333.0558,-89.7018 1330.8822,-83.0478"/>
</g>
<!-- Node38 -->
<g id="node17" class="node">
<title>Node38</title>
<g id="a_node17"><a xlink:href="../../d9/d33/GPUTRDTracker_8cxx.html" target="_top" xlink:title="/home/travis/build\l/AliceO2Group/AliceO2\l/GPU/GPUTracking/TRDTracking\l/GPUTRDTracker.cxx">
<polygon fill="none" stroke="#000000" points="1097,-.5 1097,-52.5 1266,-52.5 1266,-.5 1097,-.5"/>
<text text-anchor="start" x="1105" y="-40.5" font-family="Helvetica,sans-Serif" font-size="10.00" fill="#000000">/home/travis/build</text>
<text text-anchor="start" x="1105" y="-29.5" font-family="Helvetica,sans-Serif" font-size="10.00" fill="#000000">/AliceO2Group/AliceO2</text>
<text text-anchor="start" x="1105" y="-18.5" font-family="Helvetica,sans-Serif" font-size="10.00" fill="#000000">/GPU/GPUTracking/TRDTracking</text>
<text text-anchor="middle" x="1181.5" y="-7.5" font-family="Helvetica,sans-Serif" font-size="10.00" fill="#000000">/GPUTRDTracker.cxx</text>
</a>
</g>
</g>
<!-- Node37&#45;&gt;Node38 -->
<g id="edge20" class="edge">
<title>Node37&#45;&gt;Node38</title>
<path fill="none" stroke="#191970" d="M1218.7528,-80.8525C1212.2956,-71.4313 1205.4132,-61.3897 1199.3436,-52.5341"/>
<polygon fill="#191970" stroke="#191970" points="1215.9874,-83.0086 1224.5279,-89.2784 1221.7614,-79.0512 1215.9874,-83.0086"/>
</g>
<!-- Node37&#45;&gt;Node39 -->
<g id="edge21" class="edge">
<title>Node37&#45;&gt;Node39</title>
<path fill="none" stroke="#191970" d="M1147.9344,-88.9976C1044.7767,-67.275 1015.3998,-74.3889 916.5,-53 913.7386,-52.4028 910.9385,-51.7725 908.1162,-51.1158"/>
<polygon fill="#191970" stroke="#191970" points="1147.304,-92.4419 1157.8158,-91.1181 1148.7727,-85.5978 1147.304,-92.4419"/>
</g>
</g>
</svg>
