<?xml version="1.0" encoding="UTF-8" standalone="no"?>
<!DOCTYPE svg PUBLIC "-//W3C//DTD SVG 1.1//EN"
 "http://www.w3.org/Graphics/SVG/1.1/DTD/svg11.dtd">
<!-- Generated by graphviz version 2.40.1 (20161225.0304)
 -->
<!-- Title: /home/travis/build/AliceO2Group/AliceO2/Framework/Utils/include/DPLUtils/Utils.h Pages: 1 -->
<svg width="1541pt" height="150pt"
 viewBox="0.00 0.00 1540.50 150.00" xmlns="http://www.w3.org/2000/svg" xmlns:xlink="http://www.w3.org/1999/xlink">
<g id="graph0" class="graph" transform="scale(1 1) rotate(0) translate(4 146)">
<title>/home/travis/build/AliceO2Group/AliceO2/Framework/Utils/include/DPLUtils/Utils.h</title>
<!-- Node130 -->
<g id="node1" class="node">
<title>Node130</title>
<polygon fill="#bfbfbf" stroke="#000000" points="771.5,-89.5 771.5,-141.5 908.5,-141.5 908.5,-89.5 771.5,-89.5"/>
<text text-anchor="start" x="779.5" y="-129.5" font-family="Helvetica,sans-Serif" font-size="10.00" fill="#000000">/home/travis/build</text>
<text text-anchor="start" x="779.5" y="-118.5" font-family="Helvetica,sans-Serif" font-size="10.00" fill="#000000">/AliceO2Group/AliceO2</text>
<text text-anchor="start" x="779.5" y="-107.5" font-family="Helvetica,sans-Serif" font-size="10.00" fill="#000000">/Framework/Utils/include</text>
<text text-anchor="middle" x="840" y="-96.5" font-family="Helvetica,sans-Serif" font-size="10.00" fill="#000000">/DPLUtils/Utils.h</text>
</g>
<!-- Node131 -->
<g id="node2" class="node">
<title>Node131</title>
<g id="a_node2"><a xlink:href="../../d8/d29/DigitsToRawWorkflow_8cxx.html" target="_top" xlink:title="Definition of MID reconstruction workflow for MC. ">
<polygon fill="none" stroke="#000000" points="0,-.5 0,-52.5 170,-52.5 170,-.5 0,-.5"/>
<text text-anchor="start" x="8" y="-40.5" font-family="Helvetica,sans-Serif" font-size="10.00" fill="#000000">/home/travis/build</text>
<text text-anchor="start" x="8" y="-29.5" font-family="Helvetica,sans-Serif" font-size="10.00" fill="#000000">/AliceO2Group/AliceO2</text>
<text text-anchor="start" x="8" y="-18.5" font-family="Helvetica,sans-Serif" font-size="10.00" fill="#000000">/Detectors/MUON/MID/Workflow</text>
<text text-anchor="middle" x="85" y="-7.5" font-family="Helvetica,sans-Serif" font-size="10.00" fill="#000000">/src/DigitsToRawWorkflow.cxx</text>
</a>
</g>
</g>
<!-- Node130&#45;&gt;Node131 -->
<g id="edge1" class="edge">
<title>Node130&#45;&gt;Node131</title>
<path fill="none" stroke="#191970" d="M761.1942,-112.6472C636.6333,-107.1094 387.028,-91.8288 179,-53 176.0832,-52.4556 173.1258,-51.8617 170.1472,-51.2278"/>
<polygon fill="#191970" stroke="#191970" points="761.2563,-116.1531 771.3991,-113.0915 761.5608,-109.1598 761.2563,-116.1531"/>
</g>
<!-- Node132 -->
<g id="node3" class="node">
<title>Node132</title>
<g id="a_node3"><a xlink:href="../../d5/d63/DPLBroadcaster_8cxx.html" target="_top" xlink:title="Implementation of generic DPL broadcaster, v0.1. ">
<polygon fill="none" stroke="#000000" points="188,-6 188,-47 404,-47 404,-6 188,-6"/>
<text text-anchor="start" x="196" y="-35" font-family="Helvetica,sans-Serif" font-size="10.00" fill="#000000">/home/travis/build</text>
<text text-anchor="start" x="196" y="-24" font-family="Helvetica,sans-Serif" font-size="10.00" fill="#000000">/AliceO2Group/AliceO2</text>
<text text-anchor="middle" x="296" y="-13" font-family="Helvetica,sans-Serif" font-size="10.00" fill="#000000">/Framework/Utils/src/DPLBroadcaster.cxx</text>
</a>
</g>
</g>
<!-- Node130&#45;&gt;Node132 -->
<g id="edge2" class="edge">
<title>Node130&#45;&gt;Node132</title>
<path fill="none" stroke="#191970" d="M761.3859,-105.8476C675.489,-94.8697 533.9787,-75.5195 413,-53 403.3766,-51.2087 393.3431,-49.1819 383.3745,-47.0664"/>
<polygon fill="#191970" stroke="#191970" points="760.9608,-109.3217 771.3226,-107.1119 761.8444,-102.3776 760.9608,-109.3217"/>
</g>
<!-- Node133 -->
<g id="node4" class="node">
<title>Node133</title>
<g id="a_node4"><a xlink:href="../../d2/d37/DPLGatherer_8cxx.html" target="_top" xlink:title="Implementation of generic DPL gatherer, v0.1. ">
<polygon fill="none" stroke="#000000" points="422,-6 422,-47 622,-47 622,-6 422,-6"/>
<text text-anchor="start" x="430" y="-35" font-family="Helvetica,sans-Serif" font-size="10.00" fill="#000000">/home/travis/build</text>
<text text-anchor="start" x="430" y="-24" font-family="Helvetica,sans-Serif" font-size="10.00" fill="#000000">/AliceO2Group/AliceO2</text>
<text text-anchor="middle" x="522" y="-13" font-family="Helvetica,sans-Serif" font-size="10.00" fill="#000000">/Framework/Utils/src/DPLGatherer.cxx</text>
</a>
</g>
</g>
<!-- Node130&#45;&gt;Node133 -->
<g id="edge3" class="edge">
<title>Node130&#45;&gt;Node133</title>
<path fill="none" stroke="#191970" d="M761.4516,-93.5163C710.7242,-79.319 645.163,-60.9701 595.4705,-47.0625"/>
<polygon fill="#191970" stroke="#191970" points="760.8169,-96.9731 771.3902,-96.2979 762.7036,-90.2322 760.8169,-96.9731"/>
</g>
<!-- Node134 -->
<g id="node5" class="node">
<title>Node134</title>
<g id="a_node5"><a xlink:href="../../de/d40/DPLMerger_8cxx.html" target="_top" xlink:title="/home/travis/build\l/AliceO2Group/AliceO2\l/Framework/Utils/src/DPLMerger.cxx">
<polygon fill="none" stroke="#000000" points="640.5,-6 640.5,-47 831.5,-47 831.5,-6 640.5,-6"/>
<text text-anchor="start" x="648.5" y="-35" font-family="Helvetica,sans-Serif" font-size="10.00" fill="#000000">/home/travis/build</text>
<text text-anchor="start" x="648.5" y="-24" font-family="Helvetica,sans-Serif" font-size="10.00" fill="#000000">/AliceO2Group/AliceO2</text>
<text text-anchor="middle" x="736" y="-13" font-family="Helvetica,sans-Serif" font-size="10.00" fill="#000000">/Framework/Utils/src/DPLMerger.cxx</text>
</a>
</g>
</g>
<!-- Node130&#45;&gt;Node134 -->
<g id="edge4" class="edge">
<title>Node130&#45;&gt;Node134</title>
<path fill="none" stroke="#191970" d="M801.4111,-82.4768C787.5911,-70.6501 772.4146,-57.6625 760.162,-47.1771"/>
<polygon fill="#191970" stroke="#191970" points="799.4857,-85.4357 809.3591,-89.2784 804.037,-80.1173 799.4857,-85.4357"/>
</g>
<!-- Node135 -->
<g id="node6" class="node">
<title>Node135</title>
<g id="a_node6"><a xlink:href="../../d9/d0e/DPLRouter_8cxx.html" target="_top" xlink:title="/home/travis/build\l/AliceO2Group/AliceO2\l/Framework/Utils/src/DPLRouter.cxx">
<polygon fill="none" stroke="#000000" points="849.5,-6 849.5,-47 1038.5,-47 1038.5,-6 849.5,-6"/>
<text text-anchor="start" x="857.5" y="-35" font-family="Helvetica,sans-Serif" font-size="10.00" fill="#000000">/home/travis/build</text>
<text text-anchor="start" x="857.5" y="-24" font-family="Helvetica,sans-Serif" font-size="10.00" fill="#000000">/AliceO2Group/AliceO2</text>
<text text-anchor="middle" x="944" y="-13" font-family="Helvetica,sans-Serif" font-size="10.00" fill="#000000">/Framework/Utils/src/DPLRouter.cxx</text>
</a>
</g>
</g>
<!-- Node130&#45;&gt;Node135 -->
<g id="edge5" class="edge">
<title>Node130&#45;&gt;Node135</title>
<path fill="none" stroke="#191970" d="M878.5889,-82.4768C892.4089,-70.6501 907.5854,-57.6625 919.838,-47.1771"/>
<polygon fill="#191970" stroke="#191970" points="875.963,-80.1173 870.6409,-89.2784 880.5143,-85.4357 875.963,-80.1173"/>
</g>
<!-- Node136 -->
<g id="node7" class="node">
<title>Node136</title>
<g id="a_node7"><a xlink:href="../../d7/d79/Framework_2Utils_2src_2Utils_8cxx.html" target="_top" xlink:title="/home/travis/build\l/AliceO2Group/AliceO2\l/Framework/Utils/src/Utils.cxx">
<polygon fill="none" stroke="#000000" points="1057,-6 1057,-47 1219,-47 1219,-6 1057,-6"/>
<text text-anchor="start" x="1065" y="-35" font-family="Helvetica,sans-Serif" font-size="10.00" fill="#000000">/home/travis/build</text>
<text text-anchor="start" x="1065" y="-24" font-family="Helvetica,sans-Serif" font-size="10.00" fill="#000000">/AliceO2Group/AliceO2</text>
<text text-anchor="middle" x="1138" y="-13" font-family="Helvetica,sans-Serif" font-size="10.00" fill="#000000">/Framework/Utils/src/Utils.cxx</text>
</a>
</g>
</g>
<!-- Node130&#45;&gt;Node136 -->
<g id="edge6" class="edge">
<title>Node130&#45;&gt;Node136</title>
<path fill="none" stroke="#191970" d="M918.5487,-92.0408C965.4114,-78.0449 1024.3521,-60.4418 1069.3467,-47.0038"/>
<polygon fill="#191970" stroke="#191970" points="917.3216,-88.7545 908.7414,-94.9699 919.3248,-95.4617 917.3216,-88.7545"/>
</g>
<!-- Node137 -->
<g id="node8" class="node">
<title>Node137</title>
<g id="a_node8"><a xlink:href="../../d1/d35/DPLBroadcasterMerger_8cxx.html" target="_top" xlink:title="/home/travis/build\l/AliceO2Group/AliceO2\l/Framework/Utils/test\l/DPLBroadcasterMerger.cxx">
<polygon fill="none" stroke="#000000" points="1237,-.5 1237,-52.5 1387,-52.5 1387,-.5 1237,-.5"/>
<text text-anchor="start" x="1245" y="-40.5" font-family="Helvetica,sans-Serif" font-size="10.00" fill="#000000">/home/travis/build</text>
<text text-anchor="start" x="1245" y="-29.5" font-family="Helvetica,sans-Serif" font-size="10.00" fill="#000000">/AliceO2Group/AliceO2</text>
<text text-anchor="start" x="1245" y="-18.5" font-family="Helvetica,sans-Serif" font-size="10.00" fill="#000000">/Framework/Utils/test</text>
<text text-anchor="middle" x="1312" y="-7.5" font-family="Helvetica,sans-Serif" font-size="10.00" fill="#000000">/DPLBroadcasterMerger.cxx</text>
</a>
</g>
</g>
<!-- Node130&#45;&gt;Node137 -->
<g id="edge7" class="edge">
<title>Node130&#45;&gt;Node137</title>
<path fill="none" stroke="#191970" d="M918.9208,-106.2193C997.7901,-96.1428 1122.2084,-78.0665 1228,-53 1230.8272,-52.3301 1233.6974,-51.6137 1236.5887,-50.8614"/>
<polygon fill="#191970" stroke="#191970" points="918.0603,-102.8002 908.5788,-107.528 918.9392,-109.7448 918.0603,-102.8002"/>
</g>
<!-- Node138 -->
<g id="node9" class="node">
<title>Node138</title>
<g id="a_node9"><a xlink:href="../../da/d34/DPLOutputTest_8cxx.html" target="_top" xlink:title="/home/travis/build\l/AliceO2Group/AliceO2\l/Framework/Utils/test\l/DPLOutputTest.cxx">
<polygon fill="none" stroke="#000000" points="1405.5,-.5 1405.5,-52.5 1532.5,-52.5 1532.5,-.5 1405.5,-.5"/>
<text text-anchor="start" x="1413.5" y="-40.5" font-family="Helvetica,sans-Serif" font-size="10.00" fill="#000000">/home/travis/build</text>
<text text-anchor="start" x="1413.5" y="-29.5" font-family="Helvetica,sans-Serif" font-size="10.00" fill="#000000">/AliceO2Group/AliceO2</text>
<text text-anchor="start" x="1413.5" y="-18.5" font-family="Helvetica,sans-Serif" font-size="10.00" fill="#000000">/Framework/Utils/test</text>
<text text-anchor="middle" x="1469" y="-7.5" font-family="Helvetica,sans-Serif" font-size="10.00" fill="#000000">/DPLOutputTest.cxx</text>
</a>
</g>
</g>
<!-- Node130&#45;&gt;Node138 -->
<g id="edge8" class="edge">
<title>Node130&#45;&gt;Node138</title>
<path fill="none" stroke="#191970" d="M919.1617,-112.4784C1027.9062,-107.0024 1229.0216,-92.1111 1396,-53 1399.0193,-52.2928 1402.0854,-51.4987 1405.1654,-50.6392"/>
<polygon fill="#191970" stroke="#191970" points="918.7474,-108.9944 908.9306,-112.9794 919.0899,-115.986 918.7474,-108.9944"/>
</g>
</g>
</svg>
