<?xml version="1.0" encoding="UTF-8" standalone="no"?>
<!DOCTYPE svg PUBLIC "-//W3C//DTD SVG 1.1//EN"
 "http://www.w3.org/Graphics/SVG/1.1/DTD/svg11.dtd">
<!-- Generated by graphviz version 2.40.1 (20161225.0304)
 -->
<!-- Title: /home/travis/build/AliceO2Group/AliceO2/Detectors/GlobalTrackingWorkflow/include/GlobalTrackingWorkflow/TrackTPCITSReaderSpec.h Pages: 1 -->
<svg width="1660pt" height="172pt"
 viewBox="0.00 0.00 1659.50 172.00" xmlns="http://www.w3.org/2000/svg" xmlns:xlink="http://www.w3.org/1999/xlink">
<g id="graph0" class="graph" transform="scale(1 1) rotate(0) translate(4 168)">
<title>/home/travis/build/AliceO2Group/AliceO2/Detectors/GlobalTrackingWorkflow/include/GlobalTrackingWorkflow/TrackTPCITSReaderSpec.h</title>
<!-- Node183 -->
<g id="node1" class="node">
<title>Node183</title>
<polygon fill="#bfbfbf" stroke="#000000" points="730.5,-100.5 730.5,-163.5 917.5,-163.5 917.5,-100.5 730.5,-100.5"/>
<text text-anchor="start" x="738.5" y="-151.5" font-family="Helvetica,sans-Serif" font-size="10.00" fill="#000000">/home/travis/build</text>
<text text-anchor="start" x="738.5" y="-140.5" font-family="Helvetica,sans-Serif" font-size="10.00" fill="#000000">/AliceO2Group/AliceO2</text>
<text text-anchor="start" x="738.5" y="-129.5" font-family="Helvetica,sans-Serif" font-size="10.00" fill="#000000">/Detectors/GlobalTrackingWorkflow</text>
<text text-anchor="start" x="738.5" y="-118.5" font-family="Helvetica,sans-Serif" font-size="10.00" fill="#000000">/include/GlobalTrackingWorkflow</text>
<text text-anchor="middle" x="824" y="-107.5" font-family="Helvetica,sans-Serif" font-size="10.00" fill="#000000">/TrackTPCITSReaderSpec.h</text>
</g>
<!-- Node184 -->
<g id="node2" class="node">
<title>Node184</title>
<g id="a_node2"><a xlink:href="../../df/de7/AODProducerWorkflow_8cxx.html" target="_top" xlink:title="/home/travis/build\l/AliceO2Group/AliceO2\l/Detectors/AOD/src/AODProducer\lWorkflow.cxx">
<polygon fill="none" stroke="#000000" points="0,-6 0,-58 176,-58 176,-6 0,-6"/>
<text text-anchor="start" x="8" y="-46" font-family="Helvetica,sans-Serif" font-size="10.00" fill="#000000">/home/travis/build</text>
<text text-anchor="start" x="8" y="-35" font-family="Helvetica,sans-Serif" font-size="10.00" fill="#000000">/AliceO2Group/AliceO2</text>
<text text-anchor="start" x="8" y="-24" font-family="Helvetica,sans-Serif" font-size="10.00" fill="#000000">/Detectors/AOD/src/AODProducer</text>
<text text-anchor="middle" x="88" y="-13" font-family="Helvetica,sans-Serif" font-size="10.00" fill="#000000">Workflow.cxx</text>
</a>
</g>
</g>
<!-- Node183&#45;&gt;Node184 -->
<g id="edge1" class="edge">
<title>Node183&#45;&gt;Node184</title>
<path fill="none" stroke="#191970" d="M720.2914,-127.7413C592.9865,-120.9656 371.0853,-104.1173 185,-64 177.286,-62.337 169.3229,-60.2852 161.4303,-58.0301"/>
<polygon fill="#191970" stroke="#191970" points="720.2546,-131.244 730.4234,-128.2699 720.6194,-124.2535 720.2546,-131.244"/>
</g>
<!-- Node185 -->
<g id="node3" class="node">
<title>Node185</title>
<g id="a_node3"><a xlink:href="../../d2/dfc/primary-vertexing-workflow_8cxx.html" target="_top" xlink:title="/home/travis/build\l/AliceO2Group/AliceO2\l/Detectors/GlobalTrackingWorkflow\l/src/primary&#45;vertexing&#45;workflow.cxx">
<polygon fill="none" stroke="#000000" points="194.5,-6 194.5,-58 387.5,-58 387.5,-6 194.5,-6"/>
<text text-anchor="start" x="202.5" y="-46" font-family="Helvetica,sans-Serif" font-size="10.00" fill="#000000">/home/travis/build</text>
<text text-anchor="start" x="202.5" y="-35" font-family="Helvetica,sans-Serif" font-size="10.00" fill="#000000">/AliceO2Group/AliceO2</text>
<text text-anchor="start" x="202.5" y="-24" font-family="Helvetica,sans-Serif" font-size="10.00" fill="#000000">/Detectors/GlobalTrackingWorkflow</text>
<text text-anchor="middle" x="291" y="-13" font-family="Helvetica,sans-Serif" font-size="10.00" fill="#000000">/src/primary&#45;vertexing&#45;workflow.cxx</text>
</a>
</g>
</g>
<!-- Node183&#45;&gt;Node185 -->
<g id="edge2" class="edge">
<title>Node183&#45;&gt;Node185</title>
<path fill="none" stroke="#191970" d="M720.0323,-119.5744C632.8789,-108.1833 505.483,-89.2528 396,-64 388.2937,-62.2225 380.3266,-60.1804 372.3858,-58.0061"/>
<polygon fill="#191970" stroke="#191970" points="719.8245,-123.0766 730.1916,-120.8919 720.7248,-116.1348 719.8245,-123.0766"/>
</g>
<!-- Node186 -->
<g id="node4" class="node">
<title>Node186</title>
<g id="a_node4"><a xlink:href="../../d9/d62/secondary-vertexing-workflow_8cxx.html" target="_top" xlink:title="/home/travis/build\l/AliceO2Group/AliceO2\l/Detectors/GlobalTrackingWorkflow\l/src/secondary&#45;vertexing&#45;workflow.cxx">
<polygon fill="none" stroke="#000000" points="405.5,-6 405.5,-58 610.5,-58 610.5,-6 405.5,-6"/>
<text text-anchor="start" x="413.5" y="-46" font-family="Helvetica,sans-Serif" font-size="10.00" fill="#000000">/home/travis/build</text>
<text text-anchor="start" x="413.5" y="-35" font-family="Helvetica,sans-Serif" font-size="10.00" fill="#000000">/AliceO2Group/AliceO2</text>
<text text-anchor="start" x="413.5" y="-24" font-family="Helvetica,sans-Serif" font-size="10.00" fill="#000000">/Detectors/GlobalTrackingWorkflow</text>
<text text-anchor="middle" x="508" y="-13" font-family="Helvetica,sans-Serif" font-size="10.00" fill="#000000">/src/secondary&#45;vertexing&#45;workflow.cxx</text>
</a>
</g>
</g>
<!-- Node183&#45;&gt;Node186 -->
<g id="edge3" class="edge">
<title>Node183&#45;&gt;Node186</title>
<path fill="none" stroke="#191970" d="M720.7031,-99.3111C678.4043,-85.9254 630.1383,-70.6514 590.2877,-58.0404"/>
<polygon fill="#191970" stroke="#191970" points="719.8822,-102.7223 730.4722,-102.4026 721.9942,-96.0485 719.8822,-102.7223"/>
</g>
<!-- Node187 -->
<g id="node5" class="node">
<title>Node187</title>
<g id="a_node5"><a xlink:href="../../dd/d3a/TrackTPCITSReaderSpec_8cxx.html" target="_top" xlink:title="/home/travis/build\l/AliceO2Group/AliceO2\l/Detectors/GlobalTrackingWorkflow\l/src/TrackTPCITSReaderSpec.cxx">
<polygon fill="none" stroke="#000000" points="628.5,-6 628.5,-58 815.5,-58 815.5,-6 628.5,-6"/>
<text text-anchor="start" x="636.5" y="-46" font-family="Helvetica,sans-Serif" font-size="10.00" fill="#000000">/home/travis/build</text>
<text text-anchor="start" x="636.5" y="-35" font-family="Helvetica,sans-Serif" font-size="10.00" fill="#000000">/AliceO2Group/AliceO2</text>
<text text-anchor="start" x="636.5" y="-24" font-family="Helvetica,sans-Serif" font-size="10.00" fill="#000000">/Detectors/GlobalTrackingWorkflow</text>
<text text-anchor="middle" x="722" y="-13" font-family="Helvetica,sans-Serif" font-size="10.00" fill="#000000">/src/TrackTPCITSReaderSpec.cxx</text>
</a>
</g>
</g>
<!-- Node183&#45;&gt;Node187 -->
<g id="edge4" class="edge">
<title>Node183&#45;&gt;Node187</title>
<path fill="none" stroke="#191970" d="M784.3988,-93.1752C772.4051,-81.4167 759.525,-68.7892 748.5995,-58.078"/>
<polygon fill="#191970" stroke="#191970" points="782.1355,-95.8579 791.7266,-100.3594 787.0361,-90.8594 782.1355,-95.8579"/>
</g>
<!-- Node188 -->
<g id="node6" class="node">
<title>Node188</title>
<g id="a_node6"><a xlink:href="../../d6/d1f/tof-calibinfo-reader_8cxx.html" target="_top" xlink:title="/home/travis/build\l/AliceO2Group/AliceO2\l/Detectors/GlobalTrackingWorkflow\l/tofworkflow/src/tof&#45;calibinfo\l&#45;reader.cxx">
<polygon fill="none" stroke="#000000" points="833.5,-.5 833.5,-63.5 1020.5,-63.5 1020.5,-.5 833.5,-.5"/>
<text text-anchor="start" x="841.5" y="-51.5" font-family="Helvetica,sans-Serif" font-size="10.00" fill="#000000">/home/travis/build</text>
<text text-anchor="start" x="841.5" y="-40.5" font-family="Helvetica,sans-Serif" font-size="10.00" fill="#000000">/AliceO2Group/AliceO2</text>
<text text-anchor="start" x="841.5" y="-29.5" font-family="Helvetica,sans-Serif" font-size="10.00" fill="#000000">/Detectors/GlobalTrackingWorkflow</text>
<text text-anchor="start" x="841.5" y="-18.5" font-family="Helvetica,sans-Serif" font-size="10.00" fill="#000000">/tofworkflow/src/tof&#45;calibinfo</text>
<text text-anchor="middle" x="927" y="-7.5" font-family="Helvetica,sans-Serif" font-size="10.00" fill="#000000">&#45;reader.cxx</text>
</a>
</g>
</g>
<!-- Node183&#45;&gt;Node188 -->
<g id="edge5" class="edge">
<title>Node183&#45;&gt;Node188</title>
<path fill="none" stroke="#191970" d="M863.7937,-93.3653C873.8729,-83.5797 884.5837,-73.1809 894.2686,-63.778"/>
<polygon fill="#191970" stroke="#191970" points="861.3266,-90.8824 856.5898,-100.3594 866.2027,-95.9047 861.3266,-90.8824"/>
</g>
<!-- Node189 -->
<g id="node7" class="node">
<title>Node189</title>
<g id="a_node7"><a xlink:href="../../de/d48/tof-matcher-global_8cxx.html" target="_top" xlink:title="/home/travis/build\l/AliceO2Group/AliceO2\l/Detectors/GlobalTrackingWorkflow\l/tofworkflow/src/tof&#45;matcher\l&#45;global.cxx">
<polygon fill="none" stroke="#000000" points="1038.5,-.5 1038.5,-63.5 1225.5,-63.5 1225.5,-.5 1038.5,-.5"/>
<text text-anchor="start" x="1046.5" y="-51.5" font-family="Helvetica,sans-Serif" font-size="10.00" fill="#000000">/home/travis/build</text>
<text text-anchor="start" x="1046.5" y="-40.5" font-family="Helvetica,sans-Serif" font-size="10.00" fill="#000000">/AliceO2Group/AliceO2</text>
<text text-anchor="start" x="1046.5" y="-29.5" font-family="Helvetica,sans-Serif" font-size="10.00" fill="#000000">/Detectors/GlobalTrackingWorkflow</text>
<text text-anchor="start" x="1046.5" y="-18.5" font-family="Helvetica,sans-Serif" font-size="10.00" fill="#000000">/tofworkflow/src/tof&#45;matcher</text>
<text text-anchor="middle" x="1132" y="-7.5" font-family="Helvetica,sans-Serif" font-size="10.00" fill="#000000">&#45;global.cxx</text>
</a>
</g>
</g>
<!-- Node183&#45;&gt;Node189 -->
<g id="edge6" class="edge">
<title>Node183&#45;&gt;Node189</title>
<path fill="none" stroke="#191970" d="M927.1848,-98.4984C963.0918,-86.8403 1003.1499,-73.8345 1038.2503,-62.4382"/>
<polygon fill="#191970" stroke="#191970" points="926.095,-95.1723 917.6646,-101.5894 928.2567,-101.8302 926.095,-95.1723"/>
</g>
<!-- Node190 -->
<g id="node8" class="node">
<title>Node190</title>
<g id="a_node8"><a xlink:href="../../da/dfd/tof-reco-workflow_8cxx.html" target="_top" xlink:title="Basic DPL workflow for TOF reconstruction starting from digits. ">
<polygon fill="none" stroke="#000000" points="1243.5,-6 1243.5,-58 1446.5,-58 1446.5,-6 1243.5,-6"/>
<text text-anchor="start" x="1251.5" y="-46" font-family="Helvetica,sans-Serif" font-size="10.00" fill="#000000">/home/travis/build</text>
<text text-anchor="start" x="1251.5" y="-35" font-family="Helvetica,sans-Serif" font-size="10.00" fill="#000000">/AliceO2Group/AliceO2</text>
<text text-anchor="start" x="1251.5" y="-24" font-family="Helvetica,sans-Serif" font-size="10.00" fill="#000000">/Detectors/GlobalTrackingWorkflow</text>
<text text-anchor="middle" x="1345" y="-13" font-family="Helvetica,sans-Serif" font-size="10.00" fill="#000000">/tofworkflow/src/tof&#45;reco&#45;workflow.cxx</text>
</a>
</g>
</g>
<!-- Node183&#45;&gt;Node190 -->
<g id="edge7" class="edge">
<title>Node183&#45;&gt;Node190</title>
<path fill="none" stroke="#191970" d="M927.6565,-118.338C1011.1611,-106.4967 1131.312,-87.5713 1235,-64 1242.8546,-62.2144 1250.9771,-60.1929 1259.086,-58.0548"/>
<polygon fill="#191970" stroke="#191970" points="927.0721,-114.8857 917.6583,-119.7468 928.0489,-121.8173 927.0721,-114.8857"/>
</g>
<!-- Node191 -->
<g id="node9" class="node">
<title>Node191</title>
<g id="a_node9"><a xlink:href="../../d1/d67/TrackInterpolationWorkflow_8cxx.html" target="_top" xlink:title="/home/travis/build\l/AliceO2Group/AliceO2\l/Detectors/GlobalTrackingWorkflow\l/tpcinterpolationworkflow/src\l/TrackInterpolationWorkflow.cxx">
<polygon fill="none" stroke="#000000" points="1464.5,-.5 1464.5,-63.5 1651.5,-63.5 1651.5,-.5 1464.5,-.5"/>
<text text-anchor="start" x="1472.5" y="-51.5" font-family="Helvetica,sans-Serif" font-size="10.00" fill="#000000">/home/travis/build</text>
<text text-anchor="start" x="1472.5" y="-40.5" font-family="Helvetica,sans-Serif" font-size="10.00" fill="#000000">/AliceO2Group/AliceO2</text>
<text text-anchor="start" x="1472.5" y="-29.5" font-family="Helvetica,sans-Serif" font-size="10.00" fill="#000000">/Detectors/GlobalTrackingWorkflow</text>
<text text-anchor="start" x="1472.5" y="-18.5" font-family="Helvetica,sans-Serif" font-size="10.00" fill="#000000">/tpcinterpolationworkflow/src</text>
<text text-anchor="middle" x="1558" y="-7.5" font-family="Helvetica,sans-Serif" font-size="10.00" fill="#000000">/TrackInterpolationWorkflow.cxx</text>
</a>
</g>
</g>
<!-- Node183&#45;&gt;Node191 -->
<g id="edge8" class="edge">
<title>Node183&#45;&gt;Node191</title>
<path fill="none" stroke="#191970" d="M927.5561,-127.1188C1053.5433,-119.7477 1272.1928,-102.3308 1456,-64 1458.7253,-63.4317 1461.4814,-62.8201 1464.2553,-62.1723"/>
<polygon fill="#191970" stroke="#191970" points="927.3093,-123.6271 917.5268,-127.6958 927.7114,-130.6156 927.3093,-123.6271"/>
</g>
</g>
</svg>
