<?xml version="1.0" encoding="UTF-8" standalone="no"?>
<!DOCTYPE svg PUBLIC "-//W3C//DTD SVG 1.1//EN"
 "http://www.w3.org/Graphics/SVG/1.1/DTD/svg11.dtd">
<!-- Generated by graphviz version 2.40.1 (20161225.0304)
 -->
<!-- Title: TaskD0 Pages: 1 -->
<svg width="1574pt" height="1050pt"
 viewBox="0.00 0.00 1573.50 1050.00" xmlns="http://www.w3.org/2000/svg" xmlns:xlink="http://www.w3.org/1999/xlink">
<g id="graph0" class="graph" transform="scale(1 1) rotate(0) translate(4 1046)">
<title>TaskD0</title>
<!-- Node1 -->
<g id="node1" class="node">
<title>Node1</title>
<polygon fill="#bfbfbf" stroke="#000000" points="1236,-.5 1236,-112.5 1332,-112.5 1332,-.5 1236,-.5"/>
<text text-anchor="middle" x="1284" y="-100.5" font-family="Helvetica,sans-Serif" font-size="10.00" fill="#000000">TaskD0</text>
<polyline fill="none" stroke="#000000" points="1236,-93.5 1332,-93.5 "/>
<text text-anchor="start" x="1244" y="-81.5" font-family="Helvetica,sans-Serif" font-size="10.00" fill="#000000">+ hmass</text>
<text text-anchor="start" x="1244" y="-70.5" font-family="Helvetica,sans-Serif" font-size="10.00" fill="#000000">+ hptcand</text>
<text text-anchor="start" x="1244" y="-59.5" font-family="Helvetica,sans-Serif" font-size="10.00" fill="#000000">+ hptprong1</text>
<text text-anchor="start" x="1244" y="-48.5" font-family="Helvetica,sans-Serif" font-size="10.00" fill="#000000">+ hImpParErr</text>
<text text-anchor="start" x="1244" y="-37.5" font-family="Helvetica,sans-Serif" font-size="10.00" fill="#000000">+ hDecLenErr</text>
<text text-anchor="start" x="1244" y="-26.5" font-family="Helvetica,sans-Serif" font-size="10.00" fill="#000000">+ hDecLenXYErr</text>
<polyline fill="none" stroke="#000000" points="1236,-19.5 1332,-19.5 "/>
<text text-anchor="start" x="1244" y="-7.5" font-family="Helvetica,sans-Serif" font-size="10.00" fill="#000000">+ process()</text>
</g>
<!-- Node2 -->
<g id="node2" class="node">
<title>Node2</title>
<g id="a_node2"><a xlink:href="../../d8/d71/structo2_1_1framework_1_1Configurable.html" target="_top" xlink:title="{o2::framework::Configurable\l\&lt; int \&gt;\n||+ Configurable()\l}">
<polygon fill="none" stroke="#000000" points="1206.5,-197.5 1206.5,-265.5 1361.5,-265.5 1361.5,-197.5 1206.5,-197.5"/>
<text text-anchor="start" x="1214.5" y="-253.5" font-family="Helvetica,sans-Serif" font-size="10.00" fill="#000000">o2::framework::Configurable</text>
<text text-anchor="middle" x="1284" y="-242.5" font-family="Helvetica,sans-Serif" font-size="10.00" fill="#000000">&lt; int &gt;</text>
<polyline fill="none" stroke="#000000" points="1206.5,-235.5 1361.5,-235.5 "/>
<text text-anchor="middle" x="1284" y="-223.5" font-family="Helvetica,sans-Serif" font-size="10.00" fill="#000000"> </text>
<polyline fill="none" stroke="#000000" points="1206.5,-216.5 1361.5,-216.5 "/>
<text text-anchor="start" x="1214.5" y="-204.5" font-family="Helvetica,sans-Serif" font-size="10.00" fill="#000000">+ Configurable()</text>
</a>
</g>
</g>
<!-- Node2&#45;&gt;Node1 -->
<g id="edge1" class="edge">
<title>Node2&#45;&gt;Node1</title>
<path fill="none" stroke="#404040" d="M1284,-197.3428C1284,-176.6563 1284,-149.5375 1284,-124.6249"/>
<polygon fill="none" stroke="#404040" points="1284.0001,-124.6101 1280,-118.6102 1284,-112.6101 1288,-118.6101 1284.0001,-124.6101"/>
<text text-anchor="middle" x="1341" y="-145" font-family="Helvetica,sans-Serif" font-size="10.00" fill="#000000"> +d_selectionFlagD0</text>
<text text-anchor="middle" x="1341" y="-134" font-family="Helvetica,sans-Serif" font-size="10.00" fill="#000000">+d_selectionFlagD0bar</text>
</g>
<!-- Node3 -->
<g id="node3" class="node">
<title>Node3</title>
<g id="a_node3"><a xlink:href="../../da/def/structo2_1_1framework_1_1ConfigurablePolicyConst.html" target="_top" xlink:title="{o2::framework::Configurable\lPolicyConst\&lt; int \&gt;\n||+ ConfigurablePolicyConst()\l}">
<polygon fill="none" stroke="#000000" points="1068.5,-394.5 1068.5,-462.5 1223.5,-462.5 1223.5,-394.5 1068.5,-394.5"/>
<text text-anchor="start" x="1076.5" y="-450.5" font-family="Helvetica,sans-Serif" font-size="10.00" fill="#000000">o2::framework::Configurable</text>
<text text-anchor="middle" x="1146" y="-439.5" font-family="Helvetica,sans-Serif" font-size="10.00" fill="#000000">PolicyConst&lt; int &gt;</text>
<polyline fill="none" stroke="#000000" points="1068.5,-432.5 1223.5,-432.5 "/>
<text text-anchor="middle" x="1146" y="-420.5" font-family="Helvetica,sans-Serif" font-size="10.00" fill="#000000"> </text>
<polyline fill="none" stroke="#000000" points="1068.5,-413.5 1223.5,-413.5 "/>
<text text-anchor="start" x="1076.5" y="-401.5" font-family="Helvetica,sans-Serif" font-size="10.00" fill="#000000">+ ConfigurablePolicyConst()</text>
</a>
</g>
</g>
<!-- Node3&#45;&gt;Node2 -->
<g id="edge2" class="edge">
<title>Node3&#45;&gt;Node2</title>
<path fill="none" stroke="#191970" d="M1175.8837,-385.8399C1201.0717,-349.8832 1236.6444,-299.1018 1260.0066,-265.7515"/>
<polygon fill="none" stroke="#191970" points="1172.9086,-383.9867 1170.0378,-394.1852 1178.6419,-388.0029 1172.9086,-383.9867"/>
</g>
<!-- Node4 -->
<g id="node4" class="node">
<title>Node4</title>
<g id="a_node4"><a xlink:href="../../da/d2f/structo2_1_1framework_1_1ConfigurableBase.html" target="_top" xlink:title="{o2::framework::Configurable\lBase\&lt; int \&gt;\n||+ ConfigurableBase()\l}">
<polygon fill="none" stroke="#000000" points="996.5,-615 996.5,-683 1151.5,-683 1151.5,-615 996.5,-615"/>
<text text-anchor="start" x="1004.5" y="-671" font-family="Helvetica,sans-Serif" font-size="10.00" fill="#000000">o2::framework::Configurable</text>
<text text-anchor="middle" x="1074" y="-660" font-family="Helvetica,sans-Serif" font-size="10.00" fill="#000000">Base&lt; int &gt;</text>
<polyline fill="none" stroke="#000000" points="996.5,-653 1151.5,-653 "/>
<text text-anchor="middle" x="1074" y="-641" font-family="Helvetica,sans-Serif" font-size="10.00" fill="#000000"> </text>
<polyline fill="none" stroke="#000000" points="996.5,-634 1151.5,-634 "/>
<text text-anchor="start" x="1004.5" y="-622" font-family="Helvetica,sans-Serif" font-size="10.00" fill="#000000">+ ConfigurableBase()</text>
</a>
</g>
</g>
<!-- Node4&#45;&gt;Node3 -->
<g id="edge3" class="edge">
<title>Node4&#45;&gt;Node3</title>
<path fill="none" stroke="#191970" d="M1088.4036,-604.8889C1102.0754,-563.0191 1122.3392,-500.9612 1134.829,-462.7112"/>
<polygon fill="none" stroke="#191970" points="1085.027,-603.9544 1085.25,-614.5469 1091.6812,-606.1272 1085.027,-603.9544"/>
</g>
<!-- Node5 -->
<g id="node5" class="node">
<title>Node5</title>
<polygon fill="none" stroke="#bfbfbf" points="953.5,-968 953.5,-1025 982.5,-1025 982.5,-968 953.5,-968"/>
<text text-anchor="middle" x="968" y="-1013" font-family="Helvetica,sans-Serif" font-size="10.00" fill="#000000">int</text>
<polyline fill="none" stroke="#bfbfbf" points="953.5,-1006 982.5,-1006 "/>
<text text-anchor="middle" x="968" y="-994" font-family="Helvetica,sans-Serif" font-size="10.00" fill="#000000"> </text>
<polyline fill="none" stroke="#bfbfbf" points="953.5,-987 982.5,-987 "/>
<text text-anchor="middle" x="968" y="-975" font-family="Helvetica,sans-Serif" font-size="10.00" fill="#000000"> </text>
</g>
<!-- Node5&#45;&gt;Node4 -->
<g id="edge4" class="edge">
<title>Node5&#45;&gt;Node4</title>
<path fill="none" stroke="#404040" d="M975.2568,-967.9508C985.9754,-926.3643 1007.0413,-846.8006 1028,-780 1036.9703,-751.4093 1048.0757,-719.6955 1057.1273,-694.6334"/>
<polygon fill="none" stroke="#404040" points="1057.1596,-694.5443 1055.4485,-687.5392 1061.2567,-683.2654 1062.9678,-690.2706 1057.1596,-694.5443"/>
<text text-anchor="middle" x="1047.5" y="-845" font-family="Helvetica,sans-Serif" font-size="10.00" fill="#000000"> +value</text>
<text text-anchor="middle" x="1047.5" y="-834" font-family="Helvetica,sans-Serif" font-size="10.00" fill="#000000">+name</text>
<text text-anchor="middle" x="1047.5" y="-823" font-family="Helvetica,sans-Serif" font-size="10.00" fill="#000000">+help</text>
</g>
<!-- Node6 -->
<g id="node6" class="node">
<title>Node6</title>
<g id="a_node6"><a xlink:href="../../da/d2f/structo2_1_1framework_1_1ConfigurableBase.html" target="_top" xlink:title="{o2::framework::Configurable\lBase\&lt; T \&gt;\n||+ ConfigurableBase()\l}">
<polygon fill="none" stroke="#000000" points="1076.5,-802.5 1076.5,-870.5 1231.5,-870.5 1231.5,-802.5 1076.5,-802.5"/>
<text text-anchor="start" x="1084.5" y="-858.5" font-family="Helvetica,sans-Serif" font-size="10.00" fill="#000000">o2::framework::Configurable</text>
<text text-anchor="middle" x="1154" y="-847.5" font-family="Helvetica,sans-Serif" font-size="10.00" fill="#000000">Base&lt; T &gt;</text>
<polyline fill="none" stroke="#000000" points="1076.5,-840.5 1231.5,-840.5 "/>
<text text-anchor="middle" x="1154" y="-828.5" font-family="Helvetica,sans-Serif" font-size="10.00" fill="#000000"> </text>
<polyline fill="none" stroke="#000000" points="1076.5,-821.5 1231.5,-821.5 "/>
<text text-anchor="start" x="1084.5" y="-809.5" font-family="Helvetica,sans-Serif" font-size="10.00" fill="#000000">+ ConfigurableBase()</text>
</a>
</g>
</g>
<!-- Node5&#45;&gt;Node6 -->
<g id="edge6" class="edge">
<title>Node5&#45;&gt;Node6</title>
<path fill="none" stroke="#404040" d="M982.5951,-983.9451C1008.6551,-961.5278 1064.2837,-913.6753 1105.1287,-878.5399"/>
<polygon fill="none" stroke="#404040" points="1105.2862,-878.4044 1107.2263,-871.4591 1114.3834,-870.5788 1112.4433,-877.524 1105.2862,-878.4044"/>
<text text-anchor="middle" x="1087" y="-925" font-family="Helvetica,sans-Serif" font-size="10.00" fill="#000000"> +name</text>
<text text-anchor="middle" x="1087" y="-914" font-family="Helvetica,sans-Serif" font-size="10.00" fill="#000000">+help</text>
</g>
<!-- Node11 -->
<g id="node11" class="node">
<title>Node11</title>
<g id="a_node11"><a xlink:href="../../d4/d79/structo2_1_1framework_1_1OutputObj.html" target="_top" xlink:title="{o2::framework::OutputObj\l\&lt; TH1F \&gt;\n||+ spec()\l+ OutputObj()\l+ OutputObj()\l+ setObject()\l+ setObject()\l+ setObject()\l+ setObject()\l+ setHash()\l+ operator&#45;\&gt;()\l+ operator*()\l+ ref()\l}">
<polygon fill="none" stroke="#000000" points="617.5,-339.5 617.5,-517.5 760.5,-517.5 760.5,-339.5 617.5,-339.5"/>
<text text-anchor="start" x="625.5" y="-505.5" font-family="Helvetica,sans-Serif" font-size="10.00" fill="#000000">o2::framework::OutputObj</text>
<text text-anchor="middle" x="689" y="-494.5" font-family="Helvetica,sans-Serif" font-size="10.00" fill="#000000">&lt; TH1F &gt;</text>
<polyline fill="none" stroke="#000000" points="617.5,-487.5 760.5,-487.5 "/>
<text text-anchor="middle" x="689" y="-475.5" font-family="Helvetica,sans-Serif" font-size="10.00" fill="#000000"> </text>
<polyline fill="none" stroke="#000000" points="617.5,-468.5 760.5,-468.5 "/>
<text text-anchor="start" x="625.5" y="-456.5" font-family="Helvetica,sans-Serif" font-size="10.00" fill="#000000">+ spec()</text>
<text text-anchor="start" x="625.5" y="-445.5" font-family="Helvetica,sans-Serif" font-size="10.00" fill="#000000">+ OutputObj()</text>
<text text-anchor="start" x="625.5" y="-434.5" font-family="Helvetica,sans-Serif" font-size="10.00" fill="#000000">+ OutputObj()</text>
<text text-anchor="start" x="625.5" y="-423.5" font-family="Helvetica,sans-Serif" font-size="10.00" fill="#000000">+ setObject()</text>
<text text-anchor="start" x="625.5" y="-412.5" font-family="Helvetica,sans-Serif" font-size="10.00" fill="#000000">+ setObject()</text>
<text text-anchor="start" x="625.5" y="-401.5" font-family="Helvetica,sans-Serif" font-size="10.00" fill="#000000">+ setObject()</text>
<text text-anchor="start" x="625.5" y="-390.5" font-family="Helvetica,sans-Serif" font-size="10.00" fill="#000000">+ setObject()</text>
<text text-anchor="start" x="625.5" y="-379.5" font-family="Helvetica,sans-Serif" font-size="10.00" fill="#000000">+ setHash()</text>
<text text-anchor="start" x="625.5" y="-368.5" font-family="Helvetica,sans-Serif" font-size="10.00" fill="#000000">+ operator&#45;&gt;()</text>
<text text-anchor="start" x="625.5" y="-357.5" font-family="Helvetica,sans-Serif" font-size="10.00" fill="#000000">+ operator*()</text>
<text text-anchor="start" x="625.5" y="-346.5" font-family="Helvetica,sans-Serif" font-size="10.00" fill="#000000">+ ref()</text>
</a>
</g>
</g>
<!-- Node5&#45;&gt;Node11 -->
<g id="edge15" class="edge">
<title>Node5&#45;&gt;Node11</title>
<path fill="none" stroke="#404040" d="M970.3301,-967.9864C976.7449,-882.7985 991.5024,-631.945 949,-565 909.7411,-503.1638 832.6566,-467.7419 772.5687,-448.5623"/>
<polygon fill="none" stroke="#404040" points="772.2635,-448.4685 765.3525,-450.5274 760.7939,-444.9399 767.7049,-442.881 772.2635,-448.4685"/>
<text text-anchor="middle" x="997" y="-754" font-family="Helvetica,sans-Serif" font-size="10.00" fill="#000000"> +label</text>
</g>
<!-- Node15 -->
<g id="node15" class="node">
<title>Node15</title>
<g id="a_node15"><a xlink:href="../../da/d96/structo2_1_1framework_1_1InputSpec.html" target="_top" xlink:title="{o2::framework::InputSpec\n||+ InputSpec()\l+ InputSpec()\l+ InputSpec()\l+ InputSpec()\l+ InputSpec()\l+ operator==()\l}">
<polygon fill="none" stroke="#000000" points="129,-780.5 129,-892.5 271,-892.5 271,-780.5 129,-780.5"/>
<text text-anchor="middle" x="200" y="-880.5" font-family="Helvetica,sans-Serif" font-size="10.00" fill="#000000">o2::framework::InputSpec</text>
<polyline fill="none" stroke="#000000" points="129,-873.5 271,-873.5 "/>
<text text-anchor="middle" x="200" y="-861.5" font-family="Helvetica,sans-Serif" font-size="10.00" fill="#000000"> </text>
<polyline fill="none" stroke="#000000" points="129,-854.5 271,-854.5 "/>
<text text-anchor="start" x="137" y="-842.5" font-family="Helvetica,sans-Serif" font-size="10.00" fill="#000000">+ InputSpec()</text>
<text text-anchor="start" x="137" y="-831.5" font-family="Helvetica,sans-Serif" font-size="10.00" fill="#000000">+ InputSpec()</text>
<text text-anchor="start" x="137" y="-820.5" font-family="Helvetica,sans-Serif" font-size="10.00" fill="#000000">+ InputSpec()</text>
<text text-anchor="start" x="137" y="-809.5" font-family="Helvetica,sans-Serif" font-size="10.00" fill="#000000">+ InputSpec()</text>
<text text-anchor="start" x="137" y="-798.5" font-family="Helvetica,sans-Serif" font-size="10.00" fill="#000000">+ InputSpec()</text>
<text text-anchor="start" x="137" y="-787.5" font-family="Helvetica,sans-Serif" font-size="10.00" fill="#000000">+ operator==()</text>
</a>
</g>
</g>
<!-- Node5&#45;&gt;Node15 -->
<g id="edge21" class="edge">
<title>Node5&#45;&gt;Node15</title>
<path fill="none" stroke="#404040" d="M953.4107,-995.9844C888.3522,-993.4514 618.446,-980.4625 403,-933 372.804,-926.3479 366.41,-920.5447 337,-911 314.8896,-903.8243 306.0539,-904.4619 282.4188,-893.759"/>
<polygon fill="none" stroke="#404040" points="282.1196,-893.6153 274.9794,-894.6246 271.3016,-888.4218 278.4417,-887.4126 282.1196,-893.6153"/>
<text text-anchor="middle" x="427" y="-919.5" font-family="Helvetica,sans-Serif" font-size="10.00" fill="#000000"> +binding</text>
</g>
<!-- Node20 -->
<g id="node20" class="node">
<title>Node20</title>
<g id="a_node20"><a xlink:href="../../d4/d79/structo2_1_1framework_1_1OutputObj.html" target="_top" xlink:title="{o2::framework::OutputObj\&lt; T \&gt;\n||+ OutputObj()\l+ OutputObj()\l+ setObject()\l+ setObject()\l+ setObject()\l+ setObject()\l+ setHash()\l+ spec()\l+ operator&#45;\&gt;()\l+ operator*()\l+ ref()\l}">
<polygon fill="none" stroke="#000000" points="418,-565.5 418,-732.5 590,-732.5 590,-565.5 418,-565.5"/>
<text text-anchor="middle" x="504" y="-720.5" font-family="Helvetica,sans-Serif" font-size="10.00" fill="#000000">o2::framework::OutputObj&lt; T &gt;</text>
<polyline fill="none" stroke="#000000" points="418,-713.5 590,-713.5 "/>
<text text-anchor="middle" x="504" y="-701.5" font-family="Helvetica,sans-Serif" font-size="10.00" fill="#000000"> </text>
<polyline fill="none" stroke="#000000" points="418,-694.5 590,-694.5 "/>
<text text-anchor="start" x="426" y="-682.5" font-family="Helvetica,sans-Serif" font-size="10.00" fill="#000000">+ OutputObj()</text>
<text text-anchor="start" x="426" y="-671.5" font-family="Helvetica,sans-Serif" font-size="10.00" fill="#000000">+ OutputObj()</text>
<text text-anchor="start" x="426" y="-660.5" font-family="Helvetica,sans-Serif" font-size="10.00" fill="#000000">+ setObject()</text>
<text text-anchor="start" x="426" y="-649.5" font-family="Helvetica,sans-Serif" font-size="10.00" fill="#000000">+ setObject()</text>
<text text-anchor="start" x="426" y="-638.5" font-family="Helvetica,sans-Serif" font-size="10.00" fill="#000000">+ setObject()</text>
<text text-anchor="start" x="426" y="-627.5" font-family="Helvetica,sans-Serif" font-size="10.00" fill="#000000">+ setObject()</text>
<text text-anchor="start" x="426" y="-616.5" font-family="Helvetica,sans-Serif" font-size="10.00" fill="#000000">+ setHash()</text>
<text text-anchor="start" x="426" y="-605.5" font-family="Helvetica,sans-Serif" font-size="10.00" fill="#000000">+ spec()</text>
<text text-anchor="start" x="426" y="-594.5" font-family="Helvetica,sans-Serif" font-size="10.00" fill="#000000">+ operator&#45;&gt;()</text>
<text text-anchor="start" x="426" y="-583.5" font-family="Helvetica,sans-Serif" font-size="10.00" fill="#000000">+ operator*()</text>
<text text-anchor="start" x="426" y="-572.5" font-family="Helvetica,sans-Serif" font-size="10.00" fill="#000000">+ ref()</text>
</a>
</g>
</g>
<!-- Node5&#45;&gt;Node20 -->
<g id="edge26" class="edge">
<title>Node5&#45;&gt;Node20</title>
<path fill="none" stroke="#404040" d="M953.3319,-995.8141C878.1221,-991.9648 536.84,-970.3703 474,-893 440.7443,-852.0546 446.5913,-793.7737 461.5361,-744.4392"/>
<polygon fill="none" stroke="#404040" points="461.618,-744.1843 459.6461,-737.248 465.2904,-732.76 467.2623,-739.6963 461.618,-744.1843"/>
<text text-anchor="middle" x="492" y="-834" font-family="Helvetica,sans-Serif" font-size="10.00" fill="#000000"> +label</text>
</g>
<!-- Node6&#45;&gt;Node4 -->
<g id="edge5" class="edge">
<title>Node6&#45;&gt;Node4</title>
<path fill="none" stroke="#ffa500" d="M1135.266,-792.5923C1121.0159,-759.1935 1101.6886,-713.8952 1088.5802,-683.1724"/>
<polygon fill="#ffa500" stroke="#ffa500" points="1132.1831,-794.2854 1139.3268,-802.1096 1138.6215,-791.5383 1132.1831,-794.2854"/>
<text text-anchor="middle" x="1141.5" y="-754" font-family="Helvetica,sans-Serif" font-size="10.00" fill="#000000"> &lt; int &gt;</text>
</g>
<!-- Node8 -->
<g id="node8" class="node">
<title>Node8</title>
<g id="a_node8"><a xlink:href="../../da/def/structo2_1_1framework_1_1ConfigurablePolicyConst.html" target="_top" xlink:title="{o2::framework::Configurable\lPolicyConst\&lt; T \&gt;\n||+ ConfigurablePolicyConst()\l}">
<polygon fill="none" stroke="#000000" points="1169.5,-615 1169.5,-683 1324.5,-683 1324.5,-615 1169.5,-615"/>
<text text-anchor="start" x="1177.5" y="-671" font-family="Helvetica,sans-Serif" font-size="10.00" fill="#000000">o2::framework::Configurable</text>
<text text-anchor="middle" x="1247" y="-660" font-family="Helvetica,sans-Serif" font-size="10.00" fill="#000000">PolicyConst&lt; T &gt;</text>
<polyline fill="none" stroke="#000000" points="1169.5,-653 1324.5,-653 "/>
<text text-anchor="middle" x="1247" y="-641" font-family="Helvetica,sans-Serif" font-size="10.00" fill="#000000"> </text>
<polyline fill="none" stroke="#000000" points="1169.5,-634 1324.5,-634 "/>
<text text-anchor="start" x="1177.5" y="-622" font-family="Helvetica,sans-Serif" font-size="10.00" fill="#000000">+ ConfigurablePolicyConst()</text>
</a>
</g>
</g>
<!-- Node6&#45;&gt;Node8 -->
<g id="edge9" class="edge">
<title>Node6&#45;&gt;Node8</title>
<path fill="none" stroke="#191970" d="M1175.5653,-793.0217C1192.151,-759.5826 1214.7466,-714.027 1230.0505,-683.1724"/>
<polygon fill="none" stroke="#191970" points="1172.3656,-791.5958 1171.0576,-802.1096 1178.6366,-794.7063 1172.3656,-791.5958"/>
</g>
<!-- Node7 -->
<g id="node7" class="node">
<title>Node7</title>
<polygon fill="none" stroke="#bfbfbf" points="1139.5,-968 1139.5,-1025 1168.5,-1025 1168.5,-968 1139.5,-968"/>
<text text-anchor="middle" x="1154" y="-1013" font-family="Helvetica,sans-Serif" font-size="10.00" fill="#000000">T</text>
<polyline fill="none" stroke="#bfbfbf" points="1139.5,-1006 1168.5,-1006 "/>
<text text-anchor="middle" x="1154" y="-994" font-family="Helvetica,sans-Serif" font-size="10.00" fill="#000000"> </text>
<polyline fill="none" stroke="#bfbfbf" points="1139.5,-987 1168.5,-987 "/>
<text text-anchor="middle" x="1154" y="-975" font-family="Helvetica,sans-Serif" font-size="10.00" fill="#000000"> </text>
</g>
<!-- Node7&#45;&gt;Node6 -->
<g id="edge7" class="edge">
<title>Node7&#45;&gt;Node6</title>
<path fill="none" stroke="#404040" d="M1154,-967.8952C1154,-944.2769 1154,-910.2944 1154,-882.806"/>
<polygon fill="none" stroke="#404040" points="1154.0001,-882.6937 1150,-876.6937 1154,-870.6937 1158,-876.6936 1154.0001,-882.6937"/>
<text text-anchor="middle" x="1173.5" y="-919.5" font-family="Helvetica,sans-Serif" font-size="10.00" fill="#000000"> +value</text>
</g>
<!-- Node8&#45;&gt;Node3 -->
<g id="edge8" class="edge">
<title>Node8&#45;&gt;Node3</title>
<path fill="none" stroke="#ffa500" d="M1227.0372,-605.4178C1207.8565,-563.5433 1179.2647,-501.1225 1161.6704,-462.7112"/>
<polygon fill="#ffa500" stroke="#ffa500" points="1223.8722,-606.9128 1231.2188,-614.5469 1230.2363,-603.9977 1223.8722,-606.9128"/>
<text text-anchor="middle" x="1219.5" y="-539" font-family="Helvetica,sans-Serif" font-size="10.00" fill="#000000"> &lt; int &gt;</text>
</g>
<!-- Node9 -->
<g id="node9" class="node">
<title>Node9</title>
<g id="a_node9"><a xlink:href="../../d8/d71/structo2_1_1framework_1_1Configurable.html" target="_top" xlink:title="{o2::framework::Configurable\l\&lt; T, IP \&gt;\n||+ Configurable()\l}">
<polygon fill="none" stroke="#000000" points="1241.5,-394.5 1241.5,-462.5 1396.5,-462.5 1396.5,-394.5 1241.5,-394.5"/>
<text text-anchor="start" x="1249.5" y="-450.5" font-family="Helvetica,sans-Serif" font-size="10.00" fill="#000000">o2::framework::Configurable</text>
<text text-anchor="middle" x="1319" y="-439.5" font-family="Helvetica,sans-Serif" font-size="10.00" fill="#000000">&lt; T, IP &gt;</text>
<polyline fill="none" stroke="#000000" points="1241.5,-432.5 1396.5,-432.5 "/>
<text text-anchor="middle" x="1319" y="-420.5" font-family="Helvetica,sans-Serif" font-size="10.00" fill="#000000"> </text>
<polyline fill="none" stroke="#000000" points="1241.5,-413.5 1396.5,-413.5 "/>
<text text-anchor="start" x="1249.5" y="-401.5" font-family="Helvetica,sans-Serif" font-size="10.00" fill="#000000">+ Configurable()</text>
</a>
</g>
</g>
<!-- Node9&#45;&gt;Node2 -->
<g id="edge10" class="edge">
<title>Node9&#45;&gt;Node2</title>
<path fill="none" stroke="#ffa500" d="M1311.0951,-384.0068C1304.7289,-348.174 1295.9105,-298.5389 1290.0853,-265.7515"/>
<polygon fill="#ffa500" stroke="#ffa500" points="1307.7081,-384.9517 1312.9035,-394.1852 1314.6002,-383.7271 1307.7081,-384.9517"/>
<text text-anchor="middle" x="1319.5" y="-313" font-family="Helvetica,sans-Serif" font-size="10.00" fill="#000000"> &lt; int &gt;</text>
</g>
<!-- Node10 -->
<g id="node10" class="node">
<title>Node10</title>
<polygon fill="none" stroke="#bfbfbf" points="1342.5,-620.5 1342.5,-677.5 1371.5,-677.5 1371.5,-620.5 1342.5,-620.5"/>
<text text-anchor="middle" x="1357" y="-665.5" font-family="Helvetica,sans-Serif" font-size="10.00" fill="#000000">IP</text>
<polyline fill="none" stroke="#bfbfbf" points="1342.5,-658.5 1371.5,-658.5 "/>
<text text-anchor="middle" x="1357" y="-646.5" font-family="Helvetica,sans-Serif" font-size="10.00" fill="#000000"> </text>
<polyline fill="none" stroke="#bfbfbf" points="1342.5,-639.5 1371.5,-639.5 "/>
<text text-anchor="middle" x="1357" y="-627.5" font-family="Helvetica,sans-Serif" font-size="10.00" fill="#000000"> </text>
</g>
<!-- Node10&#45;&gt;Node9 -->
<g id="edge11" class="edge">
<title>Node10&#45;&gt;Node9</title>
<path fill="none" stroke="#191970" d="M1350.2967,-610.1031C1343.1003,-568.3449 1331.7779,-502.6454 1324.9056,-462.7678"/>
<polygon fill="none" stroke="#191970" points="1346.8846,-610.9132 1352.0322,-620.1735 1353.7829,-609.7243 1346.8846,-610.9132"/>
</g>
<!-- Node11&#45;&gt;Node1 -->
<g id="edge12" class="edge">
<title>Node11&#45;&gt;Node1</title>
<path fill="none" stroke="#404040" d="M760.7709,-383.6281C879.793,-309.2143 1115.7521,-161.6903 1225.4237,-93.1225"/>
<polygon fill="none" stroke="#404040" points="1225.4597,-93.1 1228.4267,-86.5276 1235.6347,-86.7385 1232.6677,-93.3109 1225.4597,-93.1"/>
<text text-anchor="middle" x="1131.5" y="-284" font-family="Helvetica,sans-Serif" font-size="10.00" fill="#000000"> +hd0Prong0</text>
<text text-anchor="middle" x="1131.5" y="-273" font-family="Helvetica,sans-Serif" font-size="10.00" fill="#000000">+hd0Prong1</text>
<text text-anchor="middle" x="1131.5" y="-262" font-family="Helvetica,sans-Serif" font-size="10.00" fill="#000000">+hdeclengthxy</text>
<text text-anchor="middle" x="1131.5" y="-251" font-family="Helvetica,sans-Serif" font-size="10.00" fill="#000000">+hdeclength</text>
<text text-anchor="middle" x="1131.5" y="-240" font-family="Helvetica,sans-Serif" font-size="10.00" fill="#000000">+hCTS</text>
<text text-anchor="middle" x="1131.5" y="-229" font-family="Helvetica,sans-Serif" font-size="10.00" fill="#000000">+hEta</text>
<text text-anchor="middle" x="1131.5" y="-218" font-family="Helvetica,sans-Serif" font-size="10.00" fill="#000000">+hCPA</text>
<text text-anchor="middle" x="1131.5" y="-207" font-family="Helvetica,sans-Serif" font-size="10.00" fill="#000000">+hCt</text>
<text text-anchor="middle" x="1131.5" y="-196" font-family="Helvetica,sans-Serif" font-size="10.00" fill="#000000">+hd0d0</text>
<text text-anchor="middle" x="1131.5" y="-185" font-family="Helvetica,sans-Serif" font-size="10.00" fill="#000000">+hptprong0</text>
<text text-anchor="middle" x="1131.5" y="-174" font-family="Helvetica,sans-Serif" font-size="10.00" fill="#000000">...</text>
</g>
<!-- Node12 -->
<g id="node12" class="node">
<title>Node12</title>
<polygon fill="none" stroke="#bfbfbf" points="289.5,-808 289.5,-865 428.5,-865 428.5,-808 289.5,-808"/>
<text text-anchor="middle" x="359" y="-853" font-family="Helvetica,sans-Serif" font-size="10.00" fill="#000000">OutputObjHandlingPolicy</text>
<polyline fill="none" stroke="#bfbfbf" points="289.5,-846 428.5,-846 "/>
<text text-anchor="middle" x="359" y="-834" font-family="Helvetica,sans-Serif" font-size="10.00" fill="#000000"> </text>
<polyline fill="none" stroke="#bfbfbf" points="289.5,-827 428.5,-827 "/>
<text text-anchor="middle" x="359" y="-815" font-family="Helvetica,sans-Serif" font-size="10.00" fill="#000000"> </text>
</g>
<!-- Node12&#45;&gt;Node11 -->
<g id="edge13" class="edge">
<title>Node12&#45;&gt;Node11</title>
<path fill="none" stroke="#404040" d="M356.1938,-807.8708C350.7465,-746.2931 341.4678,-603.7046 368,-565 421.5466,-486.8876 529.4594,-453.2716 605.3348,-438.9375"/>
<polygon fill="none" stroke="#404040" points="605.4136,-438.9234 610.6105,-433.9243 617.224,-436.7987 612.027,-441.7979 605.4136,-438.9234"/>
<text text-anchor="middle" x="388.5" y="-646.5" font-family="Helvetica,sans-Serif" font-size="10.00" fill="#000000"> +policy</text>
</g>
<!-- Node12&#45;&gt;Node20 -->
<g id="edge24" class="edge">
<title>Node12&#45;&gt;Node20</title>
<path fill="none" stroke="#404040" d="M374.1346,-807.8376C383.6181,-790.7728 396.5596,-769.006 410,-751 412.1979,-748.0556 414.4676,-745.0998 416.793,-742.1444"/>
<polygon fill="none" stroke="#404040" points="416.857,-742.0649 417.5083,-734.8833 424.3881,-732.7223 423.7368,-739.9039 416.857,-742.0649"/>
<text text-anchor="middle" x="430.5" y="-754" font-family="Helvetica,sans-Serif" font-size="10.00" fill="#000000"> +policy</text>
</g>
<!-- Node13 -->
<g id="node13" class="node">
<title>Node13</title>
<g id="a_node13"><a xlink:href="../../d3/d87/classuint32__t.html" target="_top" xlink:title="{uint32_t\n||}">
<polygon fill="none" stroke="#000000" points="709,-808 709,-865 765,-865 765,-808 709,-808"/>
<text text-anchor="middle" x="737" y="-853" font-family="Helvetica,sans-Serif" font-size="10.00" fill="#000000">uint32_t</text>
<polyline fill="none" stroke="#000000" points="709,-846 765,-846 "/>
<text text-anchor="middle" x="737" y="-834" font-family="Helvetica,sans-Serif" font-size="10.00" fill="#000000"> </text>
<polyline fill="none" stroke="#000000" points="709,-827 765,-827 "/>
<text text-anchor="middle" x="737" y="-815" font-family="Helvetica,sans-Serif" font-size="10.00" fill="#000000"> </text>
</a>
</g>
</g>
<!-- Node13&#45;&gt;Node11 -->
<g id="edge14" class="edge">
<title>Node13&#45;&gt;Node11</title>
<path fill="none" stroke="#404040" d="M735.5285,-807.9872C734.6213,-791.358 733.3713,-769.983 732,-751 726.0219,-668.2437 727.623,-647.1538 716,-565 714.3757,-553.5189 712.4113,-541.5445 710.2914,-529.6652"/>
<polygon fill="none" stroke="#404040" points="710.2875,-529.6433 705.2724,-524.4617 708.1265,-517.8395 713.1416,-523.0211 710.2875,-529.6433"/>
<text text-anchor="middle" x="765" y="-646.5" font-family="Helvetica,sans-Serif" font-size="10.00" fill="#000000"> +mTaskHash</text>
</g>
<!-- Node13&#45;&gt;Node20 -->
<g id="edge25" class="edge">
<title>Node13&#45;&gt;Node20</title>
<path fill="none" stroke="#404040" d="M711.0195,-807.9869C702.126,-798.7292 691.9133,-788.6271 682,-780 655.3786,-756.8325 646.4277,-753.9116 618,-733 612.0868,-728.6502 606.0022,-724.1724 599.8665,-719.6555"/>
<polygon fill="none" stroke="#404040" points="599.8632,-719.6532 592.6599,-719.3168 590.1999,-712.5383 597.4032,-712.8746 599.8632,-719.6532"/>
<text text-anchor="middle" x="694" y="-754" font-family="Helvetica,sans-Serif" font-size="10.00" fill="#000000"> +mTaskHash</text>
</g>
<!-- Node14 -->
<g id="node14" class="node">
<title>Node14</title>
<polygon fill="none" stroke="#bfbfbf" points="635,-808 635,-865 673,-865 673,-808 635,-808"/>
<text text-anchor="middle" x="654" y="-853" font-family="Helvetica,sans-Serif" font-size="10.00" fill="#000000">bool</text>
<polyline fill="none" stroke="#bfbfbf" points="635,-846 673,-846 "/>
<text text-anchor="middle" x="654" y="-834" font-family="Helvetica,sans-Serif" font-size="10.00" fill="#000000"> </text>
<polyline fill="none" stroke="#bfbfbf" points="635,-827 673,-827 "/>
<text text-anchor="middle" x="654" y="-815" font-family="Helvetica,sans-Serif" font-size="10.00" fill="#000000"> </text>
</g>
<!-- Node14&#45;&gt;Node11 -->
<g id="edge16" class="edge">
<title>Node14&#45;&gt;Node11</title>
<path fill="none" stroke="#404040" d="M651.6521,-807.8178C648.1073,-758.128 642.9079,-652.9176 654,-565 655.4584,-553.4404 657.5855,-541.4576 660.082,-529.6092"/>
<polygon fill="none" stroke="#404040" points="660.0967,-529.5426 657.4882,-522.8198 662.6906,-517.8263 665.2991,-524.5491 660.0967,-529.5426"/>
<text text-anchor="middle" x="685" y="-646.5" font-family="Helvetica,sans-Serif" font-size="10.00" fill="#000000"> +isdangling</text>
</g>
<!-- Node14&#45;&gt;Node20 -->
<g id="edge28" class="edge">
<title>Node14&#45;&gt;Node20</title>
<path fill="none" stroke="#404040" d="M644.6778,-807.8416C640.1486,-797.8054 633.7459,-787.2442 625,-780 603.2311,-761.9687 585.8938,-779.8795 564,-762 557.1399,-756.3977 550.9611,-749.7991 545.4179,-742.6504"/>
<polygon fill="none" stroke="#404040" points="545.2189,-742.3714 538.4777,-739.8107 538.2487,-732.6032 544.9898,-735.1639 545.2189,-742.3714"/>
<text text-anchor="middle" x="595" y="-754" font-family="Helvetica,sans-Serif" font-size="10.00" fill="#000000"> +isdangling</text>
</g>
<!-- Node15&#45;&gt;Node11 -->
<g id="edge17" class="edge">
<title>Node15&#45;&gt;Node11</title>
<path fill="none" stroke="#404040" d="M210.3261,-780.4356C224.0988,-720.1434 253.9435,-624.8945 313,-565 391.7364,-485.1463 520.7488,-451.7216 605.2815,-437.9255"/>
<polygon fill="none" stroke="#404040" points="605.3059,-437.9218 610.6158,-433.0428 617.1618,-436.0678 611.8519,-440.9468 605.3059,-437.9218"/>
<text text-anchor="middle" x="330" y="-646.5" font-family="Helvetica,sans-Serif" font-size="10.00" fill="#000000"> +spec</text>
</g>
<!-- Node15&#45;&gt;Node20 -->
<g id="edge29" class="edge">
<title>Node15&#45;&gt;Node20</title>
<path fill="none" stroke="#404040" d="M271.4087,-784.7866C274.2775,-783.119 277.1474,-781.5165 280,-780 332.0408,-752.3353 353.163,-762.8191 404,-733 405.149,-732.326 406.2979,-731.6388 407.4462,-730.9392"/>
<polygon fill="none" stroke="#404040" points="407.6439,-730.8124 410.536,-724.2067 417.746,-724.3356 414.8539,-730.9414 407.6439,-730.8124"/>
<text text-anchor="middle" x="382" y="-754" font-family="Helvetica,sans-Serif" font-size="10.00" fill="#000000"> +spec</text>
</g>
<!-- Node16 -->
<g id="node16" class="node">
<title>Node16</title>
<polygon fill="none" stroke="#bfbfbf" points="0,-962.5 0,-1030.5 130,-1030.5 130,-962.5 0,-962.5"/>
<text text-anchor="start" x="8" y="-1018.5" font-family="Helvetica,sans-Serif" font-size="10.00" fill="#000000">vector&lt; o2::framework</text>
<text text-anchor="middle" x="65" y="-1007.5" font-family="Helvetica,sans-Serif" font-size="10.00" fill="#000000">::ConfigParamSpec &gt;</text>
<polyline fill="none" stroke="#bfbfbf" points="0,-1000.5 130,-1000.5 "/>
<text text-anchor="middle" x="65" y="-988.5" font-family="Helvetica,sans-Serif" font-size="10.00" fill="#000000"> </text>
<polyline fill="none" stroke="#bfbfbf" points="0,-981.5 130,-981.5 "/>
<text text-anchor="middle" x="65" y="-969.5" font-family="Helvetica,sans-Serif" font-size="10.00" fill="#000000"> </text>
</g>
<!-- Node16&#45;&gt;Node15 -->
<g id="edge18" class="edge">
<title>Node16&#45;&gt;Node15</title>
<path fill="none" stroke="#404040" d="M91.3416,-962.4138C103.7601,-946.5963 118.913,-927.6514 133,-911 135.5279,-908.0119 138.129,-904.9736 140.7709,-901.917"/>
<polygon fill="none" stroke="#404040" points="140.9002,-901.7686 141.8285,-894.6175 148.7866,-892.724 147.8583,-899.8751 140.9002,-901.7686"/>
<text text-anchor="middle" x="162.5" y="-919.5" font-family="Helvetica,sans-Serif" font-size="10.00" fill="#000000"> +metadata</text>
</g>
<!-- Node17 -->
<g id="node17" class="node">
<title>Node17</title>
<polygon fill="none" stroke="#bfbfbf" points="148,-968 148,-1025 236,-1025 236,-968 148,-968"/>
<text text-anchor="middle" x="192" y="-1013" font-family="Helvetica,sans-Serif" font-size="10.00" fill="#000000">enum Lifetime</text>
<polyline fill="none" stroke="#bfbfbf" points="148,-1006 236,-1006 "/>
<text text-anchor="middle" x="192" y="-994" font-family="Helvetica,sans-Serif" font-size="10.00" fill="#000000"> </text>
<polyline fill="none" stroke="#bfbfbf" points="148,-987 236,-987 "/>
<text text-anchor="middle" x="192" y="-975" font-family="Helvetica,sans-Serif" font-size="10.00" fill="#000000"> </text>
</g>
<!-- Node17&#45;&gt;Node15 -->
<g id="edge19" class="edge">
<title>Node17&#45;&gt;Node15</title>
<path fill="none" stroke="#404040" d="M193.4302,-967.8952C194.31,-950.3 195.4774,-926.9527 196.5838,-904.8235"/>
<polygon fill="none" stroke="#404040" points="196.5907,-904.6841 192.8954,-898.4918 197.19,-892.6991 200.8854,-898.8914 196.5907,-904.6841"/>
<text text-anchor="middle" x="222" y="-919.5" font-family="Helvetica,sans-Serif" font-size="10.00" fill="#000000"> +lifetime</text>
</g>
<!-- Node18 -->
<g id="node18" class="node">
<title>Node18</title>
<polygon fill="none" stroke="#bfbfbf" points="254,-951.5 254,-1041.5 418,-1041.5 418,-951.5 254,-951.5"/>
<text text-anchor="start" x="262" y="-1029.5" font-family="Helvetica,sans-Serif" font-size="10.00" fill="#000000">variant&lt; o2::framework</text>
<text text-anchor="start" x="262" y="-1018.5" font-family="Helvetica,sans-Serif" font-size="10.00" fill="#000000">::ConcreteDataMatcher,</text>
<text text-anchor="start" x="262" y="-1007.5" font-family="Helvetica,sans-Serif" font-size="10.00" fill="#000000"> o2::framework::data_matcher</text>
<text text-anchor="middle" x="336" y="-996.5" font-family="Helvetica,sans-Serif" font-size="10.00" fill="#000000">::DataDescriptorMatcher &gt;</text>
<polyline fill="none" stroke="#bfbfbf" points="254,-989.5 418,-989.5 "/>
<text text-anchor="middle" x="336" y="-977.5" font-family="Helvetica,sans-Serif" font-size="10.00" fill="#000000"> </text>
<polyline fill="none" stroke="#bfbfbf" points="254,-970.5 418,-970.5 "/>
<text text-anchor="middle" x="336" y="-958.5" font-family="Helvetica,sans-Serif" font-size="10.00" fill="#000000"> </text>
</g>
<!-- Node18&#45;&gt;Node15 -->
<g id="edge20" class="edge">
<title>Node18&#45;&gt;Node15</title>
<path fill="none" stroke="#404040" d="M297.3916,-951.0784C284.4593,-935.8639 269.7707,-918.5831 255.7934,-902.1393"/>
<polygon fill="none" stroke="#404040" points="255.4365,-901.7194 248.5028,-899.7384 247.6647,-892.5761 254.5984,-894.5572 255.4365,-901.7194"/>
<text text-anchor="middle" x="307" y="-919.5" font-family="Helvetica,sans-Serif" font-size="10.00" fill="#000000"> +matcher</text>
</g>
<!-- Node19 -->
<g id="node19" class="node">
<title>Node19</title>
<polygon fill="none" stroke="#bfbfbf" points="824,-620.5 824,-677.5 940,-677.5 940,-620.5 824,-620.5"/>
<text text-anchor="middle" x="882" y="-665.5" font-family="Helvetica,sans-Serif" font-size="10.00" fill="#000000">shared_ptr&lt; TH1F &gt;</text>
<polyline fill="none" stroke="#bfbfbf" points="824,-658.5 940,-658.5 "/>
<text text-anchor="middle" x="882" y="-646.5" font-family="Helvetica,sans-Serif" font-size="10.00" fill="#000000"> </text>
<polyline fill="none" stroke="#bfbfbf" points="824,-639.5 940,-639.5 "/>
<text text-anchor="middle" x="882" y="-627.5" font-family="Helvetica,sans-Serif" font-size="10.00" fill="#000000"> </text>
</g>
<!-- Node19&#45;&gt;Node11 -->
<g id="edge22" class="edge">
<title>Node19&#45;&gt;Node11</title>
<path fill="none" stroke="#404040" d="M857.4588,-620.1291C843.5928,-603.8772 825.9024,-583.2432 810,-565 796.6929,-549.7341 782.4835,-533.5773 768.6531,-517.9274"/>
<polygon fill="none" stroke="#404040" points="768.5141,-517.7703 761.5427,-515.9265 760.5634,-508.7821 767.5348,-510.626 768.5141,-517.7703"/>
<text text-anchor="middle" x="815" y="-539" font-family="Helvetica,sans-Serif" font-size="10.00" fill="#000000"> +object</text>
</g>
<!-- Node20&#45;&gt;Node11 -->
<g id="edge23" class="edge">
<title>Node20&#45;&gt;Node11</title>
<path fill="none" stroke="#ffa500" d="M559.1745,-556.7384C564.3044,-549.5611 569.608,-542.5617 575,-536 587.7805,-520.447 602.6979,-504.9032 617.4487,-490.6628"/>
<polygon fill="#ffa500" stroke="#ffa500" points="556.0991,-555.0289 553.2373,-565.2299 561.8359,-559.04 556.0991,-555.0289"/>
<text text-anchor="middle" x="600.5" y="-539" font-family="Helvetica,sans-Serif" font-size="10.00" fill="#000000"> &lt; TH1F &gt;</text>
</g>
<!-- Node21 -->
<g id="node21" class="node">
<title>Node21</title>
<polygon fill="none" stroke="#bfbfbf" points="519.5,-808 519.5,-865 616.5,-865 616.5,-808 519.5,-808"/>
<text text-anchor="middle" x="568" y="-853" font-family="Helvetica,sans-Serif" font-size="10.00" fill="#000000">shared_ptr&lt; T &gt;</text>
<polyline fill="none" stroke="#bfbfbf" points="519.5,-846 616.5,-846 "/>
<text text-anchor="middle" x="568" y="-834" font-family="Helvetica,sans-Serif" font-size="10.00" fill="#000000"> </text>
<polyline fill="none" stroke="#bfbfbf" points="519.5,-827 616.5,-827 "/>
<text text-anchor="middle" x="568" y="-815" font-family="Helvetica,sans-Serif" font-size="10.00" fill="#000000"> </text>
</g>
<!-- Node21&#45;&gt;Node20 -->
<g id="edge27" class="edge">
<title>Node21&#45;&gt;Node20</title>
<path fill="none" stroke="#404040" d="M531.7166,-807.6608C518.8212,-795.1615 505.8192,-779.3983 499,-762 496.8513,-756.5179 495.2746,-750.7699 494.1653,-744.8933"/>
<polygon fill="none" stroke="#404040" points="494.1236,-744.5856 489.3537,-739.1775 492.5112,-732.6945 497.2812,-738.1026 494.1236,-744.5856"/>
<text text-anchor="middle" x="520" y="-754" font-family="Helvetica,sans-Serif" font-size="10.00" fill="#000000"> +object</text>
</g>
<!-- Node22 -->
<g id="node22" class="node">
<title>Node22</title>
<g id="a_node22"><a xlink:href="../../d1/d9a/structo2_1_1framework_1_1expressions_1_1Filter.html" target="_top" xlink:title="A struct, containing the root of the expression tree. ">
<polygon fill="none" stroke="#000000" points="1402,-192 1402,-271 1554,-271 1554,-192 1402,-192"/>
<text text-anchor="start" x="1410" y="-259" font-family="Helvetica,sans-Serif" font-size="10.00" fill="#000000">o2::framework::expressions</text>
<text text-anchor="middle" x="1478" y="-248" font-family="Helvetica,sans-Serif" font-size="10.00" fill="#000000">::Filter</text>
<polyline fill="none" stroke="#000000" points="1402,-241 1554,-241 "/>
<text text-anchor="middle" x="1478" y="-229" font-family="Helvetica,sans-Serif" font-size="10.00" fill="#000000"> </text>
<polyline fill="none" stroke="#000000" points="1402,-222 1554,-222 "/>
<text text-anchor="start" x="1410" y="-210" font-family="Helvetica,sans-Serif" font-size="10.00" fill="#000000">+ Filter()</text>
<text text-anchor="start" x="1410" y="-199" font-family="Helvetica,sans-Serif" font-size="10.00" fill="#000000">+ Filter()</text>
</a>
</g>
</g>
<!-- Node22&#45;&gt;Node1 -->
<g id="edge30" class="edge">
<title>Node22&#45;&gt;Node1</title>
<path fill="none" stroke="#404040" d="M1452.8063,-191.5847C1439.2347,-171.9557 1421.3275,-148.7629 1402,-131 1384.3089,-114.7409 1362.6152,-99.8984 1342.6754,-87.815"/>
<polygon fill="none" stroke="#404040" points="1342.4559,-87.6852 1335.2552,-88.0729 1332.1278,-81.5752 1339.3285,-81.1875 1342.4559,-87.6852"/>
<text text-anchor="middle" x="1481.5" y="-139.5" font-family="Helvetica,sans-Serif" font-size="10.00" fill="#000000"> +filterSelectCandidates</text>
</g>
<!-- Node23 -->
<g id="node23" class="node">
<title>Node23</title>
<polygon fill="none" stroke="#bfbfbf" points="1414.5,-394.5 1414.5,-462.5 1565.5,-462.5 1565.5,-394.5 1414.5,-394.5"/>
<text text-anchor="start" x="1422.5" y="-450.5" font-family="Helvetica,sans-Serif" font-size="10.00" fill="#000000">unique_ptr&lt; o2::framework</text>
<text text-anchor="middle" x="1490" y="-439.5" font-family="Helvetica,sans-Serif" font-size="10.00" fill="#000000">::expressions::Node &gt;</text>
<polyline fill="none" stroke="#bfbfbf" points="1414.5,-432.5 1565.5,-432.5 "/>
<text text-anchor="middle" x="1490" y="-420.5" font-family="Helvetica,sans-Serif" font-size="10.00" fill="#000000"> </text>
<polyline fill="none" stroke="#bfbfbf" points="1414.5,-413.5 1565.5,-413.5 "/>
<text text-anchor="middle" x="1490" y="-401.5" font-family="Helvetica,sans-Serif" font-size="10.00" fill="#000000"> </text>
</g>
<!-- Node23&#45;&gt;Node22 -->
<g id="edge31" class="edge">
<title>Node23&#45;&gt;Node22</title>
<path fill="none" stroke="#404040" d="M1487.9098,-394.1852C1486.0498,-363.651 1483.302,-318.5417 1481.1714,-283.5633"/>
<polygon fill="none" stroke="#404040" points="1481.1468,-283.1585 1476.7894,-277.4128 1480.4171,-271.1807 1484.7746,-276.9264 1481.1468,-283.1585"/>
<text text-anchor="middle" x="1502" y="-313" font-family="Helvetica,sans-Serif" font-size="10.00" fill="#000000"> +node</text>
</g>
</g>
</svg>
