<?xml version="1.0" encoding="UTF-8" standalone="no"?>
<!DOCTYPE svg PUBLIC "-//W3C//DTD SVG 1.1//EN"
 "http://www.w3.org/Graphics/SVG/1.1/DTD/svg11.dtd">
<!-- Generated by graphviz version 2.40.1 (20161225.0304)
 -->
<!-- Title: /home/travis/build/AliceO2Group/AliceO2/GPU/GPUTracking/Base/GPUReconstructionConvert.cxx Pages: 1 -->
<svg width="1551pt" height="509pt"
 viewBox="0.00 0.00 1550.98 509.00" xmlns="http://www.w3.org/2000/svg" xmlns:xlink="http://www.w3.org/1999/xlink">
<g id="graph0" class="graph" transform="scale(1 1) rotate(0) translate(4 505)">
<title>/home/travis/build/AliceO2Group/AliceO2/GPU/GPUTracking/Base/GPUReconstructionConvert.cxx</title>
<!-- Node0 -->
<g id="node1" class="node">
<title>Node0</title>
<polygon fill="#bfbfbf" stroke="#000000" points="503.4826,-448.5 503.4826,-500.5 674.4826,-500.5 674.4826,-448.5 503.4826,-448.5"/>
<text text-anchor="start" x="511.4826" y="-488.5" font-family="Helvetica,sans-Serif" font-size="10.00" fill="#000000">/home/travis/build</text>
<text text-anchor="start" x="511.4826" y="-477.5" font-family="Helvetica,sans-Serif" font-size="10.00" fill="#000000">/AliceO2Group/AliceO2</text>
<text text-anchor="start" x="511.4826" y="-466.5" font-family="Helvetica,sans-Serif" font-size="10.00" fill="#000000">/GPU/GPUTracking/Base</text>
<text text-anchor="middle" x="588.9826" y="-455.5" font-family="Helvetica,sans-Serif" font-size="10.00" fill="#000000">/GPUReconstructionConvert.cxx</text>
</g>
<!-- Node1 -->
<g id="node2" class="node">
<title>Node1</title>
<g id="a_node2"><a xlink:href="../../d1/dfa/GPUReconstructionConvert_8h.html" target="_top" xlink:title="GPUReconstructionConvert.h">
<polygon fill="none" stroke="#000000" points="350.4826,-224.5 350.4826,-243.5 507.4826,-243.5 507.4826,-224.5 350.4826,-224.5"/>
<text text-anchor="middle" x="428.9826" y="-231.5" font-family="Helvetica,sans-Serif" font-size="10.00" fill="#000000">GPUReconstructionConvert.h</text>
</a>
</g>
</g>
<!-- Node0&#45;&gt;Node1 -->
<g id="edge1" class="edge">
<title>Node0&#45;&gt;Node1</title>
<path fill="none" stroke="#191970" d="M571.5552,-448.3045C538.8758,-399.1831 469.1607,-294.3927 441.0772,-252.1797"/>
<polygon fill="#191970" stroke="#191970" points="443.9068,-250.1141 435.4537,-243.7269 438.0788,-253.9914 443.9068,-250.1141"/>
</g>
<!-- Node13 -->
<g id="node14" class="node">
<title>Node13</title>
<g id="a_node14"><a xlink:href="../../d4/db1/TPCFastTransform_8h.html" target="_top" xlink:title="Definition of TPCFastTransform class. ">
<polygon fill="none" stroke="#000000" points="165.4826,-336.5 165.4826,-355.5 278.4826,-355.5 278.4826,-336.5 165.4826,-336.5"/>
<text text-anchor="middle" x="221.9826" y="-343.5" font-family="Helvetica,sans-Serif" font-size="10.00" fill="#000000">TPCFastTransform.h</text>
</a>
</g>
</g>
<!-- Node0&#45;&gt;Node13 -->
<g id="edge14" class="edge">
<title>Node0&#45;&gt;Node13</title>
<path fill="none" stroke="#191970" d="M503.2245,-465.059C446.1679,-456.477 370.658,-440.6076 308.9826,-412 282.3275,-399.6363 256.0597,-378.0525 239.4799,-362.944"/>
<polygon fill="#191970" stroke="#191970" points="241.4391,-359.9847 231.742,-355.7166 236.661,-365.1004 241.4391,-359.9847"/>
</g>
<!-- Node28 -->
<g id="node29" class="node">
<title>Node28</title>
<polygon fill="none" stroke="#bfbfbf" points="692.9826,-224.5 692.9826,-243.5 756.9826,-243.5 756.9826,-224.5 692.9826,-224.5"/>
<text text-anchor="middle" x="724.9826" y="-231.5" font-family="Helvetica,sans-Serif" font-size="10.00" fill="#000000">algorithm</text>
</g>
<!-- Node0&#45;&gt;Node28 -->
<g id="edge73" class="edge">
<title>Node0&#45;&gt;Node28</title>
<path fill="none" stroke="#191970" d="M583.8414,-448.4875C577.4148,-408.0661 571.3915,-329.6682 608.9826,-280 618.4091,-267.545 654.0209,-254.5263 683.3279,-245.5306"/>
<polygon fill="#191970" stroke="#191970" points="684.4025,-248.8625 692.9781,-242.6408 682.3944,-242.1567 684.4025,-248.8625"/>
</g>
<!-- Node30 -->
<g id="node31" class="node">
<title>Node30</title>
<g id="a_node31"><a xlink:href="../../d1/dde/GPUTPCClusterData_8h.html" target="_top" xlink:title="GPUTPCClusterData.h">
<polygon fill="none" stroke="#000000" points="1132.4826,-392.5 1132.4826,-411.5 1255.4826,-411.5 1255.4826,-392.5 1132.4826,-392.5"/>
<text text-anchor="middle" x="1193.9826" y="-399.5" font-family="Helvetica,sans-Serif" font-size="10.00" fill="#000000">GPUTPCClusterData.h</text>
</a>
</g>
</g>
<!-- Node0&#45;&gt;Node30 -->
<g id="edge44" class="edge">
<title>Node0&#45;&gt;Node30</title>
<path fill="none" stroke="#191970" d="M674.7013,-464.2279C794.506,-449.8712 1009.8845,-424.0613 1121.8943,-410.6387"/>
<polygon fill="#191970" stroke="#191970" points="1122.5638,-414.0836 1132.0763,-409.4185 1121.7309,-407.1333 1122.5638,-414.0836"/>
</g>
<!-- Node32 -->
<g id="node33" class="node">
<title>Node32</title>
<g id="a_node33"><a xlink:href="../../d5/d5c/GPUO2DataTypes_8h.html" target="_top" xlink:title="GPUO2DataTypes.h">
<polygon fill="none" stroke="#000000" points="525.4826,-224.5 525.4826,-243.5 636.4826,-243.5 636.4826,-224.5 525.4826,-224.5"/>
<text text-anchor="middle" x="580.9826" y="-231.5" font-family="Helvetica,sans-Serif" font-size="10.00" fill="#000000">GPUO2DataTypes.h</text>
</a>
</g>
</g>
<!-- Node0&#45;&gt;Node32 -->
<g id="edge47" class="edge">
<title>Node0&#45;&gt;Node32</title>
<path fill="none" stroke="#191970" d="M581.7538,-448.2596C579.0512,-437.1657 576.3153,-424.0469 574.9826,-412 568.5317,-353.6891 571.1807,-338.5433 574.9826,-280 575.5424,-271.3805 576.6862,-261.9095 577.8265,-253.8133"/>
<polygon fill="#191970" stroke="#191970" points="581.3011,-254.243 579.324,-243.8343 574.3786,-253.2041 581.3011,-254.243"/>
</g>
<!-- Node34 -->
<g id="node35" class="node">
<title>Node34</title>
<g id="a_node35"><a xlink:href="../../d4/dc5/GPUDataTypes_8h.html" target="_top" xlink:title="GPUDataTypes.h">
<polygon fill="none" stroke="#000000" points="481.9826,-112.5 481.9826,-131.5 579.9826,-131.5 579.9826,-112.5 481.9826,-112.5"/>
<text text-anchor="middle" x="530.9826" y="-119.5" font-family="Helvetica,sans-Serif" font-size="10.00" fill="#000000">GPUDataTypes.h</text>
</a>
</g>
</g>
<!-- Node0&#45;&gt;Node34 -->
<g id="edge54" class="edge">
<title>Node0&#45;&gt;Node34</title>
<path fill="none" stroke="#191970" d="M543.243,-448.4631C483.8696,-411.7023 383.0115,-338.407 341.9826,-244 338.4397,-235.8477 337.4878,-231.6687 341.9826,-224 354.8616,-202.0268 419.5554,-180.0711 441.9826,-168 462.2711,-157.0801 485.3935,-145.1443 502.9845,-136.168"/>
<polygon fill="#191970" stroke="#191970" points="504.8105,-139.1659 512.1351,-131.5108 501.6354,-132.9274 504.8105,-139.1659"/>
</g>
<!-- Node36 -->
<g id="node37" class="node">
<title>Node36</title>
<g id="a_node37"><a xlink:href="../../dd/d86/AliHLTTPCRawCluster_8h.html" target="_top" xlink:title="AliHLTTPCRawCluster.h">
<polygon fill="none" stroke="#000000" points="741.4826,-392.5 741.4826,-411.5 870.4826,-411.5 870.4826,-392.5 741.4826,-392.5"/>
<text text-anchor="middle" x="805.9826" y="-399.5" font-family="Helvetica,sans-Serif" font-size="10.00" fill="#000000">AliHLTTPCRawCluster.h</text>
</a>
</g>
</g>
<!-- Node0&#45;&gt;Node36 -->
<g id="edge55" class="edge">
<title>Node0&#45;&gt;Node36</title>
<path fill="none" stroke="#191970" d="M667.018,-448.4283C701.2147,-437.0031 739.8051,-424.11 767.6262,-414.8149"/>
<polygon fill="#191970" stroke="#191970" points="768.9853,-418.0511 777.3608,-411.5626 766.7671,-411.4119 768.9853,-418.0511"/>
</g>
<!-- Node37 -->
<g id="node38" class="node">
<title>Node37</title>
<g id="a_node38"><a xlink:href="../../df/d13/GPUParam_8h.html" target="_top" xlink:title="GPUParam.h">
<polygon fill="none" stroke="#000000" points="888.4826,-392.5 888.4826,-411.5 965.4826,-411.5 965.4826,-392.5 888.4826,-392.5"/>
<text text-anchor="middle" x="926.9826" y="-399.5" font-family="Helvetica,sans-Serif" font-size="10.00" fill="#000000">GPUParam.h</text>
</a>
</g>
</g>
<!-- Node0&#45;&gt;Node37 -->
<g id="edge56" class="edge">
<title>Node0&#45;&gt;Node37</title>
<path fill="none" stroke="#191970" d="M674.7112,-456.1115C739.2027,-442.2782 825.2629,-423.8186 878.3594,-412.4295"/>
<polygon fill="#191970" stroke="#191970" points="879.1565,-415.8382 888.2001,-410.3187 877.6884,-408.9939 879.1565,-415.8382"/>
</g>
<!-- Node39 -->
<g id="node40" class="node">
<title>Node39</title>
<polygon fill="none" stroke="#bfbfbf" points="851.4826,-280.5 851.4826,-299.5 898.4826,-299.5 898.4826,-280.5 851.4826,-280.5"/>
<text text-anchor="middle" x="874.9826" y="-287.5" font-family="Helvetica,sans-Serif" font-size="10.00" fill="#000000">vector</text>
</g>
<!-- Node0&#45;&gt;Node39 -->
<g id="edge74" class="edge">
<title>Node0&#45;&gt;Node39</title>
<path fill="none" stroke="#191970" d="M629.3528,-448.457C689.9628,-409.3572 802.5619,-336.719 851.3858,-305.2224"/>
<polygon fill="#191970" stroke="#191970" points="853.4942,-308.0274 860.0001,-299.6653 849.6995,-302.1452 853.4942,-308.0274"/>
</g>
<!-- Node2 -->
<g id="node3" class="node">
<title>Node2</title>
<polygon fill="none" stroke="#bfbfbf" points="66.9826,-56.5 66.9826,-75.5 124.9826,-75.5 124.9826,-56.5 66.9826,-56.5"/>
<text text-anchor="middle" x="95.9826" y="-63.5" font-family="Helvetica,sans-Serif" font-size="10.00" fill="#000000">memory</text>
</g>
<!-- Node1&#45;&gt;Node2 -->
<g id="edge2" class="edge">
<title>Node1&#45;&gt;Node2</title>
<path fill="none" stroke="#191970" d="M389.2611,-224.4462C358.5091,-216.428 315.1964,-203.7641 278.9826,-188 233.3399,-168.1314 223.3723,-159.6572 181.9826,-132 158.3962,-116.2392 132.7715,-96.1582 115.6851,-82.3079"/>
<polygon fill="#191970" stroke="#191970" points="117.5427,-79.3058 107.5843,-75.6888 113.1135,-84.7265 117.5427,-79.3058"/>
</g>
<!-- Node3 -->
<g id="node4" class="node">
<title>Node3</title>
<g id="a_node4"><a xlink:href="../../d2/d6d/GPUDef_8h.html" target="_top" xlink:title="GPUDef.h">
<polygon fill="none" stroke="#000000" points="1153.4826,-168.5 1153.4826,-187.5 1216.4826,-187.5 1216.4826,-168.5 1153.4826,-168.5"/>
<text text-anchor="middle" x="1184.9826" y="-175.5" font-family="Helvetica,sans-Serif" font-size="10.00" fill="#000000">GPUDef.h</text>
</a>
</g>
</g>
<!-- Node1&#45;&gt;Node3 -->
<g id="edge3" class="edge">
<title>Node1&#45;&gt;Node3</title>
<path fill="none" stroke="#191970" d="M507.6437,-224.8463C510.7965,-224.5475 513.9187,-224.2639 516.9826,-224 788.8901,-200.584 859.0072,-220.4698 1129.9826,-188 1134.2647,-187.4869 1138.7174,-186.8506 1143.1525,-186.1494"/>
<polygon fill="#191970" stroke="#191970" points="1144.1026,-189.5386 1153.3804,-184.4227 1142.9373,-182.6363 1144.1026,-189.5386"/>
</g>
<!-- Node4 -->
<g id="node5" class="node">
<title>Node4</title>
<g id="a_node5"><a xlink:href="../../df/d21/GPUCommonDef_8h.html" target="_top" xlink:title="GPUCommonDef.h">
<polygon fill="none" stroke="#000000" points="653.4826,-56.5 653.4826,-75.5 760.4826,-75.5 760.4826,-56.5 653.4826,-56.5"/>
<text text-anchor="middle" x="706.9826" y="-63.5" font-family="Helvetica,sans-Serif" font-size="10.00" fill="#000000">GPUCommonDef.h</text>
</a>
</g>
</g>
<!-- Node3&#45;&gt;Node4 -->
<g id="edge4" class="edge">
<title>Node3&#45;&gt;Node4</title>
<path fill="none" stroke="#191970" d="M1186.6274,-168.2638C1188.4695,-153.707 1189.4242,-126.4407 1173.9826,-112 1145.1458,-85.0324 892.2067,-72.5299 771.0926,-68.0488"/>
<polygon fill="#191970" stroke="#191970" points="770.9678,-64.5421 760.8475,-67.6773 770.7141,-71.5375 770.9678,-64.5421"/>
</g>
<!-- Node7 -->
<g id="node8" class="node">
<title>Node7</title>
<g id="a_node8"><a xlink:href="../../d2/d37/GPUDefConstantsAndSettings_8h.html" target="_top" xlink:title="GPUDefConstantsAndSettings.h">
<polygon fill="none" stroke="#000000" points="993.4826,-112.5 993.4826,-131.5 1164.4826,-131.5 1164.4826,-112.5 993.4826,-112.5"/>
<text text-anchor="middle" x="1078.9826" y="-119.5" font-family="Helvetica,sans-Serif" font-size="10.00" fill="#000000">GPUDefConstantsAndSettings.h</text>
</a>
</g>
</g>
<!-- Node3&#45;&gt;Node7 -->
<g id="edge7" class="edge">
<title>Node3&#45;&gt;Node7</title>
<path fill="none" stroke="#191970" d="M1166.5188,-168.2455C1149.8752,-159.4527 1125.1833,-146.4079 1106.2634,-136.4125"/>
<polygon fill="#191970" stroke="#191970" points="1107.7117,-133.2193 1097.2348,-131.6427 1104.4418,-139.4086 1107.7117,-133.2193"/>
</g>
<!-- Node8 -->
<g id="node9" class="node">
<title>Node8</title>
<g id="a_node9"><a xlink:href="../../dc/de9/GPUDefGPUParameters_8h.html" target="_top" xlink:title="GPUDefGPUParameters.h">
<polygon fill="none" stroke="#000000" points="1220.9826,-112.5 1220.9826,-131.5 1360.9826,-131.5 1360.9826,-112.5 1220.9826,-112.5"/>
<text text-anchor="middle" x="1290.9826" y="-119.5" font-family="Helvetica,sans-Serif" font-size="10.00" fill="#000000">GPUDefGPUParameters.h</text>
</a>
</g>
</g>
<!-- Node3&#45;&gt;Node8 -->
<g id="edge9" class="edge">
<title>Node3&#45;&gt;Node8</title>
<path fill="none" stroke="#191970" d="M1203.4464,-168.2455C1220.0901,-159.4527 1244.7819,-146.4079 1263.7018,-136.4125"/>
<polygon fill="#191970" stroke="#191970" points="1265.5234,-139.4086 1272.7304,-131.6427 1262.2535,-133.2193 1265.5234,-139.4086"/>
</g>
<!-- Node10 -->
<g id="node11" class="node">
<title>Node10</title>
<g id="a_node11"><a xlink:href="../../d3/d4c/GPUDefOpenCL12Templates_8h.html" target="_top" xlink:title="GPUDefOpenCL12Templates.h">
<polygon fill="none" stroke="#000000" points="1378.9826,-112.5 1378.9826,-131.5 1542.9826,-131.5 1542.9826,-112.5 1378.9826,-112.5"/>
<text text-anchor="middle" x="1460.9826" y="-119.5" font-family="Helvetica,sans-Serif" font-size="10.00" fill="#000000">GPUDefOpenCL12Templates.h</text>
</a>
</g>
</g>
<!-- Node3&#45;&gt;Node10 -->
<g id="edge11" class="edge">
<title>Node3&#45;&gt;Node10</title>
<path fill="none" stroke="#191970" d="M1216.6433,-171.5761C1262.3257,-162.3072 1347.4557,-145.0344 1404.1796,-133.5252"/>
<polygon fill="#191970" stroke="#191970" points="1404.9707,-136.9361 1414.0751,-131.5175 1403.5788,-130.0759 1404.9707,-136.9361"/>
</g>
<!-- Node11 -->
<g id="node12" class="node">
<title>Node11</title>
<g id="a_node12"><a xlink:href="../../d2/d45/GPUCommonRtypes_8h.html" target="_top" xlink:title="GPUCommonRtypes.h">
<polygon fill="none" stroke="#000000" points="507.4826,-56.5 507.4826,-75.5 632.4826,-75.5 632.4826,-56.5 507.4826,-56.5"/>
<text text-anchor="middle" x="569.9826" y="-63.5" font-family="Helvetica,sans-Serif" font-size="10.00" fill="#000000">GPUCommonRtypes.h</text>
</a>
</g>
</g>
<!-- Node3&#45;&gt;Node11 -->
<g id="edge12" class="edge">
<title>Node3&#45;&gt;Node11</title>
<path fill="none" stroke="#191970" d="M1153.2126,-172.2142C1056.103,-154.5292 761.9633,-100.9623 632.3995,-77.367"/>
<polygon fill="#191970" stroke="#191970" points="632.7078,-73.8656 622.2425,-75.5172 631.4536,-80.7524 632.7078,-73.8656"/>
</g>
<!-- Node5 -->
<g id="node6" class="node">
<title>Node5</title>
<g id="a_node6"><a xlink:href="../../d5/d93/GPUCommonDefSettings_8h.html" target="_top" xlink:title="GPUCommonDefSettings.h">
<polygon fill="none" stroke="#000000" points="782.9826,-.5 782.9826,-19.5 930.9826,-19.5 930.9826,-.5 782.9826,-.5"/>
<text text-anchor="middle" x="856.9826" y="-7.5" font-family="Helvetica,sans-Serif" font-size="10.00" fill="#000000">GPUCommonDefSettings.h</text>
</a>
</g>
</g>
<!-- Node4&#45;&gt;Node5 -->
<g id="edge5" class="edge">
<title>Node4&#45;&gt;Node5</title>
<path fill="none" stroke="#191970" d="M732.7685,-56.3733C757.3873,-47.1822 794.6726,-33.2624 821.9701,-23.0713"/>
<polygon fill="#191970" stroke="#191970" points="823.3889,-26.2777 831.5332,-19.5011 820.9406,-19.7198 823.3889,-26.2777"/>
</g>
<!-- Node6 -->
<g id="node7" class="node">
<title>Node6</title>
<g id="a_node7"><a xlink:href="../../da/d5a/GPUCommonDefAPI_8h.html" target="_top" xlink:title="GPUCommonDefAPI.h">
<polygon fill="none" stroke="#000000" points="640.9826,-.5 640.9826,-19.5 764.9826,-19.5 764.9826,-.5 640.9826,-.5"/>
<text text-anchor="middle" x="702.9826" y="-7.5" font-family="Helvetica,sans-Serif" font-size="10.00" fill="#000000">GPUCommonDefAPI.h</text>
</a>
</g>
</g>
<!-- Node4&#45;&gt;Node6 -->
<g id="edge6" class="edge">
<title>Node4&#45;&gt;Node6</title>
<path fill="none" stroke="#191970" d="M706.2859,-56.2455C705.7639,-48.9382 705.0322,-38.6944 704.3901,-29.7046"/>
<polygon fill="#191970" stroke="#191970" points="707.875,-29.3679 703.6714,-19.6427 700.8928,-29.8667 707.875,-29.3679"/>
</g>
<!-- Node7&#45;&gt;Node4 -->
<g id="edge8" class="edge">
<title>Node7&#45;&gt;Node4</title>
<path fill="none" stroke="#191970" d="M1015.4562,-112.4369C947.1619,-102.156 839.2121,-85.9055 770.8039,-75.6075"/>
<polygon fill="#191970" stroke="#191970" points="771.0017,-72.0979 760.5921,-74.0702 769.9597,-79.0199 771.0017,-72.0979"/>
</g>
<!-- Node9 -->
<g id="node10" class="node">
<title>Node9</title>
<g id="a_node10"><a xlink:href="../../d6/dff/GPUDefMacros_8h.html" target="_top" xlink:title="GPUDefMacros.h">
<polygon fill="none" stroke="#000000" points="1241.9826,-56.5 1241.9826,-75.5 1339.9826,-75.5 1339.9826,-56.5 1241.9826,-56.5"/>
<text text-anchor="middle" x="1290.9826" y="-63.5" font-family="Helvetica,sans-Serif" font-size="10.00" fill="#000000">GPUDefMacros.h</text>
</a>
</g>
</g>
<!-- Node8&#45;&gt;Node9 -->
<g id="edge10" class="edge">
<title>Node8&#45;&gt;Node9</title>
<path fill="none" stroke="#191970" d="M1290.9826,-112.2455C1290.9826,-104.9382 1290.9826,-94.6944 1290.9826,-85.7046"/>
<polygon fill="#191970" stroke="#191970" points="1294.4827,-85.6426 1290.9826,-75.6427 1287.4827,-85.6427 1294.4827,-85.6426"/>
</g>
<!-- Node12 -->
<g id="node13" class="node">
<title>Node12</title>
<polygon fill="none" stroke="#bfbfbf" points="540.4826,-.5 540.4826,-19.5 599.4826,-19.5 599.4826,-.5 540.4826,-.5"/>
<text text-anchor="middle" x="569.9826" y="-7.5" font-family="Helvetica,sans-Serif" font-size="10.00" fill="#000000">Rtypes.h</text>
</g>
<!-- Node11&#45;&gt;Node12 -->
<g id="edge13" class="edge">
<title>Node11&#45;&gt;Node12</title>
<path fill="none" stroke="#191970" d="M569.9826,-56.2455C569.9826,-48.9382 569.9826,-38.6944 569.9826,-29.7046"/>
<polygon fill="#191970" stroke="#191970" points="573.4827,-29.6426 569.9826,-19.6427 566.4827,-29.6427 573.4827,-29.6426"/>
</g>
<!-- Node14 -->
<g id="node15" class="node">
<title>Node14</title>
<g id="a_node15"><a xlink:href="../../db/dff/FlatObject_8h.html" target="_top" xlink:title="Definition of FlatObject class. ">
<polygon fill="none" stroke="#000000" points="190.4826,-112.5 190.4826,-131.5 265.4826,-131.5 265.4826,-112.5 190.4826,-112.5"/>
<text text-anchor="middle" x="227.9826" y="-119.5" font-family="Helvetica,sans-Serif" font-size="10.00" fill="#000000">FlatObject.h</text>
</a>
</g>
</g>
<!-- Node13&#45;&gt;Node14 -->
<g id="edge15" class="edge">
<title>Node13&#45;&gt;Node14</title>
<path fill="none" stroke="#191970" d="M175.144,-336.433C149.3364,-329.468 117.8028,-318.0247 93.9826,-300 39.2789,-258.6058 -29.1277,-221.3617 13.9826,-168 34.4412,-142.6765 123.3732,-130.645 179.9586,-125.4566"/>
<polygon fill="#191970" stroke="#191970" points="180.4678,-128.9255 190.1241,-124.5658 179.8567,-121.9522 180.4678,-128.9255"/>
</g>
<!-- Node21 -->
<g id="node22" class="node">
<title>Node21</title>
<g id="a_node22"><a xlink:href="../../d5/dde/TPCFastTransformGeo_8h.html" target="_top" xlink:title="Definition of TPCFastTransformGeo class. ">
<polygon fill="none" stroke="#000000" points="22.9826,-168.5 22.9826,-187.5 154.9826,-187.5 154.9826,-168.5 22.9826,-168.5"/>
<text text-anchor="middle" x="88.9826" y="-175.5" font-family="Helvetica,sans-Serif" font-size="10.00" fill="#000000">TPCFastTransformGeo.h</text>
</a>
</g>
</g>
<!-- Node13&#45;&gt;Node21 -->
<g id="edge25" class="edge">
<title>Node13&#45;&gt;Node21</title>
<path fill="none" stroke="#191970" d="M168.4563,-336.482C146.5205,-329.8678 122.8427,-318.7228 107.9826,-300 84.6498,-270.6022 84.3459,-224.3481 86.4845,-198.047"/>
<polygon fill="#191970" stroke="#191970" points="89.9967,-198.104 87.5277,-187.8009 83.0327,-197.3949 89.9967,-198.104"/>
</g>
<!-- Node22 -->
<g id="node23" class="node">
<title>Node22</title>
<g id="a_node23"><a xlink:href="../../d8/d93/TPCFastSpaceChargeCorrection_8h.html" target="_top" xlink:title="Definition of TPCFastSpaceChargeCorrection class. ">
<polygon fill="none" stroke="#000000" points="116.9826,-280.5 116.9826,-299.5 294.9826,-299.5 294.9826,-280.5 116.9826,-280.5"/>
<text text-anchor="middle" x="205.9826" y="-287.5" font-family="Helvetica,sans-Serif" font-size="10.00" fill="#000000">TPCFastSpaceChargeCorrection.h</text>
</a>
</g>
</g>
<!-- Node13&#45;&gt;Node22 -->
<g id="edge28" class="edge">
<title>Node13&#45;&gt;Node22</title>
<path fill="none" stroke="#191970" d="M219.1956,-336.2455C217.0849,-328.8579 214.1166,-318.4689 211.528,-309.4087"/>
<polygon fill="#191970" stroke="#191970" points="214.8503,-308.2964 208.7377,-299.6427 208.1196,-310.2195 214.8503,-308.2964"/>
</g>
<!-- Node26 -->
<g id="node27" class="node">
<title>Node26</title>
<g id="a_node27"><a xlink:href="../../d6/da2/GPUCommonMath_8h.html" target="_top" xlink:title="GPUCommonMath.h">
<polygon fill="none" stroke="#000000" points="617.4826,-280.5 617.4826,-299.5 732.4826,-299.5 732.4826,-280.5 617.4826,-280.5"/>
<text text-anchor="middle" x="674.9826" y="-287.5" font-family="Helvetica,sans-Serif" font-size="10.00" fill="#000000">GPUCommonMath.h</text>
</a>
</g>
</g>
<!-- Node13&#45;&gt;Node26 -->
<g id="edge39" class="edge">
<title>Node13&#45;&gt;Node26</title>
<path fill="none" stroke="#191970" d="M278.8967,-338.9643C362.4129,-328.64 517.9054,-309.4179 607.2076,-298.3784"/>
<polygon fill="#191970" stroke="#191970" points="607.7348,-301.8399 617.2298,-297.1394 606.8759,-294.8928 607.7348,-301.8399"/>
</g>
<!-- Node29 -->
<g id="node30" class="node">
<title>Node29</title>
<polygon fill="none" stroke="#bfbfbf" points="788.9826,-280.5 788.9826,-299.5 832.9826,-299.5 832.9826,-280.5 788.9826,-280.5"/>
<text text-anchor="middle" x="810.9826" y="-287.5" font-family="Helvetica,sans-Serif" font-size="10.00" fill="#000000">string</text>
</g>
<!-- Node13&#45;&gt;Node29 -->
<g id="edge43" class="edge">
<title>Node13&#45;&gt;Node29</title>
<path fill="none" stroke="#191970" d="M278.644,-342.0262C374.3082,-335.0845 573.8695,-319.6025 741.9826,-300 754.0412,-298.5939 767.2422,-296.7547 778.8395,-295.0375"/>
<polygon fill="#191970" stroke="#191970" points="779.5945,-298.4633 788.9605,-293.5107 778.5503,-291.5416 779.5945,-298.4633"/>
</g>
<!-- Node14&#45;&gt;Node2 -->
<g id="edge17" class="edge">
<title>Node14&#45;&gt;Node2</title>
<path fill="none" stroke="#191970" d="M205.291,-112.3733C183.9115,-103.3032 151.6769,-89.6279 127.7464,-79.4755"/>
<polygon fill="#191970" stroke="#191970" points="128.9509,-76.1846 118.3781,-75.5011 126.217,-82.6287 128.9509,-76.1846"/>
</g>
<!-- Node14&#45;&gt;Node4 -->
<g id="edge20" class="edge">
<title>Node14&#45;&gt;Node4</title>
<path fill="none" stroke="#191970" d="M265.6881,-114.3318C270.4882,-113.4786 275.343,-112.6754 279.9826,-112 439.9788,-88.7093 481.5795,-96.2998 641.9826,-76 642.4499,-75.9409 642.9189,-75.881 643.3896,-75.8206"/>
<polygon fill="#191970" stroke="#191970" points="644.0092,-79.2689 653.4536,-74.4675 643.0763,-72.3313 644.0092,-79.2689"/>
</g>
<!-- Node14&#45;&gt;Node11 -->
<g id="edge21" class="edge">
<title>Node14&#45;&gt;Node11</title>
<path fill="none" stroke="#191970" d="M265.7296,-114.5909C270.5228,-113.6943 275.3646,-112.8101 279.9826,-112 353.908,-99.0323 438.724,-85.7653 497.4512,-76.8326"/>
<polygon fill="#191970" stroke="#191970" points="498.0128,-80.2875 507.3745,-75.3267 496.9625,-73.3668 498.0128,-80.2875"/>
</g>
<!-- Node15 -->
<g id="node16" class="node">
<title>Node15</title>
<polygon fill="none" stroke="#bfbfbf" points="432.4826,-56.5 432.4826,-75.5 485.4826,-75.5 485.4826,-56.5 432.4826,-56.5"/>
<text text-anchor="middle" x="458.9826" y="-63.5" font-family="Helvetica,sans-Serif" font-size="10.00" fill="#000000">cstddef</text>
</g>
<!-- Node14&#45;&gt;Node15 -->
<g id="edge16" class="edge">
<title>Node14&#45;&gt;Node15</title>
<path fill="none" stroke="#191970" d="M265.6109,-112.878C308.9293,-102.3766 379.6024,-85.2437 422.4522,-74.8559"/>
<polygon fill="#191970" stroke="#191970" points="423.2991,-78.252 432.1929,-72.4945 421.6498,-71.4491 423.2991,-78.252"/>
</g>
<!-- Node16 -->
<g id="node17" class="node">
<title>Node16</title>
<polygon fill="none" stroke="#bfbfbf" points="354.9826,-56.5 354.9826,-75.5 404.9826,-75.5 404.9826,-56.5 354.9826,-56.5"/>
<text text-anchor="middle" x="379.9826" y="-63.5" font-family="Helvetica,sans-Serif" font-size="10.00" fill="#000000">cstring</text>
</g>
<!-- Node14&#45;&gt;Node16 -->
<g id="edge18" class="edge">
<title>Node14&#45;&gt;Node16</title>
<path fill="none" stroke="#191970" d="M254.1123,-112.3733C279.2862,-103.0987 317.5298,-89.0089 345.2551,-78.7943"/>
<polygon fill="#191970" stroke="#191970" points="346.7767,-81.9638 354.9501,-75.2225 344.3567,-75.3954 346.7767,-81.9638"/>
</g>
<!-- Node17 -->
<g id="node18" class="node">
<title>Node17</title>
<polygon fill="none" stroke="#bfbfbf" points="284.9826,-56.5 284.9826,-75.5 336.9826,-75.5 336.9826,-56.5 284.9826,-56.5"/>
<text text-anchor="middle" x="310.9826" y="-63.5" font-family="Helvetica,sans-Serif" font-size="10.00" fill="#000000">cassert</text>
</g>
<!-- Node14&#45;&gt;Node17 -->
<g id="edge19" class="edge">
<title>Node14&#45;&gt;Node17</title>
<path fill="none" stroke="#191970" d="M242.4401,-112.2455C255.0558,-103.7337 273.5771,-91.2375 288.1871,-81.3801"/>
<polygon fill="#191970" stroke="#191970" points="290.3587,-84.1371 296.6908,-75.6427 286.4436,-78.3343 290.3587,-84.1371"/>
</g>
<!-- Node18 -->
<g id="node19" class="node">
<title>Node18</title>
<g id="a_node19"><a xlink:href="../../df/d5b/GPUCommonLogger_8h.html" target="_top" xlink:title="GPUCommonLogger.h">
<polygon fill="none" stroke="#000000" points="143.4826,-56.5 143.4826,-75.5 266.4826,-75.5 266.4826,-56.5 143.4826,-56.5"/>
<text text-anchor="middle" x="204.9826" y="-63.5" font-family="Helvetica,sans-Serif" font-size="10.00" fill="#000000">GPUCommonLogger.h</text>
</a>
</g>
</g>
<!-- Node14&#45;&gt;Node18 -->
<g id="edge22" class="edge">
<title>Node14&#45;&gt;Node18</title>
<path fill="none" stroke="#191970" d="M223.9763,-112.2455C220.9091,-104.7776 216.5823,-94.2427 212.8329,-85.1137"/>
<polygon fill="#191970" stroke="#191970" points="215.9798,-83.5631 208.943,-75.6427 209.5047,-86.2226 215.9798,-83.5631"/>
</g>
<!-- Node19 -->
<g id="node20" class="node">
<title>Node19</title>
<polygon fill="none" stroke="#bfbfbf" points="210.9826,-.5 210.9826,-19.5 270.9826,-19.5 270.9826,-.5 210.9826,-.5"/>
<text text-anchor="middle" x="240.9826" y="-7.5" font-family="Helvetica,sans-Serif" font-size="10.00" fill="#000000">iostream</text>
</g>
<!-- Node18&#45;&gt;Node19 -->
<g id="edge23" class="edge">
<title>Node18&#45;&gt;Node19</title>
<path fill="none" stroke="#191970" d="M211.2533,-56.2455C216.209,-48.5367 223.2656,-37.5598 229.2602,-28.2348"/>
<polygon fill="#191970" stroke="#191970" points="232.3203,-29.9471 234.7838,-19.6427 226.432,-26.1618 232.3203,-29.9471"/>
</g>
<!-- Node20 -->
<g id="node21" class="node">
<title>Node20</title>
<polygon fill="none" stroke="#bfbfbf" points="146.9826,-.5 146.9826,-19.5 192.9826,-19.5 192.9826,-.5 146.9826,-.5"/>
<text text-anchor="middle" x="169.9826" y="-7.5" font-family="Helvetica,sans-Serif" font-size="10.00" fill="#000000">cstdio</text>
</g>
<!-- Node18&#45;&gt;Node20 -->
<g id="edge24" class="edge">
<title>Node18&#45;&gt;Node20</title>
<path fill="none" stroke="#191970" d="M198.8861,-56.2455C194.0681,-48.5367 187.2075,-37.5598 181.3794,-28.2348"/>
<polygon fill="#191970" stroke="#191970" points="184.2773,-26.2677 176.0093,-19.6427 178.3413,-29.9777 184.2773,-26.2677"/>
</g>
<!-- Node21&#45;&gt;Node2 -->
<g id="edge27" class="edge">
<title>Node21&#45;&gt;Node2</title>
<path fill="none" stroke="#191970" d="M89.5794,-168.4509C90.7211,-150.184 93.2354,-109.9553 94.7515,-85.6976"/>
<polygon fill="#191970" stroke="#191970" points="98.2566,-85.7238 95.3873,-75.5249 91.2702,-85.2871 98.2566,-85.7238"/>
</g>
<!-- Node21&#45;&gt;Node4 -->
<g id="edge26" class="edge">
<title>Node21&#45;&gt;Node4</title>
<path fill="none" stroke="#191970" d="M140.1392,-168.4418C177.7967,-160.6501 229.8951,-148.2772 273.9826,-132 292.6285,-125.1159 294.9165,-117.6166 313.9826,-112 454.6588,-70.5587 496.5857,-95.1543 641.9826,-76 642.4496,-75.9385 642.9183,-75.8764 643.3887,-75.8137"/>
<polygon fill="#191970" stroke="#191970" points="644.021,-79.2596 653.448,-74.4241 643.0631,-72.3255 644.021,-79.2596"/>
</g>
<!-- Node22&#45;&gt;Node4 -->
<g id="edge38" class="edge">
<title>Node22&#45;&gt;Node4</title>
<path fill="none" stroke="#191970" d="M295.0999,-284.5023C414.8595,-276.5326 616.2289,-260.8676 645.9826,-244 701.5922,-212.4745 707.8288,-125.1408 707.6806,-85.7373"/>
<polygon fill="#191970" stroke="#191970" points="711.1769,-85.5024 707.4914,-75.5693 704.1781,-85.6327 711.1769,-85.5024"/>
</g>
<!-- Node22&#45;&gt;Node14 -->
<g id="edge37" class="edge">
<title>Node22&#45;&gt;Node14</title>
<path fill="none" stroke="#191970" d="M207.2285,-280.4862C210.7062,-253.9293 220.5753,-178.5651 225.3419,-142.1655"/>
<polygon fill="#191970" stroke="#191970" points="228.8675,-142.1977 226.6956,-131.8279 221.9267,-141.2887 228.8675,-142.1977"/>
</g>
<!-- Node22&#45;&gt;Node21 -->
<g id="edge36" class="edge">
<title>Node22&#45;&gt;Node21</title>
<path fill="none" stroke="#191970" d="M196.0073,-280.4509C176.0613,-261.3574 131.0501,-218.2697 106.2259,-194.5063"/>
<polygon fill="#191970" stroke="#191970" points="108.5768,-191.9116 98.9327,-187.5249 103.7362,-196.9683 108.5768,-191.9116"/>
</g>
<!-- Node23 -->
<g id="node24" class="node">
<title>Node23</title>
<g id="a_node24"><a xlink:href="../../dd/d27/Spline2D_8h.html" target="_top" xlink:title="Definition of Spline2D class. ">
<polygon fill="none" stroke="#000000" points="224.4826,-224.5 224.4826,-243.5 293.4826,-243.5 293.4826,-224.5 224.4826,-224.5"/>
<text text-anchor="middle" x="258.9826" y="-231.5" font-family="Helvetica,sans-Serif" font-size="10.00" fill="#000000">Spline2D.h</text>
</a>
</g>
</g>
<!-- Node22&#45;&gt;Node23 -->
<g id="edge29" class="edge">
<title>Node22&#45;&gt;Node23</title>
<path fill="none" stroke="#191970" d="M215.2145,-280.2455C222.8144,-272.2155 233.7703,-260.6394 242.8194,-251.0781"/>
<polygon fill="#191970" stroke="#191970" points="245.5247,-253.3115 249.8565,-243.6427 240.4406,-248.4998 245.5247,-253.3115"/>
</g>
<!-- Node23&#45;&gt;Node4 -->
<g id="edge35" class="edge">
<title>Node23&#45;&gt;Node4</title>
<path fill="none" stroke="#191970" d="M285.668,-224.3426C307.7771,-215.9175 339.715,-202.7554 365.9826,-188 416.8389,-159.4324 419.3903,-135.0289 472.9826,-112 488.5089,-105.3283 579.4068,-88.4567 643.2238,-77.1089"/>
<polygon fill="#191970" stroke="#191970" points="643.9821,-80.5291 653.2178,-75.3375 642.7604,-73.6366 643.9821,-80.5291"/>
</g>
<!-- Node23&#45;&gt;Node14 -->
<g id="edge34" class="edge">
<title>Node23&#45;&gt;Node14</title>
<path fill="none" stroke="#191970" d="M256.3396,-224.4509C251.2607,-206.1013 240.0479,-165.5908 233.3438,-141.3693"/>
<polygon fill="#191970" stroke="#191970" points="236.6598,-140.2289 230.619,-131.5249 229.9134,-142.0962 236.6598,-140.2289"/>
</g>
<!-- Node24 -->
<g id="node25" class="node">
<title>Node24</title>
<g id="a_node25"><a xlink:href="../../de/da6/Spline1D_8h.html" target="_top" xlink:title="Definition of Spline1D class. ">
<polygon fill="none" stroke="#000000" points="287.4826,-168.5 287.4826,-187.5 356.4826,-187.5 356.4826,-168.5 287.4826,-168.5"/>
<text text-anchor="middle" x="321.9826" y="-175.5" font-family="Helvetica,sans-Serif" font-size="10.00" fill="#000000">Spline1D.h</text>
</a>
</g>
</g>
<!-- Node23&#45;&gt;Node24 -->
<g id="edge30" class="edge">
<title>Node23&#45;&gt;Node24</title>
<path fill="none" stroke="#191970" d="M269.9564,-224.2455C279.1708,-216.0549 292.5358,-204.1749 303.4123,-194.5069"/>
<polygon fill="#191970" stroke="#191970" points="305.9858,-196.9023 311.1346,-187.6427 301.3352,-191.6704 305.9858,-196.9023"/>
</g>
<!-- Node24&#45;&gt;Node4 -->
<g id="edge31" class="edge">
<title>Node24&#45;&gt;Node4</title>
<path fill="none" stroke="#191970" d="M337.7029,-168.3253C364.7206,-151.8491 419.0727,-119.4034 439.9826,-112 458.8275,-105.3277 570.3902,-87.2313 643.2165,-75.8262"/>
<polygon fill="#191970" stroke="#191970" points="643.8819,-79.2648 653.2219,-74.2632 642.8015,-72.3487 643.8819,-79.2648"/>
</g>
<!-- Node24&#45;&gt;Node14 -->
<g id="edge32" class="edge">
<title>Node24&#45;&gt;Node14</title>
<path fill="none" stroke="#191970" d="M305.6091,-168.2455C291.0518,-159.5731 269.5516,-146.7645 252.8674,-136.825"/>
<polygon fill="#191970" stroke="#191970" points="254.5509,-133.7539 244.1685,-131.6427 250.9682,-139.7676 254.5509,-133.7539"/>
</g>
<!-- Node25 -->
<g id="node26" class="node">
<title>Node25</title>
<polygon fill="none" stroke="#bfbfbf" points="322.4826,-112.5 322.4826,-131.5 387.4826,-131.5 387.4826,-112.5 322.4826,-112.5"/>
<text text-anchor="middle" x="354.9826" y="-119.5" font-family="Helvetica,sans-Serif" font-size="10.00" fill="#000000">functional</text>
</g>
<!-- Node24&#45;&gt;Node25 -->
<g id="edge33" class="edge">
<title>Node24&#45;&gt;Node25</title>
<path fill="none" stroke="#191970" d="M327.7308,-168.2455C332.2262,-160.617 338.6075,-149.7881 344.0651,-140.5267"/>
<polygon fill="#191970" stroke="#191970" points="347.2387,-142.035 349.3003,-131.6427 341.208,-138.4811 347.2387,-142.035"/>
</g>
<!-- Node26&#45;&gt;Node4 -->
<g id="edge40" class="edge">
<title>Node26&#45;&gt;Node4</title>
<path fill="none" stroke="#191970" d="M732.6305,-280.5251C772.2463,-272.7023 819.8077,-260.2538 831.9826,-244 876.3259,-184.8003 779.6315,-111.9845 731.7664,-81.0469"/>
<polygon fill="#191970" stroke="#191970" points="733.4917,-77.9967 723.1711,-75.6019 729.7457,-83.91 733.4917,-77.9967"/>
</g>
<!-- Node27 -->
<g id="node28" class="node">
<title>Node27</title>
<polygon fill="none" stroke="#bfbfbf" points="775.4826,-224.5 775.4826,-243.5 822.4826,-243.5 822.4826,-224.5 775.4826,-224.5"/>
<text text-anchor="middle" x="798.9826" y="-231.5" font-family="Helvetica,sans-Serif" font-size="10.00" fill="#000000">cmath</text>
</g>
<!-- Node26&#45;&gt;Node27 -->
<g id="edge41" class="edge">
<title>Node26&#45;&gt;Node27</title>
<path fill="none" stroke="#191970" d="M696.299,-280.3733C716.2042,-271.3838 746.1262,-257.8706 768.5426,-247.7471"/>
<polygon fill="#191970" stroke="#191970" points="770.2713,-250.8068 777.9444,-243.5011 767.3901,-244.4272 770.2713,-250.8068"/>
</g>
<!-- Node26&#45;&gt;Node28 -->
<g id="edge42" class="edge">
<title>Node26&#45;&gt;Node28</title>
<path fill="none" stroke="#191970" d="M683.6919,-280.2455C690.7899,-272.2958 700.991,-260.8706 709.4776,-251.3656"/>
<polygon fill="#191970" stroke="#191970" points="712.3237,-253.4331 716.3731,-243.6427 707.1021,-248.771 712.3237,-253.4331"/>
</g>
<!-- Node31 -->
<g id="node32" class="node">
<title>Node31</title>
<g id="a_node32"><a xlink:href="../../da/dab/GPUTPCDef_8h.html" target="_top" xlink:title="GPUTPCDef.h">
<polygon fill="none" stroke="#000000" points="1206.9826,-280.5 1206.9826,-299.5 1288.9826,-299.5 1288.9826,-280.5 1206.9826,-280.5"/>
<text text-anchor="middle" x="1247.9826" y="-287.5" font-family="Helvetica,sans-Serif" font-size="10.00" fill="#000000">GPUTPCDef.h</text>
</a>
</g>
</g>
<!-- Node30&#45;&gt;Node31 -->
<g id="edge45" class="edge">
<title>Node30&#45;&gt;Node31</title>
<path fill="none" stroke="#191970" d="M1243.1976,-392.4614C1279.6219,-384.2851 1324.7804,-371.4043 1335.9826,-356 1352.6547,-333.0741 1320.4075,-314.5452 1290.3652,-303.0219"/>
<polygon fill="#191970" stroke="#191970" points="1291.3476,-299.6551 1280.7535,-299.5301 1288.9574,-306.2343 1291.3476,-299.6551"/>
</g>
<!-- Node31&#45;&gt;Node3 -->
<g id="edge46" class="edge">
<title>Node31&#45;&gt;Node3</title>
<path fill="none" stroke="#191970" d="M1242.6113,-280.4509C1232.1501,-261.8533 1208.8843,-220.4919 1195.3306,-196.3964"/>
<polygon fill="#191970" stroke="#191970" points="1198.2935,-194.5247 1190.3404,-187.5249 1192.1925,-197.9566 1198.2935,-194.5247"/>
</g>
<!-- Node33 -->
<g id="node34" class="node">
<title>Node33</title>
<g id="a_node34"><a xlink:href="../../da/d28/GPUO2FakeClasses_8h.html" target="_top" xlink:title="GPUO2FakeClasses.h">
<polygon fill="none" stroke="#000000" points="450.9826,-168.5 450.9826,-187.5 570.9826,-187.5 570.9826,-168.5 450.9826,-168.5"/>
<text text-anchor="middle" x="510.9826" y="-175.5" font-family="Helvetica,sans-Serif" font-size="10.00" fill="#000000">GPUO2FakeClasses.h</text>
</a>
</g>
</g>
<!-- Node32&#45;&gt;Node33 -->
<g id="edge48" class="edge">
<title>Node32&#45;&gt;Node33</title>
<path fill="none" stroke="#191970" d="M568.7895,-224.2455C558.3505,-215.8943 543.1171,-203.7076 530.9086,-193.9408"/>
<polygon fill="#191970" stroke="#191970" points="533.0311,-191.1566 523.036,-187.6427 528.6582,-196.6227 533.0311,-191.1566"/>
</g>
<!-- Node35 -->
<g id="node36" class="node">
<title>Node35</title>
<g id="a_node36"><a xlink:href="../../d3/d1f/GPUdEdxInfo_8h.html" target="_top" xlink:title="GPUdEdxInfo.h">
<polygon fill="none" stroke="#000000" points="589.4826,-168.5 589.4826,-187.5 678.4826,-187.5 678.4826,-168.5 589.4826,-168.5"/>
<text text-anchor="middle" x="633.9826" y="-175.5" font-family="Helvetica,sans-Serif" font-size="10.00" fill="#000000">GPUdEdxInfo.h</text>
</a>
</g>
</g>
<!-- Node32&#45;&gt;Node35 -->
<g id="edge53" class="edge">
<title>Node32&#45;&gt;Node35</title>
<path fill="none" stroke="#191970" d="M590.2145,-224.2455C597.8144,-216.2155 608.7703,-204.6394 617.8194,-195.0781"/>
<polygon fill="#191970" stroke="#191970" points="620.5247,-197.3115 624.8565,-187.6427 615.4406,-192.4998 620.5247,-197.3115"/>
</g>
<!-- Node33&#45;&gt;Node4 -->
<g id="edge49" class="edge">
<title>Node33&#45;&gt;Node4</title>
<path fill="none" stroke="#191970" d="M527.6935,-168.4509C562.0474,-148.8201 640.7873,-103.8259 681.525,-80.5472"/>
<polygon fill="#191970" stroke="#191970" points="683.3681,-83.5252 690.3141,-75.5249 679.8951,-77.4475 683.3681,-83.5252"/>
</g>
<!-- Node33&#45;&gt;Node34 -->
<g id="edge50" class="edge">
<title>Node33&#45;&gt;Node34</title>
<path fill="none" stroke="#191970" d="M514.4663,-168.2455C517.1335,-160.7776 520.8959,-150.2427 524.1563,-141.1137"/>
<polygon fill="#191970" stroke="#191970" points="527.4715,-142.2373 527.5388,-131.6427 520.8793,-139.8829 527.4715,-142.2373"/>
</g>
<!-- Node34&#45;&gt;Node4 -->
<g id="edge51" class="edge">
<title>Node34&#45;&gt;Node4</title>
<path fill="none" stroke="#191970" d="M561.2381,-112.3733C590.6309,-103.021 635.4118,-88.7725 667.576,-78.5385"/>
<polygon fill="#191970" stroke="#191970" points="668.6539,-81.8685 677.1219,-75.5011 666.5314,-75.198 668.6539,-81.8685"/>
</g>
<!-- Node34&#45;&gt;Node15 -->
<g id="edge52" class="edge">
<title>Node34&#45;&gt;Node15</title>
<path fill="none" stroke="#191970" d="M518.4412,-112.2455C507.7039,-103.8943 492.0353,-91.7076 479.478,-81.9408"/>
<polygon fill="#191970" stroke="#191970" points="481.4227,-79.0194 471.3803,-75.6427 477.1251,-84.5449 481.4227,-79.0194"/>
</g>
<!-- Node37&#45;&gt;Node3 -->
<g id="edge59" class="edge">
<title>Node37&#45;&gt;Node3</title>
<path fill="none" stroke="#191970" d="M965.5293,-397.033C1014.5742,-389.9994 1095.6158,-375.7588 1117.9826,-356 1165.5267,-313.9997 1179.4448,-234.7855 1183.4304,-197.8705"/>
<polygon fill="#191970" stroke="#191970" points="1186.92,-198.1446 1184.3746,-187.8601 1179.9509,-197.4872 1186.92,-198.1446"/>
</g>
<!-- Node37&#45;&gt;Node4 -->
<g id="edge57" class="edge">
<title>Node37&#45;&gt;Node4</title>
<path fill="none" stroke="#191970" d="M900.0154,-392.4139C864.9646,-378.3147 805.2579,-348.3019 779.9826,-300 775.8614,-292.1242 775.3525,-287.5878 779.9826,-280 798.2056,-250.1366 831.7597,-273.8634 849.9826,-244 856.2179,-233.7817 859.991,-200.4675 846.9826,-168 829.0919,-123.3467 778.8983,-94.6721 743.7558,-79.4419"/>
<polygon fill="#191970" stroke="#191970" points="744.8595,-76.1103 734.2822,-75.5006 742.1706,-82.5733 744.8595,-76.1103"/>
</g>
<!-- Node37&#45;&gt;Node26 -->
<g id="edge58" class="edge">
<title>Node37&#45;&gt;Node26</title>
<path fill="none" stroke="#191970" d="M888.4725,-393.2132C839.4052,-381.855 759.4283,-362.7358 746.9826,-356 724.0817,-343.6057 702.7479,-322.3325 689.3413,-307.2923"/>
<polygon fill="#191970" stroke="#191970" points="691.9393,-304.9458 682.7492,-299.6738 686.6458,-309.5261 691.9393,-304.9458"/>
</g>
<!-- Node38 -->
<g id="node39" class="node">
<title>Node38</title>
<g id="a_node39"><a xlink:href="../../dd/dc6/GPUSettings_8h.html" target="_top" xlink:title="GPUSettings.h">
<polygon fill="none" stroke="#000000" points="883.9826,-336.5 883.9826,-355.5 969.9826,-355.5 969.9826,-336.5 883.9826,-336.5"/>
<text text-anchor="middle" x="926.9826" y="-343.5" font-family="Helvetica,sans-Serif" font-size="10.00" fill="#000000">GPUSettings.h</text>
</a>
</g>
</g>
<!-- Node37&#45;&gt;Node38 -->
<g id="edge60" class="edge">
<title>Node37&#45;&gt;Node38</title>
<path fill="none" stroke="#191970" d="M926.9826,-392.2455C926.9826,-384.9382 926.9826,-374.6944 926.9826,-365.7046"/>
<polygon fill="#191970" stroke="#191970" points="930.4827,-365.6426 926.9826,-355.6427 923.4827,-365.6427 930.4827,-365.6426"/>
</g>
<!-- Node43 -->
<g id="node44" class="node">
<title>Node43</title>
<g id="a_node44"><a xlink:href="../../d6/d1b/GPUTPCGeometry_8h.html" target="_top" xlink:title="GPUTPCGeometry.h">
<polygon fill="none" stroke="#000000" points="995.4826,-336.5 995.4826,-355.5 1108.4826,-355.5 1108.4826,-336.5 995.4826,-336.5"/>
<text text-anchor="middle" x="1051.9826" y="-343.5" font-family="Helvetica,sans-Serif" font-size="10.00" fill="#000000">GPUTPCGeometry.h</text>
</a>
</g>
</g>
<!-- Node37&#45;&gt;Node43 -->
<g id="edge69" class="edge">
<title>Node37&#45;&gt;Node43</title>
<path fill="none" stroke="#191970" d="M948.4709,-392.3733C968.6266,-383.3435 998.9707,-369.7494 1021.6007,-359.6111"/>
<polygon fill="#191970" stroke="#191970" points="1023.0797,-362.7838 1030.7748,-355.5011 1020.2177,-356.3955 1023.0797,-362.7838"/>
</g>
<!-- Node44 -->
<g id="node45" class="node">
<title>Node44</title>
<g id="a_node45"><a xlink:href="../../d9/d9c/GPUTPCGMPolynomialField_8h.html" target="_top" xlink:title="GPUTPCGMPolynomialField.h">
<polygon fill="none" stroke="#000000" points="1168.9826,-336.5 1168.9826,-355.5 1326.9826,-355.5 1326.9826,-336.5 1168.9826,-336.5"/>
<text text-anchor="middle" x="1247.9826" y="-343.5" font-family="Helvetica,sans-Serif" font-size="10.00" fill="#000000">GPUTPCGMPolynomialField.h</text>
</a>
</g>
</g>
<!-- Node37&#45;&gt;Node44 -->
<g id="edge71" class="edge">
<title>Node37&#45;&gt;Node44</title>
<path fill="none" stroke="#191970" d="M965.7027,-395.2451C1019.5979,-385.8428 1117.9367,-368.6871 1183.1303,-357.3138"/>
<polygon fill="#191970" stroke="#191970" points="1184.0474,-360.7068 1193.2971,-355.5402 1182.8443,-353.8109 1184.0474,-360.7068"/>
</g>
<!-- Node38&#45;&gt;Node4 -->
<g id="edge61" class="edge">
<title>Node38&#45;&gt;Node4</title>
<path fill="none" stroke="#191970" d="M926.9826,-336.4116C926.9826,-317.0538 926.9826,-271.9167 926.9826,-234 926.9826,-234 926.9826,-234 926.9826,-178 926.9826,-146.7875 926.3188,-132.7279 902.9826,-112 883.4854,-94.682 820.1246,-81.924 770.6599,-74.294"/>
<polygon fill="#191970" stroke="#191970" points="771.0623,-70.8152 760.6532,-72.7902 770.022,-77.7375 771.0623,-70.8152"/>
</g>
<!-- Node38&#45;&gt;Node29 -->
<g id="edge63" class="edge">
<title>Node38&#45;&gt;Node29</title>
<path fill="none" stroke="#191970" d="M907.0415,-336.3733C888.504,-327.4241 860.6798,-313.9917 839.7413,-303.8835"/>
<polygon fill="#191970" stroke="#191970" points="841.1907,-300.6967 830.6635,-299.5011 838.1474,-307.0006 841.1907,-300.6967"/>
</g>
<!-- Node38&#45;&gt;Node39 -->
<g id="edge62" class="edge">
<title>Node38&#45;&gt;Node39</title>
<path fill="none" stroke="#191970" d="M917.9249,-336.2455C910.4685,-328.2155 899.7192,-316.6394 890.8409,-307.0781"/>
<polygon fill="#191970" stroke="#191970" points="893.3059,-304.589 883.9365,-299.6427 888.1763,-309.3522 893.3059,-304.589"/>
</g>
<!-- Node40 -->
<g id="node41" class="node">
<title>Node40</title>
<g id="a_node41"><a xlink:href="../../da/d08/qconfig_8h.html" target="_top" xlink:title="utils/qconfig.h">
<polygon fill="none" stroke="#000000" points="955.4826,-280.5 955.4826,-299.5 1040.4826,-299.5 1040.4826,-280.5 955.4826,-280.5"/>
<text text-anchor="middle" x="997.9826" y="-287.5" font-family="Helvetica,sans-Serif" font-size="10.00" fill="#000000">utils/qconfig.h</text>
</a>
</g>
</g>
<!-- Node38&#45;&gt;Node40 -->
<g id="edge64" class="edge">
<title>Node38&#45;&gt;Node40</title>
<path fill="none" stroke="#191970" d="M939.3499,-336.2455C949.938,-327.8943 965.389,-315.7076 977.7719,-305.9408"/>
<polygon fill="#191970" stroke="#191970" points="980.0729,-308.5837 985.7571,-299.6427 975.7379,-303.0875 980.0729,-308.5837"/>
</g>
<!-- Node41 -->
<g id="node42" class="node">
<title>Node41</title>
<g id="a_node42"><a xlink:href="../../d8/de9/qconfigoptions_8h.html" target="_top" xlink:title="qconfigoptions.h">
<polygon fill="none" stroke="#000000" points="981.4826,-224.5 981.4826,-243.5 1078.4826,-243.5 1078.4826,-224.5 981.4826,-224.5"/>
<text text-anchor="middle" x="1029.9826" y="-231.5" font-family="Helvetica,sans-Serif" font-size="10.00" fill="#000000">qconfigoptions.h</text>
</a>
</g>
</g>
<!-- Node40&#45;&gt;Node41 -->
<g id="edge65" class="edge">
<title>Node40&#45;&gt;Node41</title>
<path fill="none" stroke="#191970" d="M1003.5566,-280.2455C1007.9157,-272.617 1014.1037,-261.7881 1019.3959,-252.5267"/>
<polygon fill="#191970" stroke="#191970" points="1022.5499,-254.0616 1024.4725,-243.6427 1016.4722,-250.5886 1022.5499,-254.0616"/>
</g>
<!-- Node41&#45;&gt;Node38 -->
<g id="edge66" class="edge">
<title>Node41&#45;&gt;Node38</title>
<path fill="none" stroke="#191970" d="M1037.8042,-243.7706C1047.7154,-257.4208 1062.1295,-282.4888 1049.9826,-300 1041.1099,-312.7911 1006.7018,-325.0255 976.5268,-333.6572"/>
<polygon fill="#191970" stroke="#191970" points="975.1977,-330.3938 966.4988,-336.442 977.0707,-337.1386 975.1977,-330.3938"/>
</g>
<!-- Node42 -->
<g id="node43" class="node">
<title>Node42</title>
<g id="a_node43"><a xlink:href="../../d4/d57/GPUSettingsList_8h.html" target="_top" xlink:title="GPUSettingsList.h">
<polygon fill="none" stroke="#000000" points="1016.9826,-168.5 1016.9826,-187.5 1120.9826,-187.5 1120.9826,-168.5 1016.9826,-168.5"/>
<text text-anchor="middle" x="1068.9826" y="-175.5" font-family="Helvetica,sans-Serif" font-size="10.00" fill="#000000">GPUSettingsList.h</text>
</a>
</g>
</g>
<!-- Node41&#45;&gt;Node42 -->
<g id="edge67" class="edge">
<title>Node41&#45;&gt;Node42</title>
<path fill="none" stroke="#191970" d="M1036.7759,-224.2455C1042.2005,-216.4564 1049.9487,-205.3308 1056.4859,-195.9439"/>
<polygon fill="#191970" stroke="#191970" points="1059.4243,-197.849 1062.2672,-187.6427 1053.6801,-193.8485 1059.4243,-197.849"/>
</g>
<!-- Node42&#45;&gt;Node7 -->
<g id="edge68" class="edge">
<title>Node42&#45;&gt;Node7</title>
<path fill="none" stroke="#191970" d="M1070.7245,-168.2455C1072.0294,-160.9382 1073.8586,-150.6944 1075.4639,-141.7046"/>
<polygon fill="#191970" stroke="#191970" points="1078.9482,-142.1022 1077.2607,-131.6427 1072.0572,-140.8717 1078.9482,-142.1022"/>
</g>
<!-- Node43&#45;&gt;Node4 -->
<g id="edge70" class="edge">
<title>Node43&#45;&gt;Node4</title>
<path fill="none" stroke="#191970" d="M1059.8396,-336.3647C1076.5018,-314.6894 1111.964,-261.0892 1087.9826,-224 1066.8123,-191.2583 1040.5505,-209.4366 1007.9826,-188 966.2034,-160.5004 969.4699,-134.8606 924.9826,-112 876.6852,-87.1815 815.8028,-75.7498 770.6613,-70.4862"/>
<polygon fill="#191970" stroke="#191970" points="771.0233,-67.005 760.7015,-69.3947 770.2606,-73.9634 771.0233,-67.005"/>
</g>
<!-- Node44&#45;&gt;Node31 -->
<g id="edge72" class="edge">
<title>Node44&#45;&gt;Node31</title>
<path fill="none" stroke="#191970" d="M1247.9826,-336.2455C1247.9826,-328.9382 1247.9826,-318.6944 1247.9826,-309.7046"/>
<polygon fill="#191970" stroke="#191970" points="1251.4827,-309.6426 1247.9826,-299.6427 1244.4827,-309.6427 1251.4827,-309.6426"/>
</g>
</g>
</svg>
