<?xml version="1.0" encoding="UTF-8" standalone="no"?>
<!DOCTYPE svg PUBLIC "-//W3C//DTD SVG 1.1//EN"
 "http://www.w3.org/Graphics/SVG/1.1/DTD/svg11.dtd">
<!-- Generated by graphviz version 2.40.1 (20161225.0304)
 -->
<!-- Title: EventSelection Pages: 1 -->
<svg width="1809pt" height="1039pt"
 viewBox="0.00 0.00 1809.00 1039.00" xmlns="http://www.w3.org/2000/svg" xmlns:xlink="http://www.w3.org/1999/xlink">
<g id="graph0" class="graph" transform="scale(1 1) rotate(0) translate(4 1035)">
<title>EventSelection</title>
<!-- Node1 -->
<g id="node1" class="node">
<title>Node1</title>
<polygon fill="#bfbfbf" stroke="#000000" points="1064.5,-.5 1064.5,-79.5 1153.5,-79.5 1153.5,-.5 1064.5,-.5"/>
<text text-anchor="middle" x="1109" y="-67.5" font-family="Helvetica,sans-Serif" font-size="10.00" fill="#000000">EventSelection</text>
<polyline fill="none" stroke="#000000" points="1064.5,-60.5 1153.5,-60.5 "/>
<text text-anchor="middle" x="1109" y="-48.5" font-family="Helvetica,sans-Serif" font-size="10.00" fill="#000000"> </text>
<polyline fill="none" stroke="#000000" points="1064.5,-41.5 1153.5,-41.5 "/>
<text text-anchor="start" x="1072.5" y="-29.5" font-family="Helvetica,sans-Serif" font-size="10.00" fill="#000000">+ init()</text>
<text text-anchor="start" x="1072.5" y="-18.5" font-family="Helvetica,sans-Serif" font-size="10.00" fill="#000000">+ DefineCuts()</text>
<text text-anchor="start" x="1072.5" y="-7.5" font-family="Helvetica,sans-Serif" font-size="10.00" fill="#000000">+ process()</text>
</g>
<!-- Node2 -->
<g id="node2" class="node">
<title>Node2</title>
<g id="a_node2"><a xlink:href="../../d4/dc3/classfloat.html" target="_top" xlink:title="{float\n||}">
<polygon fill="none" stroke="#000000" points="668,-188 668,-245 706,-245 706,-188 668,-188"/>
<text text-anchor="middle" x="687" y="-233" font-family="Helvetica,sans-Serif" font-size="10.00" fill="#000000">float</text>
<polyline fill="none" stroke="#000000" points="668,-226 706,-226 "/>
<text text-anchor="middle" x="687" y="-214" font-family="Helvetica,sans-Serif" font-size="10.00" fill="#000000"> </text>
<polyline fill="none" stroke="#000000" points="668,-207 706,-207 "/>
<text text-anchor="middle" x="687" y="-195" font-family="Helvetica,sans-Serif" font-size="10.00" fill="#000000"> </text>
</a>
</g>
</g>
<!-- Node2&#45;&gt;Node1 -->
<g id="edge1" class="edge">
<title>Node2&#45;&gt;Node1</title>
<path fill="none" stroke="#404040" d="M688.6348,-187.94C691.3096,-168.095 698.0858,-142.5206 715,-127 763.7665,-82.2514 955.2172,-56.1618 1052.1354,-45.5669"/>
<polygon fill="none" stroke="#404040" points="1052.3833,-45.5404 1057.9233,-40.9243 1064.3151,-44.2627 1058.7751,-48.8789 1052.3833,-45.5404"/>
<text text-anchor="middle" x="789" y="-101" font-family="Helvetica,sans-Serif" font-size="10.00" fill="#000000"> +fValues</text>
</g>
<!-- Node3 -->
<g id="node3" class="node">
<title>Node3</title>
<g id="a_node3"><a xlink:href="../../d4/d79/structo2_1_1framework_1_1OutputObj.html" target="_top" xlink:title="{o2::framework::OutputObj\l\&lt; THashList \&gt;\n||+ spec()\l+ OutputObj()\l+ OutputObj()\l+ setObject()\l+ setObject()\l+ setObject()\l+ setObject()\l+ setHash()\l+ operator&#45;\&gt;()\l+ operator*()\l+ ref()\l}">
<polygon fill="none" stroke="#000000" points="724.5,-127.5 724.5,-305.5 867.5,-305.5 867.5,-127.5 724.5,-127.5"/>
<text text-anchor="start" x="732.5" y="-293.5" font-family="Helvetica,sans-Serif" font-size="10.00" fill="#000000">o2::framework::OutputObj</text>
<text text-anchor="middle" x="796" y="-282.5" font-family="Helvetica,sans-Serif" font-size="10.00" fill="#000000">&lt; THashList &gt;</text>
<polyline fill="none" stroke="#000000" points="724.5,-275.5 867.5,-275.5 "/>
<text text-anchor="middle" x="796" y="-263.5" font-family="Helvetica,sans-Serif" font-size="10.00" fill="#000000"> </text>
<polyline fill="none" stroke="#000000" points="724.5,-256.5 867.5,-256.5 "/>
<text text-anchor="start" x="732.5" y="-244.5" font-family="Helvetica,sans-Serif" font-size="10.00" fill="#000000">+ spec()</text>
<text text-anchor="start" x="732.5" y="-233.5" font-family="Helvetica,sans-Serif" font-size="10.00" fill="#000000">+ OutputObj()</text>
<text text-anchor="start" x="732.5" y="-222.5" font-family="Helvetica,sans-Serif" font-size="10.00" fill="#000000">+ OutputObj()</text>
<text text-anchor="start" x="732.5" y="-211.5" font-family="Helvetica,sans-Serif" font-size="10.00" fill="#000000">+ setObject()</text>
<text text-anchor="start" x="732.5" y="-200.5" font-family="Helvetica,sans-Serif" font-size="10.00" fill="#000000">+ setObject()</text>
<text text-anchor="start" x="732.5" y="-189.5" font-family="Helvetica,sans-Serif" font-size="10.00" fill="#000000">+ setObject()</text>
<text text-anchor="start" x="732.5" y="-178.5" font-family="Helvetica,sans-Serif" font-size="10.00" fill="#000000">+ setObject()</text>
<text text-anchor="start" x="732.5" y="-167.5" font-family="Helvetica,sans-Serif" font-size="10.00" fill="#000000">+ setHash()</text>
<text text-anchor="start" x="732.5" y="-156.5" font-family="Helvetica,sans-Serif" font-size="10.00" fill="#000000">+ operator&#45;&gt;()</text>
<text text-anchor="start" x="732.5" y="-145.5" font-family="Helvetica,sans-Serif" font-size="10.00" fill="#000000">+ operator*()</text>
<text text-anchor="start" x="732.5" y="-134.5" font-family="Helvetica,sans-Serif" font-size="10.00" fill="#000000">+ ref()</text>
</a>
</g>
</g>
<!-- Node3&#45;&gt;Node1 -->
<g id="edge2" class="edge">
<title>Node3&#45;&gt;Node1</title>
<path fill="none" stroke="#404040" d="M867.8085,-176.0073C924.2559,-144.1768 1001.7387,-100.4844 1053.4956,-71.2988"/>
<polygon fill="none" stroke="#404040" points="1053.68,-71.1949 1056.9415,-64.7635 1064.1326,-65.3006 1060.871,-71.732 1053.68,-71.1949"/>
<text text-anchor="middle" x="1032" y="-101" font-family="Helvetica,sans-Serif" font-size="10.00" fill="#000000"> +fOutputList</text>
</g>
<!-- Node4 -->
<g id="node4" class="node">
<title>Node4</title>
<polygon fill="none" stroke="#bfbfbf" points="515.5,-808 515.5,-865 654.5,-865 654.5,-808 515.5,-808"/>
<text text-anchor="middle" x="585" y="-853" font-family="Helvetica,sans-Serif" font-size="10.00" fill="#000000">OutputObjHandlingPolicy</text>
<polyline fill="none" stroke="#bfbfbf" points="515.5,-846 654.5,-846 "/>
<text text-anchor="middle" x="585" y="-834" font-family="Helvetica,sans-Serif" font-size="10.00" fill="#000000"> </text>
<polyline fill="none" stroke="#bfbfbf" points="515.5,-827 654.5,-827 "/>
<text text-anchor="middle" x="585" y="-815" font-family="Helvetica,sans-Serif" font-size="10.00" fill="#000000"> </text>
</g>
<!-- Node4&#45;&gt;Node3 -->
<g id="edge3" class="edge">
<title>Node4&#45;&gt;Node3</title>
<path fill="none" stroke="#404040" d="M576.8089,-807.6939C553.9058,-720.2945 499.3765,-456.0642 635,-324 658.6626,-300.9584 679.2886,-319.9829 713.3211,-305.6067"/>
<polygon fill="none" stroke="#404040" points="713.6424,-305.4428 717.1691,-299.1529 724.3316,-299.9892 720.8048,-306.2791 713.6424,-305.4428"/>
<text text-anchor="middle" x="580.5" y="-646.5" font-family="Helvetica,sans-Serif" font-size="10.00" fill="#000000"> +policy</text>
</g>
<!-- Node13 -->
<g id="node13" class="node">
<title>Node13</title>
<g id="a_node13"><a xlink:href="../../d4/d79/structo2_1_1framework_1_1OutputObj.html" target="_top" xlink:title="{o2::framework::OutputObj\&lt; T \&gt;\n||+ OutputObj()\l+ OutputObj()\l+ setObject()\l+ setObject()\l+ setObject()\l+ setObject()\l+ setHash()\l+ spec()\l+ operator&#45;\&gt;()\l+ operator*()\l+ ref()\l}">
<polygon fill="none" stroke="#000000" points="710,-565.5 710,-732.5 882,-732.5 882,-565.5 710,-565.5"/>
<text text-anchor="middle" x="796" y="-720.5" font-family="Helvetica,sans-Serif" font-size="10.00" fill="#000000">o2::framework::OutputObj&lt; T &gt;</text>
<polyline fill="none" stroke="#000000" points="710,-713.5 882,-713.5 "/>
<text text-anchor="middle" x="796" y="-701.5" font-family="Helvetica,sans-Serif" font-size="10.00" fill="#000000"> </text>
<polyline fill="none" stroke="#000000" points="710,-694.5 882,-694.5 "/>
<text text-anchor="start" x="718" y="-682.5" font-family="Helvetica,sans-Serif" font-size="10.00" fill="#000000">+ OutputObj()</text>
<text text-anchor="start" x="718" y="-671.5" font-family="Helvetica,sans-Serif" font-size="10.00" fill="#000000">+ OutputObj()</text>
<text text-anchor="start" x="718" y="-660.5" font-family="Helvetica,sans-Serif" font-size="10.00" fill="#000000">+ setObject()</text>
<text text-anchor="start" x="718" y="-649.5" font-family="Helvetica,sans-Serif" font-size="10.00" fill="#000000">+ setObject()</text>
<text text-anchor="start" x="718" y="-638.5" font-family="Helvetica,sans-Serif" font-size="10.00" fill="#000000">+ setObject()</text>
<text text-anchor="start" x="718" y="-627.5" font-family="Helvetica,sans-Serif" font-size="10.00" fill="#000000">+ setObject()</text>
<text text-anchor="start" x="718" y="-616.5" font-family="Helvetica,sans-Serif" font-size="10.00" fill="#000000">+ setHash()</text>
<text text-anchor="start" x="718" y="-605.5" font-family="Helvetica,sans-Serif" font-size="10.00" fill="#000000">+ spec()</text>
<text text-anchor="start" x="718" y="-594.5" font-family="Helvetica,sans-Serif" font-size="10.00" fill="#000000">+ operator&#45;&gt;()</text>
<text text-anchor="start" x="718" y="-583.5" font-family="Helvetica,sans-Serif" font-size="10.00" fill="#000000">+ operator*()</text>
<text text-anchor="start" x="718" y="-572.5" font-family="Helvetica,sans-Serif" font-size="10.00" fill="#000000">+ ref()</text>
</a>
</g>
</g>
<!-- Node4&#45;&gt;Node13 -->
<g id="edge14" class="edge">
<title>Node4&#45;&gt;Node13</title>
<path fill="none" stroke="#404040" d="M614.9836,-807.6183C632.5614,-790.8661 655.3114,-769.4911 676,-751 683.9348,-743.908 692.2307,-736.6147 700.5944,-729.3453"/>
<polygon fill="none" stroke="#404040" points="700.6103,-729.3316 702.5284,-722.3803 709.6828,-721.4772 707.7646,-728.4286 700.6103,-729.3316"/>
<text text-anchor="middle" x="696.5" y="-754" font-family="Helvetica,sans-Serif" font-size="10.00" fill="#000000"> +policy</text>
</g>
<!-- Node5 -->
<g id="node5" class="node">
<title>Node5</title>
<polygon fill="none" stroke="#bfbfbf" points="900.5,-620.5 900.5,-677.5 1039.5,-677.5 1039.5,-620.5 900.5,-620.5"/>
<text text-anchor="middle" x="970" y="-665.5" font-family="Helvetica,sans-Serif" font-size="10.00" fill="#000000">shared_ptr&lt; THashList &gt;</text>
<polyline fill="none" stroke="#bfbfbf" points="900.5,-658.5 1039.5,-658.5 "/>
<text text-anchor="middle" x="970" y="-646.5" font-family="Helvetica,sans-Serif" font-size="10.00" fill="#000000"> </text>
<polyline fill="none" stroke="#bfbfbf" points="900.5,-639.5 1039.5,-639.5 "/>
<text text-anchor="middle" x="970" y="-627.5" font-family="Helvetica,sans-Serif" font-size="10.00" fill="#000000"> </text>
</g>
<!-- Node5&#45;&gt;Node3 -->
<g id="edge4" class="edge">
<title>Node5&#45;&gt;Node3</title>
<path fill="none" stroke="#404040" d="M964.9609,-620.4151C953.9977,-562.3134 924.8002,-427.1935 874,-324 872.7326,-321.4254 871.404,-318.847 870.0233,-316.2713"/>
<polygon fill="none" stroke="#404040" points="869.966,-316.1696 863.536,-312.9053 864.076,-305.7144 870.506,-308.9787 869.966,-316.1696"/>
<text text-anchor="middle" x="970" y="-433" font-family="Helvetica,sans-Serif" font-size="10.00" fill="#000000"> +object</text>
</g>
<!-- Node6 -->
<g id="node6" class="node">
<title>Node6</title>
<g id="a_node6"><a xlink:href="../../d3/d87/classuint32__t.html" target="_top" xlink:title="{uint32_t\n||}">
<polygon fill="none" stroke="#000000" points="673,-808 673,-865 729,-865 729,-808 673,-808"/>
<text text-anchor="middle" x="701" y="-853" font-family="Helvetica,sans-Serif" font-size="10.00" fill="#000000">uint32_t</text>
<polyline fill="none" stroke="#000000" points="673,-846 729,-846 "/>
<text text-anchor="middle" x="701" y="-834" font-family="Helvetica,sans-Serif" font-size="10.00" fill="#000000"> </text>
<polyline fill="none" stroke="#000000" points="673,-827 729,-827 "/>
<text text-anchor="middle" x="701" y="-815" font-family="Helvetica,sans-Serif" font-size="10.00" fill="#000000"> </text>
</a>
</g>
</g>
<!-- Node6&#45;&gt;Node3 -->
<g id="edge5" class="edge">
<title>Node6&#45;&gt;Node3</title>
<path fill="none" stroke="#404040" d="M681.9328,-807.9103C662.0415,-778.0214 633.6392,-735.1371 633,-733 611.603,-661.4648 616.797,-637.8874 633,-565 652.6749,-476.495 697.3115,-383.8679 734.9076,-316.3723"/>
<polygon fill="none" stroke="#404040" points="734.9936,-316.2192 734.4485,-309.0288 740.8762,-305.76 741.4213,-312.9504 734.9936,-316.2192"/>
<text text-anchor="middle" x="667" y="-646.5" font-family="Helvetica,sans-Serif" font-size="10.00" fill="#000000"> +mTaskHash</text>
</g>
<!-- Node6&#45;&gt;Node13 -->
<g id="edge15" class="edge">
<title>Node6&#45;&gt;Node13</title>
<path fill="none" stroke="#404040" d="M706.0616,-807.899C709.7131,-790.8559 715.5116,-769.0904 724,-751 725.1596,-748.5287 726.3793,-746.0538 727.6505,-743.5815"/>
<polygon fill="none" stroke="#404040" points="727.7928,-743.3197 727.1457,-736.1377 733.5264,-732.778 734.1735,-739.9601 727.7928,-743.3197"/>
<text text-anchor="middle" x="758" y="-754" font-family="Helvetica,sans-Serif" font-size="10.00" fill="#000000"> +mTaskHash</text>
</g>
<!-- Node7 -->
<g id="node7" class="node">
<title>Node7</title>
<polygon fill="none" stroke="#bfbfbf" points="472.5,-957 472.5,-1014 501.5,-1014 501.5,-957 472.5,-957"/>
<text text-anchor="middle" x="487" y="-1002" font-family="Helvetica,sans-Serif" font-size="10.00" fill="#000000">int</text>
<polyline fill="none" stroke="#bfbfbf" points="472.5,-995 501.5,-995 "/>
<text text-anchor="middle" x="487" y="-983" font-family="Helvetica,sans-Serif" font-size="10.00" fill="#000000"> </text>
<polyline fill="none" stroke="#bfbfbf" points="472.5,-976 501.5,-976 "/>
<text text-anchor="middle" x="487" y="-964" font-family="Helvetica,sans-Serif" font-size="10.00" fill="#000000"> </text>
</g>
<!-- Node7&#45;&gt;Node3 -->
<g id="edge6" class="edge">
<title>Node7&#45;&gt;Node3</title>
<path fill="none" stroke="#404040" d="M484.9025,-956.8848C477.1272,-841.8452 454.7901,-414.9141 544,-324 568.6709,-298.8578 664.2287,-319.4819 713.0075,-305.107"/>
<polygon fill="none" stroke="#404040" points="713.1638,-305.0455 717.2812,-299.1254 724.3295,-300.6491 720.2121,-306.5692 713.1638,-305.0455"/>
<text text-anchor="middle" x="495" y="-754" font-family="Helvetica,sans-Serif" font-size="10.00" fill="#000000"> +label</text>
</g>
<!-- Node9 -->
<g id="node9" class="node">
<title>Node9</title>
<g id="a_node9"><a xlink:href="../../da/d96/structo2_1_1framework_1_1InputSpec.html" target="_top" xlink:title="{o2::framework::InputSpec\n||+ InputSpec()\l+ InputSpec()\l+ InputSpec()\l+ InputSpec()\l+ InputSpec()\l+ operator==()\l}">
<polygon fill="none" stroke="#000000" points="299,-780.5 299,-892.5 441,-892.5 441,-780.5 299,-780.5"/>
<text text-anchor="middle" x="370" y="-880.5" font-family="Helvetica,sans-Serif" font-size="10.00" fill="#000000">o2::framework::InputSpec</text>
<polyline fill="none" stroke="#000000" points="299,-873.5 441,-873.5 "/>
<text text-anchor="middle" x="370" y="-861.5" font-family="Helvetica,sans-Serif" font-size="10.00" fill="#000000"> </text>
<polyline fill="none" stroke="#000000" points="299,-854.5 441,-854.5 "/>
<text text-anchor="start" x="307" y="-842.5" font-family="Helvetica,sans-Serif" font-size="10.00" fill="#000000">+ InputSpec()</text>
<text text-anchor="start" x="307" y="-831.5" font-family="Helvetica,sans-Serif" font-size="10.00" fill="#000000">+ InputSpec()</text>
<text text-anchor="start" x="307" y="-820.5" font-family="Helvetica,sans-Serif" font-size="10.00" fill="#000000">+ InputSpec()</text>
<text text-anchor="start" x="307" y="-809.5" font-family="Helvetica,sans-Serif" font-size="10.00" fill="#000000">+ InputSpec()</text>
<text text-anchor="start" x="307" y="-798.5" font-family="Helvetica,sans-Serif" font-size="10.00" fill="#000000">+ InputSpec()</text>
<text text-anchor="start" x="307" y="-787.5" font-family="Helvetica,sans-Serif" font-size="10.00" fill="#000000">+ operator==()</text>
</a>
</g>
</g>
<!-- Node7&#45;&gt;Node9 -->
<g id="edge12" class="edge">
<title>Node7&#45;&gt;Node9</title>
<path fill="none" stroke="#404040" d="M472.3554,-972.1305C459.2157,-959.7699 439.7818,-940.5609 425,-922 420.2376,-916.0201 415.5124,-909.6163 410.948,-903.1031"/>
<polygon fill="none" stroke="#404040" points="410.6945,-902.732 404.0072,-900.0339 403.9256,-892.8233 410.613,-895.5213 410.6945,-902.732"/>
<text text-anchor="middle" x="449" y="-914" font-family="Helvetica,sans-Serif" font-size="10.00" fill="#000000"> +binding</text>
</g>
<!-- Node7&#45;&gt;Node13 -->
<g id="edge16" class="edge">
<title>Node7&#45;&gt;Node13</title>
<path fill="none" stroke="#404040" d="M501.8607,-984.118C564.7973,-977.9311 808.2025,-950.5279 853,-893 885.9858,-850.6404 873.9195,-792.4143 852.5734,-743.4649"/>
<polygon fill="none" stroke="#404040" points="852.5653,-743.4472 846.4364,-739.6477 847.5864,-732.5289 853.7153,-736.3284 852.5653,-743.4472"/>
<text text-anchor="middle" x="892" y="-834" font-family="Helvetica,sans-Serif" font-size="10.00" fill="#000000"> +label</text>
</g>
<!-- Node8 -->
<g id="node8" class="node">
<title>Node8</title>
<polygon fill="none" stroke="#bfbfbf" points="1057,-808 1057,-865 1095,-865 1095,-808 1057,-808"/>
<text text-anchor="middle" x="1076" y="-853" font-family="Helvetica,sans-Serif" font-size="10.00" fill="#000000">bool</text>
<polyline fill="none" stroke="#bfbfbf" points="1057,-846 1095,-846 "/>
<text text-anchor="middle" x="1076" y="-834" font-family="Helvetica,sans-Serif" font-size="10.00" fill="#000000"> </text>
<polyline fill="none" stroke="#bfbfbf" points="1057,-827 1095,-827 "/>
<text text-anchor="middle" x="1076" y="-815" font-family="Helvetica,sans-Serif" font-size="10.00" fill="#000000"> </text>
</g>
<!-- Node8&#45;&gt;Node3 -->
<g id="edge7" class="edge">
<title>Node8&#45;&gt;Node3</title>
<path fill="none" stroke="#404040" d="M1074.9468,-807.897C1070.8859,-711.6915 1053.4298,-401.5039 995,-324 966.2626,-285.8815 919.9416,-259.7239 879.2181,-242.7634"/>
<polygon fill="none" stroke="#404040" points="879.0364,-242.6905 871.9783,-244.1681 867.8997,-238.2212 874.9578,-236.7436 879.0364,-242.6905"/>
<text text-anchor="middle" x="1102" y="-646.5" font-family="Helvetica,sans-Serif" font-size="10.00" fill="#000000"> +isdangling</text>
</g>
<!-- Node8&#45;&gt;Node13 -->
<g id="edge18" class="edge">
<title>Node8&#45;&gt;Node13</title>
<path fill="none" stroke="#404040" d="M1056.823,-827.4771C1024.0646,-811.718 955.472,-777.2072 892.1918,-733.5609"/>
<polygon fill="none" stroke="#404040" points="891.9143,-733.3664 884.7051,-733.1983 882.0876,-726.479 889.2968,-726.6471 891.9143,-733.3664"/>
<text text-anchor="middle" x="966" y="-754" font-family="Helvetica,sans-Serif" font-size="10.00" fill="#000000"> +isdangling</text>
</g>
<!-- Node17 -->
<g id="node17" class="node">
<title>Node17</title>
<g id="a_node17"><a xlink:href="../../db/d7a/classAnalysisCompositeCut.html" target="_top" xlink:title="{AnalysisCompositeCut\n||+ AnalysisCompositeCut()\l+ AnalysisCompositeCut()\l+ AnalysisCompositeCut()\l+ operator=()\l+ ~AnalysisCompositeCut()\l+ AddCut()\l+ GetUseAND()\l+ GetNCuts()\l+ IsSelected()\l# ClassDef()\l}">
<polygon fill="none" stroke="#000000" points="1365,-138.5 1365,-294.5 1519,-294.5 1519,-138.5 1365,-138.5"/>
<text text-anchor="middle" x="1442" y="-282.5" font-family="Helvetica,sans-Serif" font-size="10.00" fill="#000000">AnalysisCompositeCut</text>
<polyline fill="none" stroke="#000000" points="1365,-275.5 1519,-275.5 "/>
<text text-anchor="middle" x="1442" y="-263.5" font-family="Helvetica,sans-Serif" font-size="10.00" fill="#000000"> </text>
<polyline fill="none" stroke="#000000" points="1365,-256.5 1519,-256.5 "/>
<text text-anchor="start" x="1373" y="-244.5" font-family="Helvetica,sans-Serif" font-size="10.00" fill="#000000">+ AnalysisCompositeCut()</text>
<text text-anchor="start" x="1373" y="-233.5" font-family="Helvetica,sans-Serif" font-size="10.00" fill="#000000">+ AnalysisCompositeCut()</text>
<text text-anchor="start" x="1373" y="-222.5" font-family="Helvetica,sans-Serif" font-size="10.00" fill="#000000">+ AnalysisCompositeCut()</text>
<text text-anchor="start" x="1373" y="-211.5" font-family="Helvetica,sans-Serif" font-size="10.00" fill="#000000">+ operator=()</text>
<text text-anchor="start" x="1373" y="-200.5" font-family="Helvetica,sans-Serif" font-size="10.00" fill="#000000">+ ~AnalysisCompositeCut()</text>
<text text-anchor="start" x="1373" y="-189.5" font-family="Helvetica,sans-Serif" font-size="10.00" fill="#000000">+ AddCut()</text>
<text text-anchor="start" x="1373" y="-178.5" font-family="Helvetica,sans-Serif" font-size="10.00" fill="#000000">+ GetUseAND()</text>
<text text-anchor="start" x="1373" y="-167.5" font-family="Helvetica,sans-Serif" font-size="10.00" fill="#000000">+ GetNCuts()</text>
<text text-anchor="start" x="1373" y="-156.5" font-family="Helvetica,sans-Serif" font-size="10.00" fill="#000000">+ IsSelected()</text>
<text text-anchor="start" x="1373" y="-145.5" font-family="Helvetica,sans-Serif" font-size="10.00" fill="#000000"># ClassDef()</text>
</a>
</g>
</g>
<!-- Node8&#45;&gt;Node17 -->
<g id="edge28" class="edge">
<title>Node8&#45;&gt;Node17</title>
<path fill="none" stroke="#404040" d="M1095.1815,-834.2704C1142.4891,-827.7589 1265.7671,-804.4718 1333,-733 1390.0104,-672.3953 1420.9845,-437.9087 1434.1751,-306.7006"/>
<polygon fill="none" stroke="#404040" points="1434.1786,-306.6644 1430.788,-300.3001 1435.3587,-294.7226 1438.7492,-301.0869 1434.1786,-306.6644"/>
<text text-anchor="middle" x="1439" y="-646.5" font-family="Helvetica,sans-Serif" font-size="10.00" fill="#000000"> #fOptionUseAND</text>
</g>
<!-- Node9&#45;&gt;Node3 -->
<g id="edge8" class="edge">
<title>Node9&#45;&gt;Node3</title>
<path fill="none" stroke="#404040" d="M361.8353,-780.143C349.8565,-672.9569 341.534,-440.0868 473,-324 510.9752,-290.4672 648.4236,-324.9571 712.8853,-305.2875"/>
<polygon fill="none" stroke="#404040" points="713.2207,-305.1561 717.3472,-299.2423 724.3931,-300.7768 720.2667,-306.6906 713.2207,-305.1561"/>
<text text-anchor="middle" x="379" y="-646.5" font-family="Helvetica,sans-Serif" font-size="10.00" fill="#000000"> +spec</text>
</g>
<!-- Node9&#45;&gt;Node13 -->
<g id="edge19" class="edge">
<title>Node9&#45;&gt;Node13</title>
<path fill="none" stroke="#404040" d="M399.1229,-780.4767C407.801,-768.8571 418.4242,-758.0255 431,-751 482.5289,-722.2133 641.2572,-755.0709 696,-733 697.035,-732.5827 698.0672,-732.1504 699.0962,-731.7039"/>
<polygon fill="none" stroke="#404040" points="699.1987,-731.6541 702.8454,-725.433 709.9905,-726.4064 706.3438,-732.6275 699.1987,-731.6541"/>
<text text-anchor="middle" x="448" y="-754" font-family="Helvetica,sans-Serif" font-size="10.00" fill="#000000"> +spec</text>
</g>
<!-- Node10 -->
<g id="node10" class="node">
<title>Node10</title>
<polygon fill="none" stroke="#bfbfbf" points="182,-951.5 182,-1019.5 312,-1019.5 312,-951.5 182,-951.5"/>
<text text-anchor="start" x="190" y="-1007.5" font-family="Helvetica,sans-Serif" font-size="10.00" fill="#000000">vector&lt; o2::framework</text>
<text text-anchor="middle" x="247" y="-996.5" font-family="Helvetica,sans-Serif" font-size="10.00" fill="#000000">::ConfigParamSpec &gt;</text>
<polyline fill="none" stroke="#bfbfbf" points="182,-989.5 312,-989.5 "/>
<text text-anchor="middle" x="247" y="-977.5" font-family="Helvetica,sans-Serif" font-size="10.00" fill="#000000"> </text>
<polyline fill="none" stroke="#bfbfbf" points="182,-970.5 312,-970.5 "/>
<text text-anchor="middle" x="247" y="-958.5" font-family="Helvetica,sans-Serif" font-size="10.00" fill="#000000"> </text>
</g>
<!-- Node10&#45;&gt;Node9 -->
<g id="edge9" class="edge">
<title>Node10&#45;&gt;Node9</title>
<path fill="none" stroke="#404040" d="M263.2911,-951.4445C270.3421,-938.2265 279.2233,-923.3338 289,-911 291.433,-907.9306 293.9958,-904.875 296.652,-901.8508"/>
<polygon fill="none" stroke="#404040" points="296.7567,-901.7366 297.8614,-894.6105 304.8642,-892.8895 303.7594,-900.0155 296.7567,-901.7366"/>
<text text-anchor="middle" x="318.5" y="-914" font-family="Helvetica,sans-Serif" font-size="10.00" fill="#000000"> +metadata</text>
</g>
<!-- Node11 -->
<g id="node11" class="node">
<title>Node11</title>
<polygon fill="none" stroke="#bfbfbf" points="330,-957 330,-1014 418,-1014 418,-957 330,-957"/>
<text text-anchor="middle" x="374" y="-1002" font-family="Helvetica,sans-Serif" font-size="10.00" fill="#000000">enum Lifetime</text>
<polyline fill="none" stroke="#bfbfbf" points="330,-995 418,-995 "/>
<text text-anchor="middle" x="374" y="-983" font-family="Helvetica,sans-Serif" font-size="10.00" fill="#000000"> </text>
<polyline fill="none" stroke="#bfbfbf" points="330,-976 418,-976 "/>
<text text-anchor="middle" x="374" y="-964" font-family="Helvetica,sans-Serif" font-size="10.00" fill="#000000"> </text>
</g>
<!-- Node11&#45;&gt;Node9 -->
<g id="edge10" class="edge">
<title>Node11&#45;&gt;Node9</title>
<path fill="none" stroke="#404040" d="M361.839,-956.9496C357.8691,-946.2 353.9753,-933.7355 352,-922 351.0829,-916.5518 350.7912,-910.9231 350.9654,-905.2757"/>
<polygon fill="none" stroke="#404040" points="350.9976,-904.9009 347.5281,-898.5793 352.0291,-892.9453 355.4985,-899.2669 350.9976,-904.9009"/>
<text text-anchor="middle" x="377" y="-914" font-family="Helvetica,sans-Serif" font-size="10.00" fill="#000000"> +lifetime</text>
</g>
<!-- Node12 -->
<g id="node12" class="node">
<title>Node12</title>
<polygon fill="none" stroke="#bfbfbf" points="0,-940.5 0,-1030.5 164,-1030.5 164,-940.5 0,-940.5"/>
<text text-anchor="start" x="8" y="-1018.5" font-family="Helvetica,sans-Serif" font-size="10.00" fill="#000000">variant&lt; o2::framework</text>
<text text-anchor="start" x="8" y="-1007.5" font-family="Helvetica,sans-Serif" font-size="10.00" fill="#000000">::ConcreteDataMatcher,</text>
<text text-anchor="start" x="8" y="-996.5" font-family="Helvetica,sans-Serif" font-size="10.00" fill="#000000"> o2::framework::data_matcher</text>
<text text-anchor="middle" x="82" y="-985.5" font-family="Helvetica,sans-Serif" font-size="10.00" fill="#000000">::DataDescriptorMatcher &gt;</text>
<polyline fill="none" stroke="#bfbfbf" points="0,-978.5 164,-978.5 "/>
<text text-anchor="middle" x="82" y="-966.5" font-family="Helvetica,sans-Serif" font-size="10.00" fill="#000000"> </text>
<polyline fill="none" stroke="#bfbfbf" points="0,-959.5 164,-959.5 "/>
<text text-anchor="middle" x="82" y="-947.5" font-family="Helvetica,sans-Serif" font-size="10.00" fill="#000000"> </text>
</g>
<!-- Node12&#45;&gt;Node9 -->
<g id="edge11" class="edge">
<title>Node12&#45;&gt;Node9</title>
<path fill="none" stroke="#404040" d="M164.1438,-943.002C203.0486,-922.8742 249.3907,-898.8986 288.2456,-878.7965"/>
<polygon fill="none" stroke="#404040" points="288.3357,-878.75 291.8267,-872.4402 298.9938,-873.2359 295.5028,-879.5456 288.3357,-878.75"/>
<text text-anchor="middle" x="252" y="-914" font-family="Helvetica,sans-Serif" font-size="10.00" fill="#000000"> +matcher</text>
</g>
<!-- Node13&#45;&gt;Node3 -->
<g id="edge13" class="edge">
<title>Node13&#45;&gt;Node3</title>
<path fill="none" stroke="#ffa500" d="M796,-555.1085C796,-481.1209 796,-378.6504 796,-305.8599"/>
<polygon fill="#ffa500" stroke="#ffa500" points="792.5001,-555.3533 796,-565.3534 799.5001,-555.3534 792.5001,-555.3533"/>
<text text-anchor="middle" x="833" y="-433" font-family="Helvetica,sans-Serif" font-size="10.00" fill="#000000"> &lt; THashList &gt;</text>
</g>
<!-- Node14 -->
<g id="node14" class="node">
<title>Node14</title>
<polygon fill="none" stroke="#bfbfbf" points="747.5,-808 747.5,-865 844.5,-865 844.5,-808 747.5,-808"/>
<text text-anchor="middle" x="796" y="-853" font-family="Helvetica,sans-Serif" font-size="10.00" fill="#000000">shared_ptr&lt; T &gt;</text>
<polyline fill="none" stroke="#bfbfbf" points="747.5,-846 844.5,-846 "/>
<text text-anchor="middle" x="796" y="-834" font-family="Helvetica,sans-Serif" font-size="10.00" fill="#000000"> </text>
<polyline fill="none" stroke="#bfbfbf" points="747.5,-827 844.5,-827 "/>
<text text-anchor="middle" x="796" y="-815" font-family="Helvetica,sans-Serif" font-size="10.00" fill="#000000"> </text>
</g>
<!-- Node14&#45;&gt;Node13 -->
<g id="edge17" class="edge">
<title>Node14&#45;&gt;Node13</title>
<path fill="none" stroke="#404040" d="M796,-807.614C796,-790.5472 796,-767.8551 796,-744.9856"/>
<polygon fill="none" stroke="#404040" points="796.0001,-744.6694 792,-738.6694 796,-732.6694 800,-738.6693 796.0001,-744.6694"/>
<text text-anchor="middle" x="817" y="-754" font-family="Helvetica,sans-Serif" font-size="10.00" fill="#000000"> +object</text>
</g>
<!-- Node15 -->
<g id="node15" class="node">
<title>Node15</title>
<g id="a_node15"><a xlink:href="../../d6/d86/structo2_1_1framework_1_1Produces.html" target="_top" xlink:title="{o2::framework::Produces\l\&lt; aod::EventCuts \&gt;\n||}">
<polygon fill="none" stroke="#000000" points="1040,-182.5 1040,-250.5 1178,-250.5 1178,-182.5 1040,-182.5"/>
<text text-anchor="start" x="1048" y="-238.5" font-family="Helvetica,sans-Serif" font-size="10.00" fill="#000000">o2::framework::Produces</text>
<text text-anchor="middle" x="1109" y="-227.5" font-family="Helvetica,sans-Serif" font-size="10.00" fill="#000000">&lt; aod::EventCuts &gt;</text>
<polyline fill="none" stroke="#000000" points="1040,-220.5 1178,-220.5 "/>
<text text-anchor="middle" x="1109" y="-208.5" font-family="Helvetica,sans-Serif" font-size="10.00" fill="#000000"> </text>
<polyline fill="none" stroke="#000000" points="1040,-201.5 1178,-201.5 "/>
<text text-anchor="middle" x="1109" y="-189.5" font-family="Helvetica,sans-Serif" font-size="10.00" fill="#000000"> </text>
</a>
</g>
</g>
<!-- Node15&#45;&gt;Node1 -->
<g id="edge20" class="edge">
<title>Node15&#45;&gt;Node1</title>
<path fill="none" stroke="#404040" d="M1109,-182.469C1109,-156.787 1109,-121.103 1109,-91.8729"/>
<polygon fill="none" stroke="#404040" points="1109.0001,-91.7888 1105,-85.7889 1109,-79.7888 1113,-85.7888 1109.0001,-91.7888"/>
<text text-anchor="middle" x="1136.5" y="-101" font-family="Helvetica,sans-Serif" font-size="10.00" fill="#000000"> +eventSel</text>
</g>
<!-- Node16 -->
<g id="node16" class="node">
<title>Node16</title>
<g id="a_node16"><a xlink:href="../../d6/d86/structo2_1_1framework_1_1Produces.html" target="_top" xlink:title="{o2::framework::Produces\&lt; T \&gt;\n||}">
<polygon fill="none" stroke="#000000" points="1156.5,-620.5 1156.5,-677.5 1323.5,-677.5 1323.5,-620.5 1156.5,-620.5"/>
<text text-anchor="middle" x="1240" y="-665.5" font-family="Helvetica,sans-Serif" font-size="10.00" fill="#000000">o2::framework::Produces&lt; T &gt;</text>
<polyline fill="none" stroke="#000000" points="1156.5,-658.5 1323.5,-658.5 "/>
<text text-anchor="middle" x="1240" y="-646.5" font-family="Helvetica,sans-Serif" font-size="10.00" fill="#000000"> </text>
<polyline fill="none" stroke="#000000" points="1156.5,-639.5 1323.5,-639.5 "/>
<text text-anchor="middle" x="1240" y="-627.5" font-family="Helvetica,sans-Serif" font-size="10.00" fill="#000000"> </text>
</a>
</g>
</g>
<!-- Node16&#45;&gt;Node15 -->
<g id="edge21" class="edge">
<title>Node16&#45;&gt;Node15</title>
<path fill="none" stroke="#ffa500" d="M1202.9241,-613.2686C1185.3071,-597.3547 1163.4461,-579.0724 1142,-565 1126.7105,-554.9675 1114.6985,-562.5035 1105,-547 1074.6434,-498.4737 1094.0296,-324.8663 1104.0655,-250.5987"/>
<polygon fill="#ffa500" stroke="#ffa500" points="1200.9637,-616.219 1210.703,-620.39 1205.6905,-611.0559 1200.9637,-616.219"/>
<text text-anchor="middle" x="1155" y="-433" font-family="Helvetica,sans-Serif" font-size="10.00" fill="#000000"> &lt; aod::EventCuts &gt;</text>
</g>
<!-- Node17&#45;&gt;Node1 -->
<g id="edge22" class="edge">
<title>Node17&#45;&gt;Node1</title>
<path fill="none" stroke="#404040" d="M1364.9559,-153.8606C1353.0592,-144.6613 1340.8037,-135.4475 1329,-127 1309.6512,-113.1527 1305.4633,-108.2688 1284,-98 1245.9043,-79.7737 1200.5908,-64.928 1165.6194,-54.8198"/>
<polygon fill="none" stroke="#404040" points="1165.2549,-54.7166 1158.3915,-56.9288 1153.7096,-51.4443 1160.573,-49.232 1165.2549,-54.7166"/>
<text text-anchor="middle" x="1333" y="-101" font-family="Helvetica,sans-Serif" font-size="10.00" fill="#000000"> +fEventCut</text>
</g>
<!-- Node18 -->
<g id="node18" class="node">
<title>Node18</title>
<g id="a_node18"><a xlink:href="../../de/df4/classAnalysisCut.html" target="_top" xlink:title="{AnalysisCut\n||+ AnalysisCut()\l+ AnalysisCut()\l+ AnalysisCut()\l+ operator=()\l+ ~AnalysisCut()\l+ AddCut()\l+ IsSelected()\l# ClassDef()\l}">
<polygon fill="none" stroke="#000000" points="1655.5,-582 1655.5,-716 1756.5,-716 1756.5,-582 1655.5,-582"/>
<text text-anchor="middle" x="1706" y="-704" font-family="Helvetica,sans-Serif" font-size="10.00" fill="#000000">AnalysisCut</text>
<polyline fill="none" stroke="#000000" points="1655.5,-697 1756.5,-697 "/>
<text text-anchor="middle" x="1706" y="-685" font-family="Helvetica,sans-Serif" font-size="10.00" fill="#000000"> </text>
<polyline fill="none" stroke="#000000" points="1655.5,-678 1756.5,-678 "/>
<text text-anchor="start" x="1663.5" y="-666" font-family="Helvetica,sans-Serif" font-size="10.00" fill="#000000">+ AnalysisCut()</text>
<text text-anchor="start" x="1663.5" y="-655" font-family="Helvetica,sans-Serif" font-size="10.00" fill="#000000">+ AnalysisCut()</text>
<text text-anchor="start" x="1663.5" y="-644" font-family="Helvetica,sans-Serif" font-size="10.00" fill="#000000">+ AnalysisCut()</text>
<text text-anchor="start" x="1663.5" y="-633" font-family="Helvetica,sans-Serif" font-size="10.00" fill="#000000">+ operator=()</text>
<text text-anchor="start" x="1663.5" y="-622" font-family="Helvetica,sans-Serif" font-size="10.00" fill="#000000">+ ~AnalysisCut()</text>
<text text-anchor="start" x="1663.5" y="-611" font-family="Helvetica,sans-Serif" font-size="10.00" fill="#000000">+ AddCut()</text>
<text text-anchor="start" x="1663.5" y="-600" font-family="Helvetica,sans-Serif" font-size="10.00" fill="#000000">+ IsSelected()</text>
<text text-anchor="start" x="1663.5" y="-589" font-family="Helvetica,sans-Serif" font-size="10.00" fill="#000000"># ClassDef()</text>
</a>
</g>
</g>
<!-- Node18&#45;&gt;Node17 -->
<g id="edge23" class="edge">
<title>Node18&#45;&gt;Node17</title>
<path fill="none" stroke="#191970" d="M1693.4093,-571.8735C1678.902,-501.6954 1649.5494,-398.0584 1594,-324 1574.2179,-297.6265 1546.0693,-275.2035 1519.3617,-257.7698"/>
<polygon fill="none" stroke="#191970" points="1690.0386,-572.8648 1695.4434,-581.9774 1696.9009,-571.4833 1690.0386,-572.8648"/>
</g>
<!-- Node19 -->
<g id="node19" class="node">
<title>Node19</title>
<polygon fill="none" stroke="#bfbfbf" points="1450,-808 1450,-865 1508,-865 1508,-808 1450,-808"/>
<text text-anchor="middle" x="1479" y="-853" font-family="Helvetica,sans-Serif" font-size="10.00" fill="#000000">TNamed</text>
<polyline fill="none" stroke="#bfbfbf" points="1450,-846 1508,-846 "/>
<text text-anchor="middle" x="1479" y="-834" font-family="Helvetica,sans-Serif" font-size="10.00" fill="#000000"> </text>
<polyline fill="none" stroke="#bfbfbf" points="1450,-827 1508,-827 "/>
<text text-anchor="middle" x="1479" y="-815" font-family="Helvetica,sans-Serif" font-size="10.00" fill="#000000"> </text>
</g>
<!-- Node19&#45;&gt;Node18 -->
<g id="edge24" class="edge">
<title>Node19&#45;&gt;Node18</title>
<path fill="none" stroke="#191970" d="M1517.4067,-818.2908C1553.293,-800.0522 1607.0356,-769.495 1646,-733 1651.4937,-727.8545 1656.7997,-722.1364 1661.8318,-716.1721"/>
<polygon fill="none" stroke="#191970" points="1515.6129,-815.2747 1508.2372,-822.8807 1518.7462,-821.5343 1515.6129,-815.2747"/>
</g>
<!-- Node23 -->
<g id="node23" class="node">
<title>Node23</title>
<g id="a_node23"><a xlink:href="../../d7/d2c/classHistogramManager.html" target="_top" xlink:title="{HistogramManager\n||+ HistogramManager()\l+ HistogramManager()\l+ ~HistogramManager()\l+ SetMainHistogramList()\l+ AddHistClass()\l+ AddHistogram()\l+ AddHistogram()\l+ AddHistogram()\l+ AddHistogram()\l+ FillHistClass()\l+ SetUseDefaultVariableNames()\l+ SetDefaultVarNames()\l+ GetUsedVars()\l+ GetMainHistogramList()\l+ GetAllocatedBins()\l+ Print()\l}">
<polygon fill="none" stroke="#000000" points="1214,-324.5 1214,-546.5 1394,-546.5 1394,-324.5 1214,-324.5"/>
<text text-anchor="middle" x="1304" y="-534.5" font-family="Helvetica,sans-Serif" font-size="10.00" fill="#000000">HistogramManager</text>
<polyline fill="none" stroke="#000000" points="1214,-527.5 1394,-527.5 "/>
<text text-anchor="middle" x="1304" y="-515.5" font-family="Helvetica,sans-Serif" font-size="10.00" fill="#000000"> </text>
<polyline fill="none" stroke="#000000" points="1214,-508.5 1394,-508.5 "/>
<text text-anchor="start" x="1222" y="-496.5" font-family="Helvetica,sans-Serif" font-size="10.00" fill="#000000">+ HistogramManager()</text>
<text text-anchor="start" x="1222" y="-485.5" font-family="Helvetica,sans-Serif" font-size="10.00" fill="#000000">+ HistogramManager()</text>
<text text-anchor="start" x="1222" y="-474.5" font-family="Helvetica,sans-Serif" font-size="10.00" fill="#000000">+ ~HistogramManager()</text>
<text text-anchor="start" x="1222" y="-463.5" font-family="Helvetica,sans-Serif" font-size="10.00" fill="#000000">+ SetMainHistogramList()</text>
<text text-anchor="start" x="1222" y="-452.5" font-family="Helvetica,sans-Serif" font-size="10.00" fill="#000000">+ AddHistClass()</text>
<text text-anchor="start" x="1222" y="-441.5" font-family="Helvetica,sans-Serif" font-size="10.00" fill="#000000">+ AddHistogram()</text>
<text text-anchor="start" x="1222" y="-430.5" font-family="Helvetica,sans-Serif" font-size="10.00" fill="#000000">+ AddHistogram()</text>
<text text-anchor="start" x="1222" y="-419.5" font-family="Helvetica,sans-Serif" font-size="10.00" fill="#000000">+ AddHistogram()</text>
<text text-anchor="start" x="1222" y="-408.5" font-family="Helvetica,sans-Serif" font-size="10.00" fill="#000000">+ AddHistogram()</text>
<text text-anchor="start" x="1222" y="-397.5" font-family="Helvetica,sans-Serif" font-size="10.00" fill="#000000">+ FillHistClass()</text>
<text text-anchor="start" x="1222" y="-386.5" font-family="Helvetica,sans-Serif" font-size="10.00" fill="#000000">+ SetUseDefaultVariableNames()</text>
<text text-anchor="start" x="1222" y="-375.5" font-family="Helvetica,sans-Serif" font-size="10.00" fill="#000000">+ SetDefaultVarNames()</text>
<text text-anchor="start" x="1222" y="-364.5" font-family="Helvetica,sans-Serif" font-size="10.00" fill="#000000">+ GetUsedVars()</text>
<text text-anchor="start" x="1222" y="-353.5" font-family="Helvetica,sans-Serif" font-size="10.00" fill="#000000">+ GetMainHistogramList()</text>
<text text-anchor="start" x="1222" y="-342.5" font-family="Helvetica,sans-Serif" font-size="10.00" fill="#000000">+ GetAllocatedBins()</text>
<text text-anchor="start" x="1222" y="-331.5" font-family="Helvetica,sans-Serif" font-size="10.00" fill="#000000">+ Print()</text>
</a>
</g>
</g>
<!-- Node19&#45;&gt;Node23 -->
<g id="edge30" class="edge">
<title>Node19&#45;&gt;Node23</title>
<path fill="none" stroke="#191970" d="M1442.4884,-806.4294C1421.6233,-787.4059 1396.5869,-761.1499 1381,-733 1371.6962,-716.1974 1348.4959,-624.1669 1329.9764,-546.8563"/>
<polygon fill="none" stroke="#191970" points="1440.1708,-809.0522 1449.9615,-813.1009 1444.8326,-803.8303 1440.1708,-809.0522"/>
</g>
<!-- Node20 -->
<g id="node20" class="node">
<title>Node20</title>
<polygon fill="none" stroke="#bfbfbf" points="1599,-802.5 1599,-870.5 1715,-870.5 1715,-802.5 1599,-802.5"/>
<text text-anchor="start" x="1607" y="-858.5" font-family="Helvetica,sans-Serif" font-size="10.00" fill="#000000">vector&lt; AnalysisCut</text>
<text text-anchor="middle" x="1657" y="-847.5" font-family="Helvetica,sans-Serif" font-size="10.00" fill="#000000">::CutContainer &gt;</text>
<polyline fill="none" stroke="#bfbfbf" points="1599,-840.5 1715,-840.5 "/>
<text text-anchor="middle" x="1657" y="-828.5" font-family="Helvetica,sans-Serif" font-size="10.00" fill="#000000"> </text>
<polyline fill="none" stroke="#bfbfbf" points="1599,-821.5 1715,-821.5 "/>
<text text-anchor="middle" x="1657" y="-809.5" font-family="Helvetica,sans-Serif" font-size="10.00" fill="#000000"> </text>
</g>
<!-- Node20&#45;&gt;Node18 -->
<g id="edge25" class="edge">
<title>Node20&#45;&gt;Node18</title>
<path fill="none" stroke="#404040" d="M1665.9874,-802.1096C1671.4261,-781.2981 1678.5975,-753.8567 1685.3651,-727.9599"/>
<polygon fill="none" stroke="#404040" points="1685.4044,-727.8095 1683.0514,-720.9931 1688.4386,-716.1994 1690.7915,-723.0159 1685.4044,-727.8095"/>
<text text-anchor="middle" x="1696.5" y="-754" font-family="Helvetica,sans-Serif" font-size="10.00" fill="#000000"> #fCuts</text>
</g>
<!-- Node21 -->
<g id="node21" class="node">
<title>Node21</title>
<polygon fill="none" stroke="#bfbfbf" points="1733,-808 1733,-865 1777,-865 1777,-808 1733,-808"/>
<text text-anchor="middle" x="1755" y="-853" font-family="Helvetica,sans-Serif" font-size="10.00" fill="#000000">static</text>
<polyline fill="none" stroke="#bfbfbf" points="1733,-846 1777,-846 "/>
<text text-anchor="middle" x="1755" y="-834" font-family="Helvetica,sans-Serif" font-size="10.00" fill="#000000"> </text>
<polyline fill="none" stroke="#bfbfbf" points="1733,-827 1777,-827 "/>
<text text-anchor="middle" x="1755" y="-815" font-family="Helvetica,sans-Serif" font-size="10.00" fill="#000000"> </text>
</g>
<!-- Node21&#45;&gt;Node18 -->
<g id="edge26" class="edge">
<title>Node21&#45;&gt;Node18</title>
<path fill="none" stroke="#404040" d="M1747.4511,-807.614C1741.8841,-786.3114 1734.0266,-756.2447 1726.6474,-728.0081"/>
<polygon fill="none" stroke="#404040" points="1726.5565,-727.6597 1721.1693,-722.866 1723.5223,-716.0496 1728.9094,-720.8432 1726.5565,-727.6597"/>
<text text-anchor="middle" x="1767.5" y="-754" font-family="Helvetica,sans-Serif" font-size="10.00" fill="#000000"> +fgUsedVars</text>
</g>
<!-- Node22 -->
<g id="node22" class="node">
<title>Node22</title>
<polygon fill="none" stroke="#bfbfbf" points="1509,-620.5 1509,-677.5 1637,-677.5 1637,-620.5 1509,-620.5"/>
<text text-anchor="middle" x="1573" y="-665.5" font-family="Helvetica,sans-Serif" font-size="10.00" fill="#000000">vector&lt; AnalysisCut &gt;</text>
<polyline fill="none" stroke="#bfbfbf" points="1509,-658.5 1637,-658.5 "/>
<text text-anchor="middle" x="1573" y="-646.5" font-family="Helvetica,sans-Serif" font-size="10.00" fill="#000000"> </text>
<polyline fill="none" stroke="#bfbfbf" points="1509,-639.5 1637,-639.5 "/>
<text text-anchor="middle" x="1573" y="-627.5" font-family="Helvetica,sans-Serif" font-size="10.00" fill="#000000"> </text>
</g>
<!-- Node22&#45;&gt;Node17 -->
<g id="edge27" class="edge">
<title>Node22&#45;&gt;Node17</title>
<path fill="none" stroke="#404040" d="M1564.3033,-620.2875C1545.2485,-557.3777 1499.1393,-405.1468 1469.2964,-306.6199"/>
<polygon fill="none" stroke="#404040" points="1469.2193,-306.365 1463.6517,-301.7822 1465.7406,-294.8803 1471.3082,-299.4631 1469.2193,-306.365"/>
<text text-anchor="middle" x="1565.5" y="-433" font-family="Helvetica,sans-Serif" font-size="10.00" fill="#000000"> #fCutList</text>
</g>
<!-- Node23&#45;&gt;Node1 -->
<g id="edge29" class="edge">
<title>Node23&#45;&gt;Node1</title>
<path fill="none" stroke="#404040" d="M1268.3535,-324.1379C1247.5905,-264.3449 1219.1821,-190.1594 1187,-127 1180.0963,-113.4511 1170.5478,-100.3773 1160.4953,-88.6622"/>
<polygon fill="none" stroke="#404040" points="1160.367,-88.5187 1153.3854,-86.7138 1152.3663,-79.5751 1159.3479,-81.38 1160.367,-88.5187"/>
<text text-anchor="middle" x="1287.5" y="-214" font-family="Helvetica,sans-Serif" font-size="10.00" fill="#000000"> +fHistMan</text>
</g>
</g>
</svg>
