<?xml version="1.0" encoding="UTF-8" standalone="no"?>
<!DOCTYPE svg PUBLIC "-//W3C//DTD SVG 1.1//EN"
 "http://www.w3.org/Graphics/SVG/1.1/DTD/svg11.dtd">
<!-- Generated by graphviz version 2.40.1 (20161225.0304)
 -->
<!-- Title: /home/travis/build/AliceO2Group/AliceO2/GPU/GPUTracking/Merger/GPUTPCGMMergedTrack.h Pages: 1 -->
<!--zoomable 417 -->
<svg id="main" version="1.1" xmlns="http://www.w3.org/2000/svg" xmlns:xlink="http://www.w3.org/1999/xlink" xml:space="preserve" onload="init(evt)">
<style type="text/css"><![CDATA[
.edge:hover path { stroke: red; }
.edge:hover polygon { stroke: red; fill: red; }
]]></style>
<script type="text/javascript"><![CDATA[
var edges = document.getElementsByTagName('g');
if (edges && edges.length) {
  for (var i=0;i<edges.length;i++) {
    if (edges[i].id.substr(0,4)=='edge') {
      edges[i].setAttribute('class','edge');
    }
  }
}
]]></script>
        <defs>
                <circle id="rim" cx="0" cy="0" r="7"/>
                <circle id="rim2" cx="0" cy="0" r="3.5"/>
                <g id="zoomPlus">
                        <use xlink:href="#rim" fill="#404040">
                                <set attributeName="fill" to="#808080" begin="zoomplus.mouseover" end="zoomplus.mouseout"/>
                        </use>
                        <path d="M-4,0h8M0,-4v8" fill="none" stroke="white" stroke-width="1.5" pointer-events="none"/>
                </g>
                <g id="zoomMin">
                        <use xlink:href="#rim" fill="#404040">
                                <set attributeName="fill" to="#808080" begin="zoomminus.mouseover" end="zoomminus.mouseout"/>
                        </use>
                        <path d="M-4,0h8" fill="none" stroke="white" stroke-width="1.5" pointer-events="none"/>
                </g>
                <g id="dirArrow">
                        <path fill="none" stroke="white" stroke-width="1.5" d="M0,-3.0v7 M-2.5,-0.5L0,-3.0L2.5,-0.5"/>
                </g>
               <g id="resetDef">
                       <use xlink:href="#rim2" fill="#404040">
                               <set attributeName="fill" to="#808080" begin="reset.mouseover" end="reset.mouseout"/>
                       </use>
               </g>
        </defs>

<script type="text/javascript">
var viewWidth = 2257;
var viewHeight = 417;
var sectionId = 'dynsection-1';
</script>
<script xlink:href="../../svgpan.js"/>
<svg id="graph" class="graph">
<g id="viewport">
<title>/home/travis/build/AliceO2Group/AliceO2/GPU/GPUTracking/Merger/GPUTPCGMMergedTrack.h</title>
<!-- Node19 -->
<g id="node1" class="node">
<title>Node19</title>
<polygon fill="#bfbfbf" stroke="#000000" points="997.5,-356.5 997.5,-408.5 1143.5,-408.5 1143.5,-356.5 997.5,-356.5"/>
<text text-anchor="start" x="1005.5" y="-396.5" font-family="Helvetica,sans-Serif" font-size="10.00" fill="#000000">/home/travis/build</text>
<text text-anchor="start" x="1005.5" y="-385.5" font-family="Helvetica,sans-Serif" font-size="10.00" fill="#000000">/AliceO2Group/AliceO2</text>
<text text-anchor="start" x="1005.5" y="-374.5" font-family="Helvetica,sans-Serif" font-size="10.00" fill="#000000">/GPU/GPUTracking/Merger</text>
<text text-anchor="middle" x="1070.5" y="-363.5" font-family="Helvetica,sans-Serif" font-size="10.00" fill="#000000">/GPUTPCGMMergedTrack.h</text>
</g>
<!-- Node20 -->
<g id="node2" class="node">
<title>Node20</title>
<g id="a_node2"><a xlink:href="../../d4/d2e/GPUCATracking_8cxx.html" target="_top" xlink:title="/home/travis/build\l/AliceO2Group/AliceO2\l/Detectors/TPC/reconstruction\l/src/GPUCATracking.cxx">
<polygon fill="none" stroke="#000000" points="0,-267.5 0,-319.5 161,-319.5 161,-267.5 0,-267.5"/>
<text text-anchor="start" x="8" y="-307.5" font-family="Helvetica,sans-Serif" font-size="10.00" fill="#000000">/home/travis/build</text>
<text text-anchor="start" x="8" y="-296.5" font-family="Helvetica,sans-Serif" font-size="10.00" fill="#000000">/AliceO2Group/AliceO2</text>
<text text-anchor="start" x="8" y="-285.5" font-family="Helvetica,sans-Serif" font-size="10.00" fill="#000000">/Detectors/TPC/reconstruction</text>
<text text-anchor="middle" x="80.5" y="-274.5" font-family="Helvetica,sans-Serif" font-size="10.00" fill="#000000">/src/GPUCATracking.cxx</text>
</a>
</g>
</g>
<!-- Node19&#45;&gt;Node20 -->
<g id="edge1" class="edge">
<title>Node19&#45;&gt;Node20</title>
<path fill="none" stroke="#191970" d="M987.2261,-378.8419C796.027,-370.093 330.1752,-346.6905 175.5,-320 170.7755,-319.1847 165.9479,-318.2308 161.0965,-317.1783"/>
<polygon fill="#191970" stroke="#191970" points="987.3481,-382.351 997.497,-379.3098 987.6667,-375.3582 987.3481,-382.351"/>
</g>
<!-- Node21 -->
<g id="node3" class="node">
<title>Node21</title>
<g id="a_node3"><a xlink:href="../../da/df6/GPUReconstructionCPU_8cxx.html" target="_top" xlink:title="/home/travis/build\l/AliceO2Group/AliceO2\l/GPU/GPUTracking/Base\l/GPUReconstructionCPU.cxx">
<polygon fill="none" stroke="#000000" points="112,-.5 112,-52.5 265,-52.5 265,-.5 112,-.5"/>
<text text-anchor="start" x="120" y="-40.5" font-family="Helvetica,sans-Serif" font-size="10.00" fill="#000000">/home/travis/build</text>
<text text-anchor="start" x="120" y="-29.5" font-family="Helvetica,sans-Serif" font-size="10.00" fill="#000000">/AliceO2Group/AliceO2</text>
<text text-anchor="start" x="120" y="-18.5" font-family="Helvetica,sans-Serif" font-size="10.00" fill="#000000">/GPU/GPUTracking/Base</text>
<text text-anchor="middle" x="188.5" y="-7.5" font-family="Helvetica,sans-Serif" font-size="10.00" fill="#000000">/GPUReconstructionCPU.cxx</text>
</a>
</g>
</g>
<!-- Node19&#45;&gt;Node21 -->
<g id="edge2" class="edge">
<title>Node19&#45;&gt;Node21</title>
<path fill="none" stroke="#191970" d="M987.1794,-377.8631C818.5155,-368.0313 448.1644,-344.0178 395.5,-320 280.618,-267.6077 217.9618,-114.457 196.7909,-52.733"/>
<polygon fill="#191970" stroke="#191970" points="987.0732,-381.3628 997.2591,-378.4478 987.4786,-374.3745 987.0732,-381.3628"/>
</g>
<!-- Node22 -->
<g id="node4" class="node">
<title>Node22</title>
<g id="a_node4"><a xlink:href="../../d2/d58/GPUChainTracking_8cxx.html" target="_top" xlink:title="/home/travis/build\l/AliceO2Group/AliceO2\l/GPU/GPUTracking/Global\l/GPUChainTracking.cxx">
<polygon fill="none" stroke="#000000" points="283.5,-.5 283.5,-52.5 423.5,-52.5 423.5,-.5 283.5,-.5"/>
<text text-anchor="start" x="291.5" y="-40.5" font-family="Helvetica,sans-Serif" font-size="10.00" fill="#000000">/home/travis/build</text>
<text text-anchor="start" x="291.5" y="-29.5" font-family="Helvetica,sans-Serif" font-size="10.00" fill="#000000">/AliceO2Group/AliceO2</text>
<text text-anchor="start" x="291.5" y="-18.5" font-family="Helvetica,sans-Serif" font-size="10.00" fill="#000000">/GPU/GPUTracking/Global</text>
<text text-anchor="middle" x="353.5" y="-7.5" font-family="Helvetica,sans-Serif" font-size="10.00" fill="#000000">/GPUChainTracking.cxx</text>
</a>
</g>
</g>
<!-- Node19&#45;&gt;Node22 -->
<g id="edge3" class="edge">
<title>Node19&#45;&gt;Node22</title>
<path fill="none" stroke="#191970" d="M987.4454,-378.1665C856.4825,-370.4629 608.4573,-352.0999 526.5,-320 401.845,-271.1769 344.0457,-261.4018 283.5,-142 272.8469,-120.9911 273.8741,-110.499 283.5,-89 289.8248,-74.8739 301.0951,-62.6251 312.7695,-52.8057"/>
<polygon fill="#191970" stroke="#191970" points="987.2515,-381.661 997.4377,-378.7469 987.6575,-374.6728 987.2515,-381.661"/>
</g>
<!-- Node23 -->
<g id="node5" class="node">
<title>Node23</title>
<g id="a_node5"><a xlink:href="../../d3/d85/GPUChainTrackingIO_8cxx.html" target="_top" xlink:title="/home/travis/build\l/AliceO2Group/AliceO2\l/GPU/GPUTracking/Global\l/GPUChainTrackingIO.cxx">
<polygon fill="none" stroke="#000000" points="820.5,-.5 820.5,-52.5 960.5,-52.5 960.5,-.5 820.5,-.5"/>
<text text-anchor="start" x="828.5" y="-40.5" font-family="Helvetica,sans-Serif" font-size="10.00" fill="#000000">/home/travis/build</text>
<text text-anchor="start" x="828.5" y="-29.5" font-family="Helvetica,sans-Serif" font-size="10.00" fill="#000000">/AliceO2Group/AliceO2</text>
<text text-anchor="start" x="828.5" y="-18.5" font-family="Helvetica,sans-Serif" font-size="10.00" fill="#000000">/GPU/GPUTracking/Global</text>
<text text-anchor="middle" x="890.5" y="-7.5" font-family="Helvetica,sans-Serif" font-size="10.00" fill="#000000">/GPUChainTrackingIO.cxx</text>
</a>
</g>
</g>
<!-- Node19&#45;&gt;Node23 -->
<g id="edge4" class="edge">
<title>Node19&#45;&gt;Node23</title>
<path fill="none" stroke="#191970" d="M987.5394,-365.9579C916.058,-346.831 817.2293,-307.5903 770.5,-231 731.8009,-167.5714 807.3298,-91.9229 855.2461,-52.8191"/>
<polygon fill="#191970" stroke="#191970" points="986.8775,-369.4019 997.436,-368.5251 988.6352,-362.6262 986.8775,-369.4019"/>
</g>
<!-- Node24 -->
<g id="node6" class="node">
<title>Node24</title>
<g id="a_node6"><a xlink:href="../../d4/dcf/GPUTPCGMMerger_8h.html" target="_top" xlink:title="/home/travis/build\l/AliceO2Group/AliceO2\l/GPU/GPUTracking/Merger\l/GPUTPCGMMerger.h">
<polygon fill="none" stroke="#000000" points="1142.5,-267.5 1142.5,-319.5 1284.5,-319.5 1284.5,-267.5 1142.5,-267.5"/>
<text text-anchor="start" x="1150.5" y="-307.5" font-family="Helvetica,sans-Serif" font-size="10.00" fill="#000000">/home/travis/build</text>
<text text-anchor="start" x="1150.5" y="-296.5" font-family="Helvetica,sans-Serif" font-size="10.00" fill="#000000">/AliceO2Group/AliceO2</text>
<text text-anchor="start" x="1150.5" y="-285.5" font-family="Helvetica,sans-Serif" font-size="10.00" fill="#000000">/GPU/GPUTracking/Merger</text>
<text text-anchor="middle" x="1213.5" y="-274.5" font-family="Helvetica,sans-Serif" font-size="10.00" fill="#000000">/GPUTPCGMMerger.h</text>
</a>
</g>
</g>
<!-- Node19&#45;&gt;Node24 -->
<g id="edge5" class="edge">
<title>Node19&#45;&gt;Node24</title>
<path fill="none" stroke="#191970" d="M1121.5699,-350.7152C1137.9946,-340.4929 1155.9894,-329.2933 1171.6699,-319.5341"/>
<polygon fill="#191970" stroke="#191970" points="1119.2719,-348.0229 1112.6313,-356.2784 1122.9707,-353.9659 1119.2719,-348.0229"/>
</g>
<!-- Node26 -->
<g id="node8" class="node">
<title>Node26</title>
<g id="a_node8"><a xlink:href="../../df/d06/GPUTPCGlobalMergerComponent_8cxx.html" target="_top" xlink:title="/home/travis/build\l/AliceO2Group/AliceO2\l/GPU/GPUTracking/Merger\l/GPUTPCGlobalMergerComponent.cxx">
<polygon fill="none" stroke="#000000" points="780,-178.5 780,-230.5 981,-230.5 981,-178.5 780,-178.5"/>
<text text-anchor="start" x="788" y="-218.5" font-family="Helvetica,sans-Serif" font-size="10.00" fill="#000000">/home/travis/build</text>
<text text-anchor="start" x="788" y="-207.5" font-family="Helvetica,sans-Serif" font-size="10.00" fill="#000000">/AliceO2Group/AliceO2</text>
<text text-anchor="start" x="788" y="-196.5" font-family="Helvetica,sans-Serif" font-size="10.00" fill="#000000">/GPU/GPUTracking/Merger</text>
<text text-anchor="middle" x="880.5" y="-185.5" font-family="Helvetica,sans-Serif" font-size="10.00" fill="#000000">/GPUTPCGlobalMergerComponent.cxx</text>
</a>
</g>
</g>
<!-- Node19&#45;&gt;Node26 -->
<g id="edge18" class="edge">
<title>Node19&#45;&gt;Node26</title>
<path fill="none" stroke="#191970" d="M1034.9573,-349.2021C998.2981,-314.8583 941.8861,-262.0091 908.3407,-230.5823"/>
<polygon fill="#191970" stroke="#191970" points="1032.7741,-351.9528 1042.4648,-356.2355 1037.56,-346.8444 1032.7741,-351.9528"/>
</g>
<!-- Node27 -->
<g id="node9" class="node">
<title>Node27</title>
<g id="a_node9"><a xlink:href="../../d0/dd4/GPUTPCGMMerger_8cxx.html" target="_top" xlink:title="/home/travis/build\l/AliceO2Group/AliceO2\l/GPU/GPUTracking/Merger\l/GPUTPCGMMerger.cxx">
<polygon fill="none" stroke="#000000" points="999.5,-178.5 999.5,-230.5 1141.5,-230.5 1141.5,-178.5 999.5,-178.5"/>
<text text-anchor="start" x="1007.5" y="-218.5" font-family="Helvetica,sans-Serif" font-size="10.00" fill="#000000">/home/travis/build</text>
<text text-anchor="start" x="1007.5" y="-207.5" font-family="Helvetica,sans-Serif" font-size="10.00" fill="#000000">/AliceO2Group/AliceO2</text>
<text text-anchor="start" x="1007.5" y="-196.5" font-family="Helvetica,sans-Serif" font-size="10.00" fill="#000000">/GPU/GPUTracking/Merger</text>
<text text-anchor="middle" x="1070.5" y="-185.5" font-family="Helvetica,sans-Serif" font-size="10.00" fill="#000000">/GPUTPCGMMerger.cxx</text>
</a>
</g>
</g>
<!-- Node19&#45;&gt;Node27 -->
<g id="edge19" class="edge">
<title>Node19&#45;&gt;Node27</title>
<path fill="none" stroke="#191970" d="M1070.5,-346.1378C1070.5,-311.7809 1070.5,-261.0886 1070.5,-230.5823"/>
<polygon fill="#191970" stroke="#191970" points="1067.0001,-346.2355 1070.5,-356.2355 1074.0001,-346.2355 1067.0001,-346.2355"/>
</g>
<!-- Node30 -->
<g id="node12" class="node">
<title>Node30</title>
<g id="a_node12"><a xlink:href="../../d0/d24/GPUTPCGMMergerDump_8cxx.html" target="_top" xlink:title="/home/travis/build\l/AliceO2Group/AliceO2\l/GPU/GPUTracking/Merger\l/GPUTPCGMMergerDump.cxx">
<polygon fill="none" stroke="#000000" points="2090.5,-178.5 2090.5,-230.5 2248.5,-230.5 2248.5,-178.5 2090.5,-178.5"/>
<text text-anchor="start" x="2098.5" y="-218.5" font-family="Helvetica,sans-Serif" font-size="10.00" fill="#000000">/home/travis/build</text>
<text text-anchor="start" x="2098.5" y="-207.5" font-family="Helvetica,sans-Serif" font-size="10.00" fill="#000000">/AliceO2Group/AliceO2</text>
<text text-anchor="start" x="2098.5" y="-196.5" font-family="Helvetica,sans-Serif" font-size="10.00" fill="#000000">/GPU/GPUTracking/Merger</text>
<text text-anchor="middle" x="2169.5" y="-185.5" font-family="Helvetica,sans-Serif" font-size="10.00" fill="#000000">/GPUTPCGMMergerDump.cxx</text>
</a>
</g>
</g>
<!-- Node19&#45;&gt;Node30 -->
<g id="edge20" class="edge">
<title>Node19&#45;&gt;Node30</title>
<path fill="none" stroke="#191970" d="M1153.8222,-368.4938C1217.7723,-356.6157 1299.8191,-338.5873 1328.5,-320 1353.4917,-303.8035 1343.1042,-280.7904 1369.5,-267 1439.7079,-230.32 2003.45,-244.5191 2081.5,-231 2084.3298,-230.5098 2087.1968,-229.9576 2090.0817,-229.3544"/>
<polygon fill="#191970" stroke="#191970" points="1152.9291,-365.0992 1143.725,-370.3465 1154.1925,-371.9842 1152.9291,-365.0992"/>
</g>
<!-- Node32 -->
<g id="node14" class="node">
<title>Node32</title>
<g id="a_node14"><a xlink:href="../../df/dad/GPUTPCGMTrackParam_8cxx.html" target="_top" xlink:title="/home/travis/build\l/AliceO2Group/AliceO2\l/GPU/GPUTracking/Merger\l/GPUTPCGMTrackParam.cxx">
<polygon fill="none" stroke="#000000" points="1920.5,-178.5 1920.5,-230.5 2072.5,-230.5 2072.5,-178.5 1920.5,-178.5"/>
<text text-anchor="start" x="1928.5" y="-218.5" font-family="Helvetica,sans-Serif" font-size="10.00" fill="#000000">/home/travis/build</text>
<text text-anchor="start" x="1928.5" y="-207.5" font-family="Helvetica,sans-Serif" font-size="10.00" fill="#000000">/AliceO2Group/AliceO2</text>
<text text-anchor="start" x="1928.5" y="-196.5" font-family="Helvetica,sans-Serif" font-size="10.00" fill="#000000">/GPU/GPUTracking/Merger</text>
<text text-anchor="middle" x="1996.5" y="-185.5" font-family="Helvetica,sans-Serif" font-size="10.00" fill="#000000">/GPUTPCGMTrackParam.cxx</text>
</a>
</g>
</g>
<!-- Node19&#45;&gt;Node32 -->
<g id="edge21" class="edge">
<title>Node19&#45;&gt;Node32</title>
<path fill="none" stroke="#191970" d="M1153.619,-371.692C1197.9088,-362.9793 1251.714,-347.4501 1293.5,-320 1318.8522,-303.3457 1309.5369,-280.8957 1336.5,-267 1450.304,-208.3501 1785.5952,-254.2194 1911.5,-231 1914.3882,-230.4674 1917.3159,-229.8678 1920.2614,-229.2142"/>
<polygon fill="#191970" stroke="#191970" points="1152.9211,-368.2618 1143.7427,-373.554 1154.2181,-375.1406 1152.9211,-368.2618"/>
</g>
<!-- Node35 -->
<g id="node17" class="node">
<title>Node35</title>
<g id="a_node17"><a xlink:href="../../df/d2b/GPUTrackingRefit_8cxx.html" target="_top" xlink:title="/home/travis/build\l/AliceO2Group/AliceO2\l/GPU/GPUTracking/Refit\l/GPUTrackingRefit.cxx">
<polygon fill="none" stroke="#000000" points="1378.5,-267.5 1378.5,-319.5 1508.5,-319.5 1508.5,-267.5 1378.5,-267.5"/>
<text text-anchor="start" x="1386.5" y="-307.5" font-family="Helvetica,sans-Serif" font-size="10.00" fill="#000000">/home/travis/build</text>
<text text-anchor="start" x="1386.5" y="-296.5" font-family="Helvetica,sans-Serif" font-size="10.00" fill="#000000">/AliceO2Group/AliceO2</text>
<text text-anchor="start" x="1386.5" y="-285.5" font-family="Helvetica,sans-Serif" font-size="10.00" fill="#000000">/GPU/GPUTracking/Refit</text>
<text text-anchor="middle" x="1443.5" y="-274.5" font-family="Helvetica,sans-Serif" font-size="10.00" fill="#000000">/GPUTrackingRefit.cxx</text>
</a>
</g>
</g>
<!-- Node19&#45;&gt;Node35 -->
<g id="edge22" class="edge">
<title>Node19&#45;&gt;Node35</title>
<path fill="none" stroke="#191970" d="M1153.5974,-367.4623C1212.8136,-356.1089 1294.0721,-339.2307 1364.5,-320 1368.9657,-318.7806 1373.5494,-317.452 1378.1518,-316.0605"/>
<polygon fill="#191970" stroke="#191970" points="1152.7162,-364.0671 1143.5478,-369.3766 1154.0262,-370.9434 1152.7162,-364.0671"/>
</g>
<!-- Node36 -->
<g id="node18" class="node">
<title>Node36</title>
<g id="a_node18"><a xlink:href="../../de/ddc/GPUQA_8cxx.html" target="_top" xlink:title="/home/travis/build\l/AliceO2Group/AliceO2\l/GPU/GPUTracking/Standalone\l/qa/GPUQA.cxx">
<polygon fill="none" stroke="#000000" points="1527,-267.5 1527,-319.5 1690,-319.5 1690,-267.5 1527,-267.5"/>
<text text-anchor="start" x="1535" y="-307.5" font-family="Helvetica,sans-Serif" font-size="10.00" fill="#000000">/home/travis/build</text>
<text text-anchor="start" x="1535" y="-296.5" font-family="Helvetica,sans-Serif" font-size="10.00" fill="#000000">/AliceO2Group/AliceO2</text>
<text text-anchor="start" x="1535" y="-285.5" font-family="Helvetica,sans-Serif" font-size="10.00" fill="#000000">/GPU/GPUTracking/Standalone</text>
<text text-anchor="middle" x="1608.5" y="-274.5" font-family="Helvetica,sans-Serif" font-size="10.00" fill="#000000">/qa/GPUQA.cxx</text>
</a>
</g>
</g>
<!-- Node19&#45;&gt;Node36 -->
<g id="edge23" class="edge">
<title>Node19&#45;&gt;Node36</title>
<path fill="none" stroke="#191970" d="M1154.0219,-374.4674C1244.2939,-364.9401 1392.0816,-346.8823 1517.5,-320 1520.557,-319.3448 1523.6615,-318.6408 1526.7896,-317.899"/>
<polygon fill="#191970" stroke="#191970" points="1153.4276,-371.0104 1143.8456,-375.531 1154.1553,-377.9724 1153.4276,-371.0104"/>
</g>
<!-- Node37 -->
<g id="node19" class="node">
<title>Node37</title>
<g id="a_node19"><a xlink:href="../../dc/df9/standalone_8cxx.html" target="_top" xlink:title="/home/travis/build\l/AliceO2Group/AliceO2\l/GPU/GPUTracking/Standalone\l/standalone.cxx">
<polygon fill="none" stroke="#000000" points="1708,-267.5 1708,-319.5 1871,-319.5 1871,-267.5 1708,-267.5"/>
<text text-anchor="start" x="1716" y="-307.5" font-family="Helvetica,sans-Serif" font-size="10.00" fill="#000000">/home/travis/build</text>
<text text-anchor="start" x="1716" y="-296.5" font-family="Helvetica,sans-Serif" font-size="10.00" fill="#000000">/AliceO2Group/AliceO2</text>
<text text-anchor="start" x="1716" y="-285.5" font-family="Helvetica,sans-Serif" font-size="10.00" fill="#000000">/GPU/GPUTracking/Standalone</text>
<text text-anchor="middle" x="1789.5" y="-274.5" font-family="Helvetica,sans-Serif" font-size="10.00" fill="#000000">/standalone.cxx</text>
</a>
</g>
</g>
<!-- Node19&#45;&gt;Node37 -->
<g id="edge24" class="edge">
<title>Node19&#45;&gt;Node37</title>
<path fill="none" stroke="#191970" d="M1154.0986,-379.1757C1275.2892,-373.234 1506.4065,-357.6757 1699.5,-320 1702.2178,-319.4697 1704.9714,-318.893 1707.7443,-318.2784"/>
<polygon fill="#191970" stroke="#191970" points="1153.6064,-375.6952 1143.7858,-379.671 1153.9422,-382.6871 1153.6064,-375.6952"/>
</g>
<!-- Node38 -->
<g id="node20" class="node">
<title>Node38</title>
<g id="a_node20"><a xlink:href="../../df/d77/GPUTRDInterfaces_8h.html" target="_top" xlink:title="/home/travis/build\l/AliceO2Group/AliceO2\l/GPU/GPUTracking/TRDTracking\l/GPUTRDInterfaces.h">
<polygon fill="none" stroke="#000000" points="536,-267.5 536,-319.5 705,-319.5 705,-267.5 536,-267.5"/>
<text text-anchor="start" x="544" y="-307.5" font-family="Helvetica,sans-Serif" font-size="10.00" fill="#000000">/home/travis/build</text>
<text text-anchor="start" x="544" y="-296.5" font-family="Helvetica,sans-Serif" font-size="10.00" fill="#000000">/AliceO2Group/AliceO2</text>
<text text-anchor="start" x="544" y="-285.5" font-family="Helvetica,sans-Serif" font-size="10.00" fill="#000000">/GPU/GPUTracking/TRDTracking</text>
<text text-anchor="middle" x="620.5" y="-274.5" font-family="Helvetica,sans-Serif" font-size="10.00" fill="#000000">/GPUTRDInterfaces.h</text>
</a>
</g>
</g>
<!-- Node19&#45;&gt;Node38 -->
<g id="edge25" class="edge">
<title>Node19&#45;&gt;Node38</title>
<path fill="none" stroke="#191970" d="M987.1176,-367.7383C919.6599,-355.5823 822.2846,-337.5518 737.5,-320 726.9968,-317.8257 715.9845,-315.4537 705.093,-313.0516"/>
<polygon fill="#191970" stroke="#191970" points="986.8025,-371.2377 997.2641,-369.5631 988.0416,-364.3482 986.8025,-371.2377"/>
</g>
<!-- Node25 -->
<g id="node7" class="node">
<title>Node25</title>
<g id="a_node7"><a xlink:href="../../d9/d57/GPUTPCCompressionKernels_8cxx.html" target="_top" xlink:title="/home/travis/build\l/AliceO2Group/AliceO2\l/GPU/GPUTracking/DataCompression\l/GPUTPCCompressionKernels.cxx">
<polygon fill="none" stroke="#000000" points="1160,-178.5 1160,-230.5 1355,-230.5 1355,-178.5 1160,-178.5"/>
<text text-anchor="start" x="1168" y="-218.5" font-family="Helvetica,sans-Serif" font-size="10.00" fill="#000000">/home/travis/build</text>
<text text-anchor="start" x="1168" y="-207.5" font-family="Helvetica,sans-Serif" font-size="10.00" fill="#000000">/AliceO2Group/AliceO2</text>
<text text-anchor="start" x="1168" y="-196.5" font-family="Helvetica,sans-Serif" font-size="10.00" fill="#000000">/GPU/GPUTracking/DataCompression</text>
<text text-anchor="middle" x="1257.5" y="-185.5" font-family="Helvetica,sans-Serif" font-size="10.00" fill="#000000">/GPUTPCCompressionKernels.cxx</text>
</a>
</g>
</g>
<!-- Node24&#45;&gt;Node25 -->
<g id="edge6" class="edge">
<title>Node24&#45;&gt;Node25</title>
<path fill="none" stroke="#191970" d="M1230.9146,-258.2749C1235.4892,-249.0219 1240.3405,-239.209 1244.6292,-230.5341"/>
<polygon fill="#191970" stroke="#191970" points="1227.7578,-256.7629 1226.4635,-267.2784 1234.0328,-259.8652 1227.7578,-256.7629"/>
</g>
<!-- Node24&#45;&gt;Node26 -->
<g id="edge7" class="edge">
<title>Node24&#45;&gt;Node26</title>
<path fill="none" stroke="#191970" d="M1132.7171,-271.9094C1086.0907,-259.4477 1027.1328,-243.6902 977.9463,-230.5442"/>
<polygon fill="#191970" stroke="#191970" points="1131.9069,-275.3156 1142.4716,-274.5164 1133.7144,-268.553 1131.9069,-275.3156"/>
</g>
<!-- Node24&#45;&gt;Node27 -->
<g id="edge8" class="edge">
<title>Node24&#45;&gt;Node27</title>
<path fill="none" stroke="#191970" d="M1162.4301,-261.7152C1146.0054,-251.4929 1128.0106,-240.2933 1112.3301,-230.5341"/>
<polygon fill="#191970" stroke="#191970" points="1161.0293,-264.9659 1171.3687,-267.2784 1164.7281,-259.0229 1161.0293,-264.9659"/>
</g>
<!-- Node24&#45;&gt;Node30 -->
<g id="edge11" class="edge">
<title>Node24&#45;&gt;Node30</title>
<path fill="none" stroke="#191970" d="M1294.7075,-274.0415C1308.5833,-271.2812 1322.9055,-268.7807 1336.5,-267 1665.1898,-223.9464 1754.8031,-287.2115 2081.5,-231 2084.3304,-230.513 2087.1978,-229.9635 2090.0831,-229.3626"/>
<polygon fill="#191970" stroke="#191970" points="1293.7941,-270.6558 1284.6994,-276.0907 1295.1983,-277.5135 1293.7941,-270.6558"/>
</g>
<!-- Node31 -->
<g id="node13" class="node">
<title>Node31</title>
<g id="a_node13"><a xlink:href="../../d5/d84/GPUTPCGMSliceTrack_8cxx.html" target="_top" xlink:title="/home/travis/build\l/AliceO2Group/AliceO2\l/GPU/GPUTracking/Merger\l/GPUTPCGMSliceTrack.cxx">
<polygon fill="none" stroke="#000000" points="1373.5,-178.5 1373.5,-230.5 1517.5,-230.5 1517.5,-178.5 1373.5,-178.5"/>
<text text-anchor="start" x="1381.5" y="-218.5" font-family="Helvetica,sans-Serif" font-size="10.00" fill="#000000">/home/travis/build</text>
<text text-anchor="start" x="1381.5" y="-207.5" font-family="Helvetica,sans-Serif" font-size="10.00" fill="#000000">/AliceO2Group/AliceO2</text>
<text text-anchor="start" x="1381.5" y="-196.5" font-family="Helvetica,sans-Serif" font-size="10.00" fill="#000000">/GPU/GPUTracking/Merger</text>
<text text-anchor="middle" x="1445.5" y="-185.5" font-family="Helvetica,sans-Serif" font-size="10.00" fill="#000000">/GPUTPCGMSliceTrack.cxx</text>
</a>
</g>
</g>
<!-- Node24&#45;&gt;Node31 -->
<g id="edge12" class="edge">
<title>Node24&#45;&gt;Node31</title>
<path fill="none" stroke="#191970" d="M1290.8989,-263.8082C1318.9111,-253.0621 1350.3131,-241.0157 1377.4612,-230.6011"/>
<polygon fill="#191970" stroke="#191970" points="1289.623,-260.5489 1281.5401,-267.3984 1292.1303,-267.0845 1289.623,-260.5489"/>
</g>
<!-- Node24&#45;&gt;Node32 -->
<g id="edge14" class="edge">
<title>Node24&#45;&gt;Node32</title>
<path fill="none" stroke="#191970" d="M1294.6295,-267.7411C1295.9261,-267.4815 1297.2169,-267.2341 1298.5,-267 1566.9832,-218.0229 1643.0168,-279.9771 1911.5,-231 1914.3892,-230.4729 1917.3178,-229.8781 1920.264,-229.2286"/>
<polygon fill="#191970" stroke="#191970" points="1293.6168,-264.3803 1284.6055,-269.9522 1295.1247,-271.2159 1293.6168,-264.3803"/>
</g>
<!-- Node33 -->
<g id="node15" class="node">
<title>Node33</title>
<g id="a_node15"><a xlink:href="../../d3/ddb/GPUTPCGMTracksToTPCSeeds_8cxx.html" target="_top" xlink:title="/home/travis/build\l/AliceO2Group/AliceO2\l/GPU/GPUTracking/Merger\l/GPUTPCGMTracksToTPCSeeds.cxx">
<polygon fill="none" stroke="#000000" points="1536,-178.5 1536,-230.5 1721,-230.5 1721,-178.5 1536,-178.5"/>
<text text-anchor="start" x="1544" y="-218.5" font-family="Helvetica,sans-Serif" font-size="10.00" fill="#000000">/home/travis/build</text>
<text text-anchor="start" x="1544" y="-207.5" font-family="Helvetica,sans-Serif" font-size="10.00" fill="#000000">/AliceO2Group/AliceO2</text>
<text text-anchor="start" x="1544" y="-196.5" font-family="Helvetica,sans-Serif" font-size="10.00" fill="#000000">/GPU/GPUTracking/Merger</text>
<text text-anchor="middle" x="1628.5" y="-185.5" font-family="Helvetica,sans-Serif" font-size="10.00" fill="#000000">/GPUTPCGMTracksToTPCSeeds.cxx</text>
</a>
</g>
</g>
<!-- Node24&#45;&gt;Node33 -->
<g id="edge16" class="edge">
<title>Node24&#45;&gt;Node33</title>
<path fill="none" stroke="#191970" d="M1294.6659,-267.9165C1295.9513,-267.6024 1297.2299,-267.2966 1298.5,-267 1398.401,-243.6712 1426.0676,-251.9232 1526.5,-231 1529.545,-230.3656 1532.6353,-229.6987 1535.7516,-229.0062"/>
<polygon fill="#191970" stroke="#191970" points="1293.5288,-264.5949 1284.7135,-270.472 1295.2698,-271.3749 1293.5288,-264.5949"/>
</g>
<!-- Node34 -->
<g id="node16" class="node">
<title>Node34</title>
<g id="a_node16"><a xlink:href="../../d7/d9f/genEvents_8cxx.html" target="_top" xlink:title="/home/travis/build\l/AliceO2Group/AliceO2\l/GPU/GPUTracking/Standalone\l/qa/genEvents.cxx">
<polygon fill="none" stroke="#000000" points="1739,-178.5 1739,-230.5 1902,-230.5 1902,-178.5 1739,-178.5"/>
<text text-anchor="start" x="1747" y="-218.5" font-family="Helvetica,sans-Serif" font-size="10.00" fill="#000000">/home/travis/build</text>
<text text-anchor="start" x="1747" y="-207.5" font-family="Helvetica,sans-Serif" font-size="10.00" fill="#000000">/AliceO2Group/AliceO2</text>
<text text-anchor="start" x="1747" y="-196.5" font-family="Helvetica,sans-Serif" font-size="10.00" fill="#000000">/GPU/GPUTracking/Standalone</text>
<text text-anchor="middle" x="1820.5" y="-185.5" font-family="Helvetica,sans-Serif" font-size="10.00" fill="#000000">/qa/genEvents.cxx</text>
</a>
</g>
</g>
<!-- Node24&#45;&gt;Node34 -->
<g id="edge17" class="edge">
<title>Node24&#45;&gt;Node34</title>
<path fill="none" stroke="#191970" d="M1294.6378,-267.7851C1295.9319,-267.5118 1297.2199,-267.2497 1298.5,-267 1487.6002,-230.1069 1541.1131,-266.3922 1730.5,-231 1733.2219,-230.4913 1735.9791,-229.9334 1738.7551,-229.3349"/>
<polygon fill="#191970" stroke="#191970" points="1293.5934,-264.4338 1284.6301,-270.0826 1295.1597,-271.2563 1293.5934,-264.4338"/>
</g>
<!-- Node28 -->
<g id="node10" class="node">
<title>Node28</title>
<g id="a_node10"><a xlink:href="../../d0/d25/GPUReconstructionIncludesDevice_8h.html" target="_top" xlink:title="/home/travis/build\l/AliceO2Group/AliceO2\l/GPU/GPUTracking/Base\l/GPUReconstructionIncludesDevice.h">
<polygon fill="none" stroke="#000000" points="1347.5,-89.5 1347.5,-141.5 1543.5,-141.5 1543.5,-89.5 1347.5,-89.5"/>
<text text-anchor="start" x="1355.5" y="-129.5" font-family="Helvetica,sans-Serif" font-size="10.00" fill="#000000">/home/travis/build</text>
<text text-anchor="start" x="1355.5" y="-118.5" font-family="Helvetica,sans-Serif" font-size="10.00" fill="#000000">/AliceO2Group/AliceO2</text>
<text text-anchor="start" x="1355.5" y="-107.5" font-family="Helvetica,sans-Serif" font-size="10.00" fill="#000000">/GPU/GPUTracking/Base</text>
<text text-anchor="middle" x="1445.5" y="-96.5" font-family="Helvetica,sans-Serif" font-size="10.00" fill="#000000">/GPUReconstructionIncludesDevice.h</text>
</a>
</g>
</g>
<!-- Node27&#45;&gt;Node28 -->
<g id="edge9" class="edge">
<title>Node27&#45;&gt;Node28</title>
<path fill="none" stroke="#191970" d="M1151.9238,-177.9965C1222.7108,-159.2151 1292.3663,-144.4531 1347.2107,-133.6687"/>
<polygon fill="#191970" stroke="#191970" points="1150.6834,-174.7053 1141.9293,-180.6733 1152.4944,-181.4669 1150.6834,-174.7053"/>
</g>
<!-- Node29 -->
<g id="node11" class="node">
<title>Node29</title>
<g id="a_node11"><a xlink:href="../../d3/d33/GPUReconstructionHIP_8hip_8cxx.html" target="_top" xlink:title="/home/travis/build\l/AliceO2Group/AliceO2\l/GPU/GPUTracking/Base\l/hip/GPUReconstructionHIP.hip.cxx">
<polygon fill="none" stroke="#000000" points="1353.5,-.5 1353.5,-52.5 1537.5,-52.5 1537.5,-.5 1353.5,-.5"/>
<text text-anchor="start" x="1361.5" y="-40.5" font-family="Helvetica,sans-Serif" font-size="10.00" fill="#000000">/home/travis/build</text>
<text text-anchor="start" x="1361.5" y="-29.5" font-family="Helvetica,sans-Serif" font-size="10.00" fill="#000000">/AliceO2Group/AliceO2</text>
<text text-anchor="start" x="1361.5" y="-18.5" font-family="Helvetica,sans-Serif" font-size="10.00" fill="#000000">/GPU/GPUTracking/Base</text>
<text text-anchor="middle" x="1445.5" y="-7.5" font-family="Helvetica,sans-Serif" font-size="10.00" fill="#000000">/hip/GPUReconstructionHIP.hip.cxx</text>
</a>
</g>
</g>
<!-- Node28&#45;&gt;Node29 -->
<g id="edge10" class="edge">
<title>Node28&#45;&gt;Node29</title>
<path fill="none" stroke="#191970" d="M1445.5,-79.1155C1445.5,-70.2061 1445.5,-60.8475 1445.5,-52.5341"/>
<polygon fill="#191970" stroke="#191970" points="1442.0001,-79.2784 1445.5,-89.2784 1449.0001,-79.2785 1442.0001,-79.2784"/>
</g>
<!-- Node31&#45;&gt;Node28 -->
<g id="edge13" class="edge">
<title>Node31&#45;&gt;Node28</title>
<path fill="none" stroke="#191970" d="M1445.5,-168.1155C1445.5,-159.2061 1445.5,-149.8475 1445.5,-141.5341"/>
<polygon fill="#191970" stroke="#191970" points="1442.0001,-168.2784 1445.5,-178.2784 1449.0001,-168.2785 1442.0001,-168.2784"/>
</g>
<!-- Node32&#45;&gt;Node28 -->
<g id="edge15" class="edge">
<title>Node32&#45;&gt;Node28</title>
<path fill="none" stroke="#191970" d="M1910.3539,-177.8858C1778.8049,-149.3859 1636.1997,-132.7444 1543.6268,-123.8016"/>
<polygon fill="#191970" stroke="#191970" points="1909.6905,-181.3234 1920.2082,-180.0478 1911.1906,-174.486 1909.6905,-181.3234"/>
</g>
<!-- Node39 -->
<g id="node21" class="node">
<title>Node39</title>
<g id="a_node21"><a xlink:href="../../db/dca/GPUTRDTrack_8h.html" target="_top" xlink:title="/home/travis/build\l/AliceO2Group/AliceO2\l/GPU/GPUTracking/TRDTracking\l/GPUTRDTrack.h">
<polygon fill="none" stroke="#000000" points="517,-178.5 517,-230.5 686,-230.5 686,-178.5 517,-178.5"/>
<text text-anchor="start" x="525" y="-218.5" font-family="Helvetica,sans-Serif" font-size="10.00" fill="#000000">/home/travis/build</text>
<text text-anchor="start" x="525" y="-207.5" font-family="Helvetica,sans-Serif" font-size="10.00" fill="#000000">/AliceO2Group/AliceO2</text>
<text text-anchor="start" x="525" y="-196.5" font-family="Helvetica,sans-Serif" font-size="10.00" fill="#000000">/GPU/GPUTracking/TRDTracking</text>
<text text-anchor="middle" x="601.5" y="-185.5" font-family="Helvetica,sans-Serif" font-size="10.00" fill="#000000">/GPUTRDTrack.h</text>
</a>
</g>
</g>
<!-- Node38&#45;&gt;Node39 -->
<g id="edge26" class="edge">
<title>Node38&#45;&gt;Node39</title>
<path fill="none" stroke="#191970" d="M612.7945,-257.4059C610.874,-248.4097 608.8519,-238.9379 607.0579,-230.5341"/>
<polygon fill="#191970" stroke="#191970" points="609.3914,-258.2296 614.9021,-267.2784 616.2371,-256.7681 609.3914,-258.2296"/>
</g>
<!-- Node39&#45;&gt;Node21 -->
<g id="edge27" class="edge">
<title>Node39&#45;&gt;Node21</title>
<path fill="none" stroke="#191970" d="M506.7456,-193.0473C427.1005,-182.1272 320.5037,-164.0944 283.5,-142 247.1637,-120.3042 218.5854,-79.4117 202.6169,-52.564"/>
<polygon fill="#191970" stroke="#191970" points="506.4303,-196.5364 516.8094,-194.4091 507.3691,-189.5997 506.4303,-196.5364"/>
</g>
<!-- Node39&#45;&gt;Node22 -->
<g id="edge28" class="edge">
<title>Node39&#45;&gt;Node22</title>
<path fill="none" stroke="#191970" d="M546.1962,-172.7087C532.7759,-163.6911 518.9957,-153.2378 507.5,-142 486.9573,-121.9181 491.984,-108.0715 470.5,-89 454.3111,-74.6291 434.2362,-62.3851 415.3118,-52.6437"/>
<polygon fill="#191970" stroke="#191970" points="544.6502,-175.8795 554.9357,-178.421 548.4801,-170.0201 544.6502,-175.8795"/>
</g>
<!-- Node39&#45;&gt;Node23 -->
<g id="edge29" class="edge">
<title>Node39&#45;&gt;Node23</title>
<path fill="none" stroke="#191970" d="M666.4282,-173.6437C683.8824,-164.3351 702.3778,-153.5058 718.5,-142 746.6574,-121.9051 747.4151,-109.1961 775.5,-89 794.2253,-75.5345 816.18,-62.9217 835.8597,-52.6022"/>
<polygon fill="#191970" stroke="#191970" points="664.6461,-170.6261 657.4138,-178.3685 667.8957,-176.8261 664.6461,-170.6261"/>
</g>
<!-- Node40 -->
<g id="node22" class="node">
<title>Node40</title>
<g id="a_node22"><a xlink:href="../../d0/d7f/GPUTRDTrack_8cxx.html" target="_top" xlink:title="/home/travis/build\l/AliceO2Group/AliceO2\l/GPU/GPUTracking/TRDTracking\l/GPUTRDTrack.cxx">
<polygon fill="none" stroke="#000000" points="293,-89.5 293,-141.5 462,-141.5 462,-89.5 293,-89.5"/>
<text text-anchor="start" x="301" y="-129.5" font-family="Helvetica,sans-Serif" font-size="10.00" fill="#000000">/home/travis/build</text>
<text text-anchor="start" x="301" y="-118.5" font-family="Helvetica,sans-Serif" font-size="10.00" fill="#000000">/AliceO2Group/AliceO2</text>
<text text-anchor="start" x="301" y="-107.5" font-family="Helvetica,sans-Serif" font-size="10.00" fill="#000000">/GPU/GPUTracking/TRDTracking</text>
<text text-anchor="middle" x="377.5" y="-96.5" font-family="Helvetica,sans-Serif" font-size="10.00" fill="#000000">/GPUTRDTrack.cxx</text>
</a>
</g>
</g>
<!-- Node39&#45;&gt;Node40 -->
<g id="edge30" class="edge">
<title>Node39&#45;&gt;Node40</title>
<path fill="none" stroke="#191970" d="M526.4171,-174.6679C499.4602,-163.9574 469.2907,-151.9704 443.1927,-141.6011"/>
<polygon fill="#191970" stroke="#191970" points="525.2204,-177.9586 535.8061,-178.3984 527.8052,-171.4533 525.2204,-177.9586"/>
</g>
<!-- Node41 -->
<g id="node23" class="node">
<title>Node41</title>
<g id="a_node23"><a xlink:href="../../dd/d44/GPUTRDTracker_8h.html" target="_top" xlink:title="Online TRD tracker based on extrapolated TPC tracks. ">
<polygon fill="none" stroke="#000000" points="517,-89.5 517,-141.5 686,-141.5 686,-89.5 517,-89.5"/>
<text text-anchor="start" x="525" y="-129.5" font-family="Helvetica,sans-Serif" font-size="10.00" fill="#000000">/home/travis/build</text>
<text text-anchor="start" x="525" y="-118.5" font-family="Helvetica,sans-Serif" font-size="10.00" fill="#000000">/AliceO2Group/AliceO2</text>
<text text-anchor="start" x="525" y="-107.5" font-family="Helvetica,sans-Serif" font-size="10.00" fill="#000000">/GPU/GPUTracking/TRDTracking</text>
<text text-anchor="middle" x="601.5" y="-96.5" font-family="Helvetica,sans-Serif" font-size="10.00" fill="#000000">/GPUTRDTracker.h</text>
</a>
</g>
</g>
<!-- Node39&#45;&gt;Node41 -->
<g id="edge31" class="edge">
<title>Node39&#45;&gt;Node41</title>
<path fill="none" stroke="#191970" d="M601.5,-168.1155C601.5,-159.2061 601.5,-149.8475 601.5,-141.5341"/>
<polygon fill="#191970" stroke="#191970" points="598.0001,-168.2784 601.5,-178.2784 605.0001,-168.2785 598.0001,-168.2784"/>
</g>
<!-- Node43 -->
<g id="node25" class="node">
<title>Node43</title>
<g id="a_node25"><a xlink:href="../../db/dd1/GPUTRDTrackerComponent_8cxx.html" target="_top" xlink:title="A TRD tracker processing component for the GPU. ">
<polygon fill="none" stroke="#000000" points="629,-.5 629,-52.5 802,-52.5 802,-.5 629,-.5"/>
<text text-anchor="start" x="637" y="-40.5" font-family="Helvetica,sans-Serif" font-size="10.00" fill="#000000">/home/travis/build</text>
<text text-anchor="start" x="637" y="-29.5" font-family="Helvetica,sans-Serif" font-size="10.00" fill="#000000">/AliceO2Group/AliceO2</text>
<text text-anchor="start" x="637" y="-18.5" font-family="Helvetica,sans-Serif" font-size="10.00" fill="#000000">/GPU/GPUTracking/TRDTracking</text>
<text text-anchor="middle" x="715.5" y="-7.5" font-family="Helvetica,sans-Serif" font-size="10.00" fill="#000000">/GPUTRDTrackerComponent.cxx</text>
</a>
</g>
</g>
<!-- Node39&#45;&gt;Node43 -->
<g id="edge37" class="edge">
<title>Node39&#45;&gt;Node43</title>
<path fill="none" stroke="#191970" d="M664.4813,-172.3619C675.993,-163.909 686.7855,-153.7885 694.5,-142 712.0214,-115.2256 715.9501,-77.8505 716.3683,-52.9474"/>
<polygon fill="#191970" stroke="#191970" points="662.2404,-169.6561 656.0056,-178.2222 666.2215,-175.4139 662.2404,-169.6561"/>
</g>
<!-- Node41&#45;&gt;Node21 -->
<g id="edge32" class="edge">
<title>Node41&#45;&gt;Node21</title>
<path fill="none" stroke="#191970" d="M507.1444,-96.2022C494.8242,-93.7443 482.3652,-91.2896 470.5,-89 383.536,-72.2189 360.5239,-74.0768 274.5,-53 271.4651,-52.2564 268.3795,-51.4673 265.2697,-50.6442"/>
<polygon fill="#191970" stroke="#191970" points="506.4887,-99.6403 516.9811,-98.171 507.8625,-92.7764 506.4887,-99.6403"/>
</g>
<!-- Node41&#45;&gt;Node22 -->
<g id="edge33" class="edge">
<title>Node41&#45;&gt;Node22</title>
<path fill="none" stroke="#191970" d="M519.2952,-85.9991C488.3335,-74.8878 453.4349,-62.3637 423.6707,-51.6822"/>
<polygon fill="#191970" stroke="#191970" points="518.173,-89.3149 528.7675,-89.3984 520.5375,-82.7263 518.173,-89.3149"/>
</g>
<!-- Node41&#45;&gt;Node23 -->
<g id="edge34" class="edge">
<title>Node41&#45;&gt;Node23</title>
<path fill="none" stroke="#191970" d="M696.0557,-87.8622C731.964,-77.1991 773.19,-64.7553 810.5,-53 813.7096,-51.9887 816.9882,-50.9453 820.2976,-49.8836"/>
<polygon fill="#191970" stroke="#191970" points="694.6692,-84.6226 686.0763,-90.8205 696.6587,-91.3339 694.6692,-84.6226"/>
</g>
<!-- Node42 -->
<g id="node24" class="node">
<title>Node42</title>
<g id="a_node24"><a xlink:href="../../d9/d33/GPUTRDTracker_8cxx.html" target="_top" xlink:title="/home/travis/build\l/AliceO2Group/AliceO2\l/GPU/GPUTracking/TRDTracking\l/GPUTRDTracker.cxx">
<polygon fill="none" stroke="#000000" points="442,-.5 442,-52.5 611,-52.5 611,-.5 442,-.5"/>
<text text-anchor="start" x="450" y="-40.5" font-family="Helvetica,sans-Serif" font-size="10.00" fill="#000000">/home/travis/build</text>
<text text-anchor="start" x="450" y="-29.5" font-family="Helvetica,sans-Serif" font-size="10.00" fill="#000000">/AliceO2Group/AliceO2</text>
<text text-anchor="start" x="450" y="-18.5" font-family="Helvetica,sans-Serif" font-size="10.00" fill="#000000">/GPU/GPUTracking/TRDTracking</text>
<text text-anchor="middle" x="526.5" y="-7.5" font-family="Helvetica,sans-Serif" font-size="10.00" fill="#000000">/GPUTRDTracker.cxx</text>
</a>
</g>
</g>
<!-- Node41&#45;&gt;Node42 -->
<g id="edge35" class="edge">
<title>Node41&#45;&gt;Node42</title>
<path fill="none" stroke="#191970" d="M572.7881,-81.4285C564.7092,-71.8416 556.0537,-61.5704 548.4389,-52.5341"/>
<polygon fill="#191970" stroke="#191970" points="570.2827,-83.8869 579.4032,-89.2784 575.6356,-79.3761 570.2827,-83.8869"/>
</g>
<!-- Node41&#45;&gt;Node43 -->
<g id="edge36" class="edge">
<title>Node41&#45;&gt;Node43</title>
<path fill="none" stroke="#191970" d="M643.307,-82.8612C656.1024,-72.8718 669.9996,-62.0222 682.1529,-52.5341"/>
<polygon fill="#191970" stroke="#191970" points="640.8157,-80.3658 635.0872,-89.2784 645.1234,-85.8835 640.8157,-80.3658"/>
</g>
</g>
</svg>
        <g id="navigator" transform="translate(0 0)" fill="#404254">
                <rect fill="#f2f5e9" fill-opacity="0.5" stroke="#606060" stroke-width=".5" x="0" y="0" width="60" height="60"/>
                <use id="zoomplus" xlink:href="#zoomPlus" x="17" y="9" onmousedown="handleZoom(evt,'in')"/>
                <use id="zoomminus" xlink:href="#zoomMin" x="42" y="9" onmousedown="handleZoom(evt,'out')"/>
                <use id="reset" xlink:href="#resetDef" x="30" y="36" onmousedown="handleReset()"/>
                <g id="arrowUp" xlink:href="#dirArrow" transform="translate(30 24)" onmousedown="handlePan(0,-1)">
                  <use xlink:href="#rim" fill="#404040">
                        <set attributeName="fill" to="#808080" begin="arrowUp.mouseover" end="arrowUp.mouseout"/>
                  </use>
                  <path fill="none" stroke="white" stroke-width="1.5" d="M0,-3.0v7 M-2.5,-0.5L0,-3.0L2.5,-0.5"/>
                </g>
                <g id="arrowRight" xlink:href="#dirArrow" transform="rotate(90) translate(36 -43)" onmousedown="handlePan(1,0)">
                  <use xlink:href="#rim" fill="#404040">
                        <set attributeName="fill" to="#808080" begin="arrowRight.mouseover" end="arrowRight.mouseout"/>
                  </use>
                  <path fill="none" stroke="white" stroke-width="1.5" d="M0,-3.0v7 M-2.5,-0.5L0,-3.0L2.5,-0.5"/>
                </g>
                <g id="arrowDown" xlink:href="#dirArrow" transform="rotate(180) translate(-30 -48)" onmousedown="handlePan(0,1)">
                  <use xlink:href="#rim" fill="#404040">
                        <set attributeName="fill" to="#808080" begin="arrowDown.mouseover" end="arrowDown.mouseout"/>
                  </use>
                  <path fill="none" stroke="white" stroke-width="1.5" d="M0,-3.0v7 M-2.5,-0.5L0,-3.0L2.5,-0.5"/>
                </g>
                <g id="arrowLeft" xlink:href="#dirArrow" transform="rotate(270) translate(-36 17)" onmousedown="handlePan(-1,0)">
                  <use xlink:href="#rim" fill="#404040">
                        <set attributeName="fill" to="#808080" begin="arrowLeft.mouseover" end="arrowLeft.mouseout"/>
                  </use>
                  <path fill="none" stroke="white" stroke-width="1.5" d="M0,-3.0v7 M-2.5,-0.5L0,-3.0L2.5,-0.5"/>
                </g>
        </g>
        <svg viewBox="0 0 15 15" width="100%" height="30px" preserveAspectRatio="xMaxYMin meet">
         <g id="arrow_out" transform="scale(0.3 0.3)">
          <a xlink:href="GPUTPCGMMergedTrack_8h__dep__incl_org.svg" target="_base">
           <rect id="button" ry="5" rx="5" y="6" x="6" height="38" width="38"
                fill="#f2f5e9" fill-opacity="0.5" stroke="#606060" stroke-width="1.0"/>
           <path id="arrow"
             d="M 11.500037,31.436501 C 11.940474,20.09759 22.043105,11.32322 32.158766,21.979434 L 37.068811,17.246167 C 37.068811,17.246167 37.088388,32 37.088388,32 L 22.160133,31.978069 C 22.160133,31.978069 26.997745,27.140456 26.997745,27.140456 C 18.528582,18.264221 13.291696,25.230495 11.500037,31.436501 z"
             style="fill:#404040;"/>
          </a>
         </g>
        </svg>
</svg>
