<?xml version="1.0" encoding="UTF-8" standalone="no"?>
<!DOCTYPE svg PUBLIC "-//W3C//DTD SVG 1.1//EN"
 "http://www.w3.org/Graphics/SVG/1.1/DTD/svg11.dtd">
<!-- Generated by graphviz version 2.40.1 (20161225.0304)
 -->
<!-- Title: /home/travis/build/AliceO2Group/AliceO2/Analysis/DataModel/include/Analysis/TrackSelectionTables.h Pages: 1 -->
<svg width="3454pt" height="150pt"
 viewBox="0.00 0.00 3454.00 150.00" xmlns="http://www.w3.org/2000/svg" xmlns:xlink="http://www.w3.org/1999/xlink">
<g id="graph0" class="graph" transform="scale(1 1) rotate(0) translate(4 146)">
<title>/home/travis/build/AliceO2Group/AliceO2/Analysis/DataModel/include/Analysis/TrackSelectionTables.h</title>
<!-- Node67 -->
<g id="node1" class="node">
<title>Node67</title>
<polygon fill="#bfbfbf" stroke="#000000" points="1570,-89.5 1570,-141.5 1744,-141.5 1744,-89.5 1570,-89.5"/>
<text text-anchor="start" x="1578" y="-129.5" font-family="Helvetica,sans-Serif" font-size="10.00" fill="#000000">/home/travis/build</text>
<text text-anchor="start" x="1578" y="-118.5" font-family="Helvetica,sans-Serif" font-size="10.00" fill="#000000">/AliceO2Group/AliceO2</text>
<text text-anchor="start" x="1578" y="-107.5" font-family="Helvetica,sans-Serif" font-size="10.00" fill="#000000">/Analysis/DataModel/include</text>
<text text-anchor="middle" x="1657" y="-96.5" font-family="Helvetica,sans-Serif" font-size="10.00" fill="#000000">/Analysis/TrackSelectionTables.h</text>
</g>
<!-- Node68 -->
<g id="node2" class="node">
<title>Node68</title>
<g id="a_node2"><a xlink:href="../../d5/d51/aodDataModelGraph_8cxx.html" target="_top" xlink:title="/home/travis/build\l/AliceO2Group/AliceO2\l/Analysis/DataModel/src\l/aodDataModelGraph.cxx">
<polygon fill="none" stroke="#000000" points="0,-.5 0,-52.5 140,-52.5 140,-.5 0,-.5"/>
<text text-anchor="start" x="8" y="-40.5" font-family="Helvetica,sans-Serif" font-size="10.00" fill="#000000">/home/travis/build</text>
<text text-anchor="start" x="8" y="-29.5" font-family="Helvetica,sans-Serif" font-size="10.00" fill="#000000">/AliceO2Group/AliceO2</text>
<text text-anchor="start" x="8" y="-18.5" font-family="Helvetica,sans-Serif" font-size="10.00" fill="#000000">/Analysis/DataModel/src</text>
<text text-anchor="middle" x="70" y="-7.5" font-family="Helvetica,sans-Serif" font-size="10.00" fill="#000000">/aodDataModelGraph.cxx</text>
</a>
</g>
</g>
<!-- Node67&#45;&gt;Node68 -->
<g id="edge1" class="edge">
<title>Node67&#45;&gt;Node68</title>
<path fill="none" stroke="#191970" d="M1559.8013,-115.0437C1270.9829,-113.1231 421.1652,-103.2389 149,-53 146.1548,-52.4748 143.272,-51.8699 140.3748,-51.201"/>
<polygon fill="#191970" stroke="#191970" points="1559.8145,-118.5437 1569.837,-115.1087 1559.8599,-111.5439 1559.8145,-118.5437"/>
</g>
<!-- Node69 -->
<g id="node3" class="node">
<title>Node69</title>
<g id="a_node3"><a xlink:href="../../d0/df9/alice3-trackselection_8cxx.html" target="_top" xlink:title="/home/travis/build\l/AliceO2Group/AliceO2\l/Analysis/Tasks/ALICE3\l/alice3&#45;trackselection.cxx">
<polygon fill="none" stroke="#000000" points="158,-.5 158,-52.5 300,-52.5 300,-.5 158,-.5"/>
<text text-anchor="start" x="166" y="-40.5" font-family="Helvetica,sans-Serif" font-size="10.00" fill="#000000">/home/travis/build</text>
<text text-anchor="start" x="166" y="-29.5" font-family="Helvetica,sans-Serif" font-size="10.00" fill="#000000">/AliceO2Group/AliceO2</text>
<text text-anchor="start" x="166" y="-18.5" font-family="Helvetica,sans-Serif" font-size="10.00" fill="#000000">/Analysis/Tasks/ALICE3</text>
<text text-anchor="middle" x="229" y="-7.5" font-family="Helvetica,sans-Serif" font-size="10.00" fill="#000000">/alice3&#45;trackselection.cxx</text>
</a>
</g>
</g>
<!-- Node67&#45;&gt;Node69 -->
<g id="edge2" class="edge">
<title>Node67&#45;&gt;Node69</title>
<path fill="none" stroke="#191970" d="M1559.5873,-114.4336C1291.8993,-110.9541 549.0896,-97.4591 309,-53 306.1227,-52.4672 303.2067,-51.8559 300.2756,-51.1816"/>
<polygon fill="#191970" stroke="#191970" points="1559.6317,-117.9344 1569.6758,-114.5629 1559.7215,-110.935 1559.6317,-117.9344"/>
</g>
<!-- Node70 -->
<g id="node4" class="node">
<title>Node70</title>
<g id="a_node4"><a xlink:href="../../d9/d61/correlations_8cxx.html" target="_top" xlink:title="/home/travis/build\l/AliceO2Group/AliceO2\l/Analysis/Tasks/PWGCF\l/correlations.cxx">
<polygon fill="none" stroke="#000000" points="318.5,-.5 318.5,-52.5 447.5,-52.5 447.5,-.5 318.5,-.5"/>
<text text-anchor="start" x="326.5" y="-40.5" font-family="Helvetica,sans-Serif" font-size="10.00" fill="#000000">/home/travis/build</text>
<text text-anchor="start" x="326.5" y="-29.5" font-family="Helvetica,sans-Serif" font-size="10.00" fill="#000000">/AliceO2Group/AliceO2</text>
<text text-anchor="start" x="326.5" y="-18.5" font-family="Helvetica,sans-Serif" font-size="10.00" fill="#000000">/Analysis/Tasks/PWGCF</text>
<text text-anchor="middle" x="383" y="-7.5" font-family="Helvetica,sans-Serif" font-size="10.00" fill="#000000">/correlations.cxx</text>
</a>
</g>
</g>
<!-- Node67&#45;&gt;Node70 -->
<g id="edge3" class="edge">
<title>Node67&#45;&gt;Node70</title>
<path fill="none" stroke="#191970" d="M1559.9629,-114.0862C1313.3404,-109.9096 667.1931,-95.1616 457,-53 453.9227,-52.3827 450.801,-51.6625 447.6678,-50.8627"/>
<polygon fill="#191970" stroke="#191970" points="1559.9288,-117.586 1569.986,-114.2538 1560.046,-110.587 1559.9288,-117.586"/>
</g>
<!-- Node71 -->
<g id="node5" class="node">
<title>Node71</title>
<g id="a_node5"><a xlink:href="../../d8/dc5/correlationsFiltered_8cxx.html" target="_top" xlink:title="/home/travis/build\l/AliceO2Group/AliceO2\l/Analysis/Tasks/PWGCF\l/correlationsFiltered.cxx">
<polygon fill="none" stroke="#000000" points="466,-.5 466,-52.5 600,-52.5 600,-.5 466,-.5"/>
<text text-anchor="start" x="474" y="-40.5" font-family="Helvetica,sans-Serif" font-size="10.00" fill="#000000">/home/travis/build</text>
<text text-anchor="start" x="474" y="-29.5" font-family="Helvetica,sans-Serif" font-size="10.00" fill="#000000">/AliceO2Group/AliceO2</text>
<text text-anchor="start" x="474" y="-18.5" font-family="Helvetica,sans-Serif" font-size="10.00" fill="#000000">/Analysis/Tasks/PWGCF</text>
<text text-anchor="middle" x="533" y="-7.5" font-family="Helvetica,sans-Serif" font-size="10.00" fill="#000000">/correlationsFiltered.cxx</text>
</a>
</g>
</g>
<!-- Node67&#45;&gt;Node71 -->
<g id="edge4" class="edge">
<title>Node67&#45;&gt;Node71</title>
<path fill="none" stroke="#191970" d="M1559.7156,-113.1218C1335.7639,-107.0929 789.1984,-89.0657 609,-53 606.1226,-52.4241 603.2059,-51.7644 600.2757,-51.0384"/>
<polygon fill="#191970" stroke="#191970" points="1559.7206,-116.6231 1569.8105,-113.3913 1559.9075,-109.6255 1559.7206,-116.6231"/>
</g>
<!-- Node72 -->
<g id="node6" class="node">
<title>Node72</title>
<g id="a_node6"><a xlink:href="../../d4/d39/correlationsMixed_8cxx.html" target="_top" xlink:title="/home/travis/build\l/AliceO2Group/AliceO2\l/Analysis/Tasks/PWGCF\l/correlationsMixed.cxx">
<polygon fill="none" stroke="#000000" points="618.5,-.5 618.5,-52.5 747.5,-52.5 747.5,-.5 618.5,-.5"/>
<text text-anchor="start" x="626.5" y="-40.5" font-family="Helvetica,sans-Serif" font-size="10.00" fill="#000000">/home/travis/build</text>
<text text-anchor="start" x="626.5" y="-29.5" font-family="Helvetica,sans-Serif" font-size="10.00" fill="#000000">/AliceO2Group/AliceO2</text>
<text text-anchor="start" x="626.5" y="-18.5" font-family="Helvetica,sans-Serif" font-size="10.00" fill="#000000">/Analysis/Tasks/PWGCF</text>
<text text-anchor="middle" x="683" y="-7.5" font-family="Helvetica,sans-Serif" font-size="10.00" fill="#000000">/correlationsMixed.cxx</text>
</a>
</g>
</g>
<!-- Node67&#45;&gt;Node72 -->
<g id="edge5" class="edge">
<title>Node67&#45;&gt;Node72</title>
<path fill="none" stroke="#191970" d="M1559.413,-112.1654C1358.9714,-104.7538 907.0571,-84.9975 756,-53 753.2301,-52.4133 750.4233,-51.7445 747.6045,-51.011"/>
<polygon fill="#191970" stroke="#191970" points="1559.5156,-115.6714 1569.6373,-112.5408 1559.7725,-108.6762 1559.5156,-115.6714"/>
</g>
<!-- Node73 -->
<g id="node7" class="node">
<title>Node73</title>
<g id="a_node7"><a xlink:href="../../dc/db0/dptdptcorrelations_8cxx.html" target="_top" xlink:title="/home/travis/build\l/AliceO2Group/AliceO2\l/Analysis/Tasks/PWGCF\l/dptdptcorrelations.cxx">
<polygon fill="none" stroke="#000000" points="765.5,-.5 765.5,-52.5 894.5,-52.5 894.5,-.5 765.5,-.5"/>
<text text-anchor="start" x="773.5" y="-40.5" font-family="Helvetica,sans-Serif" font-size="10.00" fill="#000000">/home/travis/build</text>
<text text-anchor="start" x="773.5" y="-29.5" font-family="Helvetica,sans-Serif" font-size="10.00" fill="#000000">/AliceO2Group/AliceO2</text>
<text text-anchor="start" x="773.5" y="-18.5" font-family="Helvetica,sans-Serif" font-size="10.00" fill="#000000">/Analysis/Tasks/PWGCF</text>
<text text-anchor="middle" x="830" y="-7.5" font-family="Helvetica,sans-Serif" font-size="10.00" fill="#000000">/dptdptcorrelations.cxx</text>
</a>
</g>
</g>
<!-- Node67&#45;&gt;Node73 -->
<g id="edge6" class="edge">
<title>Node67&#45;&gt;Node73</title>
<path fill="none" stroke="#191970" d="M1559.7456,-110.6552C1385.2052,-101.4256 1025.5846,-79.8287 903,-53 900.2341,-52.3947 897.4307,-51.7103 894.6146,-50.964"/>
<polygon fill="#191970" stroke="#191970" points="1559.7825,-114.1619 1569.9526,-111.192 1560.1502,-107.1716 1559.7825,-114.1619"/>
</g>
<!-- Node74 -->
<g id="node8" class="node">
<title>Node74</title>
<g id="a_node8"><a xlink:href="../../d9/d63/filterCF_8cxx.html" target="_top" xlink:title="/home/travis/build\l/AliceO2Group/AliceO2\l/Analysis/Tasks/PWGCF\l/filterCF.cxx">
<polygon fill="none" stroke="#000000" points="912.5,-.5 912.5,-52.5 1041.5,-52.5 1041.5,-.5 912.5,-.5"/>
<text text-anchor="start" x="920.5" y="-40.5" font-family="Helvetica,sans-Serif" font-size="10.00" fill="#000000">/home/travis/build</text>
<text text-anchor="start" x="920.5" y="-29.5" font-family="Helvetica,sans-Serif" font-size="10.00" fill="#000000">/AliceO2Group/AliceO2</text>
<text text-anchor="start" x="920.5" y="-18.5" font-family="Helvetica,sans-Serif" font-size="10.00" fill="#000000">/Analysis/Tasks/PWGCF</text>
<text text-anchor="middle" x="977" y="-7.5" font-family="Helvetica,sans-Serif" font-size="10.00" fill="#000000">/filterCF.cxx</text>
</a>
</g>
</g>
<!-- Node67&#45;&gt;Node74 -->
<g id="edge7" class="edge">
<title>Node67&#45;&gt;Node74</title>
<path fill="none" stroke="#191970" d="M1559.5615,-112.665C1438.8451,-107.5091 1227.5105,-93.088 1051,-53 1047.9393,-52.3049 1044.8313,-51.5208 1041.7091,-50.6692"/>
<polygon fill="#191970" stroke="#191970" points="1559.7462,-116.1755 1569.8826,-113.0926 1560.0361,-109.1815 1559.7462,-116.1755"/>
</g>
<!-- Node75 -->
<g id="node9" class="node">
<title>Node75</title>
<g id="a_node9"><a xlink:href="../../d9/d14/tableMaker_8cxx.html" target="_top" xlink:title="/home/travis/build\l/AliceO2Group/AliceO2\l/Analysis/Tasks/PWGDQ\l/tableMaker.cxx">
<polygon fill="none" stroke="#000000" points="1060,-.5 1060,-52.5 1192,-52.5 1192,-.5 1060,-.5"/>
<text text-anchor="start" x="1068" y="-40.5" font-family="Helvetica,sans-Serif" font-size="10.00" fill="#000000">/home/travis/build</text>
<text text-anchor="start" x="1068" y="-29.5" font-family="Helvetica,sans-Serif" font-size="10.00" fill="#000000">/AliceO2Group/AliceO2</text>
<text text-anchor="start" x="1068" y="-18.5" font-family="Helvetica,sans-Serif" font-size="10.00" fill="#000000">/Analysis/Tasks/PWGDQ</text>
<text text-anchor="middle" x="1126" y="-7.5" font-family="Helvetica,sans-Serif" font-size="10.00" fill="#000000">/tableMaker.cxx</text>
</a>
</g>
</g>
<!-- Node67&#45;&gt;Node75 -->
<g id="edge8" class="edge">
<title>Node67&#45;&gt;Node75</title>
<path fill="none" stroke="#191970" d="M1559.9086,-107.9589C1466.857,-99.3822 1322.9415,-82.5733 1201,-53 1198.0474,-52.2839 1195.0485,-51.4953 1192.0329,-50.6517"/>
<polygon fill="#191970" stroke="#191970" points="1559.5986,-111.445 1569.8742,-108.8638 1560.2317,-104.4737 1559.5986,-111.445"/>
</g>
<!-- Node76 -->
<g id="node10" class="node">
<title>Node76</title>
<g id="a_node10"><a xlink:href="../../d2/d15/cascadeconsumer_8cxx.html" target="_top" xlink:title="/home/travis/build\l/AliceO2Group/AliceO2\l/Analysis/Tasks/PWGLF\l/cascadeconsumer.cxx">
<polygon fill="none" stroke="#000000" points="1210,-.5 1210,-52.5 1338,-52.5 1338,-.5 1210,-.5"/>
<text text-anchor="start" x="1218" y="-40.5" font-family="Helvetica,sans-Serif" font-size="10.00" fill="#000000">/home/travis/build</text>
<text text-anchor="start" x="1218" y="-29.5" font-family="Helvetica,sans-Serif" font-size="10.00" fill="#000000">/AliceO2Group/AliceO2</text>
<text text-anchor="start" x="1218" y="-18.5" font-family="Helvetica,sans-Serif" font-size="10.00" fill="#000000">/Analysis/Tasks/PWGLF</text>
<text text-anchor="middle" x="1274" y="-7.5" font-family="Helvetica,sans-Serif" font-size="10.00" fill="#000000">/cascadeconsumer.cxx</text>
</a>
</g>
</g>
<!-- Node67&#45;&gt;Node76 -->
<g id="edge9" class="edge">
<title>Node67&#45;&gt;Node76</title>
<path fill="none" stroke="#191970" d="M1559.8928,-99.7657C1498.3417,-88.8497 1417.3525,-72.7423 1347,-53 1344.1441,-52.1986 1341.2399,-51.3392 1338.3169,-50.4377"/>
<polygon fill="#191970" stroke="#191970" points="1559.5316,-103.2558 1569.9866,-101.5402 1560.7437,-96.3615 1559.5316,-103.2558"/>
</g>
<!-- Node77 -->
<g id="node11" class="node">
<title>Node77</title>
<g id="a_node11"><a xlink:href="../../d0/dd5/cascadefinder_8cxx.html" target="_top" xlink:title="/home/travis/build\l/AliceO2Group/AliceO2\l/Analysis/Tasks/PWGLF\l/cascadefinder.cxx">
<polygon fill="none" stroke="#000000" points="1356,-.5 1356,-52.5 1484,-52.5 1484,-.5 1356,-.5"/>
<text text-anchor="start" x="1364" y="-40.5" font-family="Helvetica,sans-Serif" font-size="10.00" fill="#000000">/home/travis/build</text>
<text text-anchor="start" x="1364" y="-29.5" font-family="Helvetica,sans-Serif" font-size="10.00" fill="#000000">/AliceO2Group/AliceO2</text>
<text text-anchor="start" x="1364" y="-18.5" font-family="Helvetica,sans-Serif" font-size="10.00" fill="#000000">/Analysis/Tasks/PWGLF</text>
<text text-anchor="middle" x="1420" y="-7.5" font-family="Helvetica,sans-Serif" font-size="10.00" fill="#000000">/cascadefinder.cxx</text>
</a>
</g>
</g>
<!-- Node67&#45;&gt;Node77 -->
<g id="edge10" class="edge">
<title>Node67&#45;&gt;Node77</title>
<path fill="none" stroke="#191970" d="M1577.7695,-85.7468C1547.3619,-74.3279 1513.0648,-61.4484 1484.2339,-50.6216"/>
<polygon fill="#191970" stroke="#191970" points="1576.9014,-89.1594 1587.4935,-89.3984 1579.3623,-82.6062 1576.9014,-89.1594"/>
</g>
<!-- Node78 -->
<g id="node12" class="node">
<title>Node78</title>
<g id="a_node12"><a xlink:href="../../d4/d77/lambdakzeroconsumer_8cxx.html" target="_top" xlink:title="/home/travis/build\l/AliceO2Group/AliceO2\l/Analysis/Tasks/PWGLF\l/lambdakzeroconsumer.cxx">
<polygon fill="none" stroke="#000000" points="1502.5,-.5 1502.5,-52.5 1653.5,-52.5 1653.5,-.5 1502.5,-.5"/>
<text text-anchor="start" x="1510.5" y="-40.5" font-family="Helvetica,sans-Serif" font-size="10.00" fill="#000000">/home/travis/build</text>
<text text-anchor="start" x="1510.5" y="-29.5" font-family="Helvetica,sans-Serif" font-size="10.00" fill="#000000">/AliceO2Group/AliceO2</text>
<text text-anchor="start" x="1510.5" y="-18.5" font-family="Helvetica,sans-Serif" font-size="10.00" fill="#000000">/Analysis/Tasks/PWGLF</text>
<text text-anchor="middle" x="1578" y="-7.5" font-family="Helvetica,sans-Serif" font-size="10.00" fill="#000000">/lambdakzeroconsumer.cxx</text>
</a>
</g>
</g>
<!-- Node67&#45;&gt;Node78 -->
<g id="edge11" class="edge">
<title>Node67&#45;&gt;Node78</title>
<path fill="none" stroke="#191970" d="M1627.0119,-81.7159C1618.4295,-72.0472 1609.2101,-61.6608 1601.109,-52.5341"/>
<polygon fill="#191970" stroke="#191970" points="1624.4687,-84.1231 1633.7247,-89.2784 1629.7038,-79.4762 1624.4687,-84.1231"/>
</g>
<!-- Node79 -->
<g id="node13" class="node">
<title>Node79</title>
<g id="a_node13"><a xlink:href="../../d5/d6e/lambdakzerofinder_8cxx.html" target="_top" xlink:title="/home/travis/build\l/AliceO2Group/AliceO2\l/Analysis/Tasks/PWGLF\l/lambdakzerofinder.cxx">
<polygon fill="none" stroke="#000000" points="1671.5,-.5 1671.5,-52.5 1802.5,-52.5 1802.5,-.5 1671.5,-.5"/>
<text text-anchor="start" x="1679.5" y="-40.5" font-family="Helvetica,sans-Serif" font-size="10.00" fill="#000000">/home/travis/build</text>
<text text-anchor="start" x="1679.5" y="-29.5" font-family="Helvetica,sans-Serif" font-size="10.00" fill="#000000">/AliceO2Group/AliceO2</text>
<text text-anchor="start" x="1679.5" y="-18.5" font-family="Helvetica,sans-Serif" font-size="10.00" fill="#000000">/Analysis/Tasks/PWGLF</text>
<text text-anchor="middle" x="1737" y="-7.5" font-family="Helvetica,sans-Serif" font-size="10.00" fill="#000000">/lambdakzerofinder.cxx</text>
</a>
</g>
</g>
<!-- Node67&#45;&gt;Node79 -->
<g id="edge12" class="edge">
<title>Node67&#45;&gt;Node79</title>
<path fill="none" stroke="#191970" d="M1687.3677,-81.7159C1696.0587,-72.0472 1705.3948,-61.6608 1713.5985,-52.5341"/>
<polygon fill="#191970" stroke="#191970" points="1684.652,-79.5015 1680.5699,-89.2784 1689.858,-84.1811 1684.652,-79.5015"/>
</g>
<!-- Node80 -->
<g id="node14" class="node">
<title>Node80</title>
<g id="a_node14"><a xlink:href="../../d0/d42/mcspectraefficiency_8cxx.html" target="_top" xlink:title="/home/travis/build\l/AliceO2Group/AliceO2\l/Analysis/Tasks/PWGLF\l/mcspectraefficiency.cxx">
<polygon fill="none" stroke="#000000" points="1820.5,-.5 1820.5,-52.5 1957.5,-52.5 1957.5,-.5 1820.5,-.5"/>
<text text-anchor="start" x="1828.5" y="-40.5" font-family="Helvetica,sans-Serif" font-size="10.00" fill="#000000">/home/travis/build</text>
<text text-anchor="start" x="1828.5" y="-29.5" font-family="Helvetica,sans-Serif" font-size="10.00" fill="#000000">/AliceO2Group/AliceO2</text>
<text text-anchor="start" x="1828.5" y="-18.5" font-family="Helvetica,sans-Serif" font-size="10.00" fill="#000000">/Analysis/Tasks/PWGLF</text>
<text text-anchor="middle" x="1889" y="-7.5" font-family="Helvetica,sans-Serif" font-size="10.00" fill="#000000">/mcspectraefficiency.cxx</text>
</a>
</g>
</g>
<!-- Node67&#45;&gt;Node80 -->
<g id="edge13" class="edge">
<title>Node67&#45;&gt;Node80</title>
<path fill="none" stroke="#191970" d="M1734.3989,-85.8082C1762.4111,-75.0621 1793.8131,-63.0157 1820.9612,-52.6011"/>
<polygon fill="#191970" stroke="#191970" points="1733.123,-82.5489 1725.0401,-89.3984 1735.6303,-89.0845 1733.123,-82.5489"/>
</g>
<!-- Node81 -->
<g id="node15" class="node">
<title>Node81</title>
<g id="a_node15"><a xlink:href="../../df/dc5/raacharged_8cxx.html" target="_top" xlink:title="/home/travis/build\l/AliceO2Group/AliceO2\l/Analysis/Tasks/PWGLF\l/raacharged.cxx">
<polygon fill="none" stroke="#000000" points="1976,-.5 1976,-52.5 2104,-52.5 2104,-.5 1976,-.5"/>
<text text-anchor="start" x="1984" y="-40.5" font-family="Helvetica,sans-Serif" font-size="10.00" fill="#000000">/home/travis/build</text>
<text text-anchor="start" x="1984" y="-29.5" font-family="Helvetica,sans-Serif" font-size="10.00" fill="#000000">/AliceO2Group/AliceO2</text>
<text text-anchor="start" x="1984" y="-18.5" font-family="Helvetica,sans-Serif" font-size="10.00" fill="#000000">/Analysis/Tasks/PWGLF</text>
<text text-anchor="middle" x="2040" y="-7.5" font-family="Helvetica,sans-Serif" font-size="10.00" fill="#000000">/raacharged.cxx</text>
</a>
</g>
</g>
<!-- Node67&#45;&gt;Node81 -->
<g id="edge14" class="edge">
<title>Node67&#45;&gt;Node81</title>
<path fill="none" stroke="#191970" d="M1754.1072,-99.7657C1815.6583,-88.8497 1896.6475,-72.7423 1967,-53 1969.8559,-52.1986 1972.7601,-51.3392 1975.6831,-50.4377"/>
<polygon fill="#191970" stroke="#191970" points="1753.2563,-96.3615 1744.0134,-101.5402 1754.4684,-103.2558 1753.2563,-96.3615"/>
</g>
<!-- Node82 -->
<g id="node16" class="node">
<title>Node82</title>
<g id="a_node16"><a xlink:href="../../df/d80/spectraTOF_8cxx.html" target="_top" xlink:title="/home/travis/build\l/AliceO2Group/AliceO2\l/Analysis/Tasks/PWGLF\l/spectraTOF.cxx">
<polygon fill="none" stroke="#000000" points="2122,-.5 2122,-52.5 2250,-52.5 2250,-.5 2122,-.5"/>
<text text-anchor="start" x="2130" y="-40.5" font-family="Helvetica,sans-Serif" font-size="10.00" fill="#000000">/home/travis/build</text>
<text text-anchor="start" x="2130" y="-29.5" font-family="Helvetica,sans-Serif" font-size="10.00" fill="#000000">/AliceO2Group/AliceO2</text>
<text text-anchor="start" x="2130" y="-18.5" font-family="Helvetica,sans-Serif" font-size="10.00" fill="#000000">/Analysis/Tasks/PWGLF</text>
<text text-anchor="middle" x="2186" y="-7.5" font-family="Helvetica,sans-Serif" font-size="10.00" fill="#000000">/spectraTOF.cxx</text>
</a>
</g>
</g>
<!-- Node67&#45;&gt;Node82 -->
<g id="edge15" class="edge">
<title>Node67&#45;&gt;Node82</title>
<path fill="none" stroke="#191970" d="M1754.1487,-108.1933C1847.242,-99.7864 1991.1865,-83.0962 2113,-53 2115.8796,-52.2885 2118.8035,-51.5036 2121.7426,-50.6632"/>
<polygon fill="#191970" stroke="#191970" points="1753.8294,-104.7078 1744.1786,-109.0795 1754.4493,-111.6803 1753.8294,-104.7078"/>
</g>
<!-- Node83 -->
<g id="node17" class="node">
<title>Node83</title>
<g id="a_node17"><a xlink:href="../../da/db2/spectraTPC_8cxx.html" target="_top" xlink:title="/home/travis/build\l/AliceO2Group/AliceO2\l/Analysis/Tasks/PWGLF\l/spectraTPC.cxx">
<polygon fill="none" stroke="#000000" points="2268,-.5 2268,-52.5 2396,-52.5 2396,-.5 2268,-.5"/>
<text text-anchor="start" x="2276" y="-40.5" font-family="Helvetica,sans-Serif" font-size="10.00" fill="#000000">/home/travis/build</text>
<text text-anchor="start" x="2276" y="-29.5" font-family="Helvetica,sans-Serif" font-size="10.00" fill="#000000">/AliceO2Group/AliceO2</text>
<text text-anchor="start" x="2276" y="-18.5" font-family="Helvetica,sans-Serif" font-size="10.00" fill="#000000">/Analysis/Tasks/PWGLF</text>
<text text-anchor="middle" x="2332" y="-7.5" font-family="Helvetica,sans-Serif" font-size="10.00" fill="#000000">/spectraTPC.cxx</text>
</a>
</g>
</g>
<!-- Node67&#45;&gt;Node83 -->
<g id="edge16" class="edge">
<title>Node67&#45;&gt;Node83</title>
<path fill="none" stroke="#191970" d="M1754.3357,-112.7019C1874.3694,-107.5864 2083.9916,-93.209 2259,-53 2261.8909,-52.3358 2264.8241,-51.5901 2267.7708,-50.7817"/>
<polygon fill="#191970" stroke="#191970" points="1753.9187,-109.2161 1744.0717,-113.126 1754.2077,-116.2101 1753.9187,-109.2161"/>
</g>
<!-- Node84 -->
<g id="node18" class="node">
<title>Node84</title>
<g id="a_node18"><a xlink:href="../../de/d8c/trackchecks_8cxx.html" target="_top" xlink:title="/home/travis/build\l/AliceO2Group/AliceO2\l/Analysis/Tasks/PWGLF\l/trackchecks.cxx">
<polygon fill="none" stroke="#000000" points="2414,-.5 2414,-52.5 2542,-52.5 2542,-.5 2414,-.5"/>
<text text-anchor="start" x="2422" y="-40.5" font-family="Helvetica,sans-Serif" font-size="10.00" fill="#000000">/home/travis/build</text>
<text text-anchor="start" x="2422" y="-29.5" font-family="Helvetica,sans-Serif" font-size="10.00" fill="#000000">/AliceO2Group/AliceO2</text>
<text text-anchor="start" x="2422" y="-18.5" font-family="Helvetica,sans-Serif" font-size="10.00" fill="#000000">/Analysis/Tasks/PWGLF</text>
<text text-anchor="middle" x="2478" y="-7.5" font-family="Helvetica,sans-Serif" font-size="10.00" fill="#000000">/trackchecks.cxx</text>
</a>
</g>
</g>
<!-- Node67&#45;&gt;Node84 -->
<g id="edge17" class="edge">
<title>Node67&#45;&gt;Node84</title>
<path fill="none" stroke="#191970" d="M1754.1482,-110.5863C1927.548,-101.2828 2283.549,-79.6226 2405,-53 2407.8974,-52.3649 2410.836,-51.6432 2413.7872,-50.8545"/>
<polygon fill="#191970" stroke="#191970" points="1753.8056,-107.0995 1744.0064,-111.1275 1754.1787,-114.0895 1753.8056,-107.0995"/>
</g>
<!-- Node85 -->
<g id="node19" class="node">
<title>Node85</title>
<g id="a_node19"><a xlink:href="../../d2/d9d/upcAnalysis_8cxx.html" target="_top" xlink:title="/home/travis/build\l/AliceO2Group/AliceO2\l/Analysis/Tasks/PWGUD\l/upcAnalysis.cxx">
<polygon fill="none" stroke="#000000" points="2560,-.5 2560,-52.5 2692,-52.5 2692,-.5 2560,-.5"/>
<text text-anchor="start" x="2568" y="-40.5" font-family="Helvetica,sans-Serif" font-size="10.00" fill="#000000">/home/travis/build</text>
<text text-anchor="start" x="2568" y="-29.5" font-family="Helvetica,sans-Serif" font-size="10.00" fill="#000000">/AliceO2Group/AliceO2</text>
<text text-anchor="start" x="2568" y="-18.5" font-family="Helvetica,sans-Serif" font-size="10.00" fill="#000000">/Analysis/Tasks/PWGUD</text>
<text text-anchor="middle" x="2626" y="-7.5" font-family="Helvetica,sans-Serif" font-size="10.00" fill="#000000">/upcAnalysis.cxx</text>
</a>
</g>
</g>
<!-- Node67&#45;&gt;Node85 -->
<g id="edge18" class="edge">
<title>Node67&#45;&gt;Node85</title>
<path fill="none" stroke="#191970" d="M1754.1802,-112.0153C1953.2115,-104.3364 2401.0781,-84.128 2551,-53 2553.8395,-52.4104 2556.7178,-51.7393 2559.6095,-51.0039"/>
<polygon fill="#191970" stroke="#191970" points="1753.8856,-108.524 1744.027,-112.4045 1754.1538,-115.5188 1753.8856,-108.524"/>
</g>
<!-- Node86 -->
<g id="node20" class="node">
<title>Node86</title>
<g id="a_node20"><a xlink:href="../../d4/d30/trackextension_8cxx.html" target="_top" xlink:title="/home/travis/build\l/AliceO2Group/AliceO2\l/Analysis/Tasks/trackextension.cxx">
<polygon fill="none" stroke="#000000" points="2710.5,-6 2710.5,-47 2897.5,-47 2897.5,-6 2710.5,-6"/>
<text text-anchor="start" x="2718.5" y="-35" font-family="Helvetica,sans-Serif" font-size="10.00" fill="#000000">/home/travis/build</text>
<text text-anchor="start" x="2718.5" y="-24" font-family="Helvetica,sans-Serif" font-size="10.00" fill="#000000">/AliceO2Group/AliceO2</text>
<text text-anchor="middle" x="2804" y="-13" font-family="Helvetica,sans-Serif" font-size="10.00" fill="#000000">/Analysis/Tasks/trackextension.cxx</text>
</a>
</g>
</g>
<!-- Node67&#45;&gt;Node86 -->
<g id="edge19" class="edge">
<title>Node67&#45;&gt;Node86</title>
<path fill="none" stroke="#191970" d="M1754.1395,-112.0713C1977.1027,-103.8144 2520.2549,-81.3915 2701,-53 2710.9411,-51.4384 2721.3177,-49.3407 2731.4938,-47.0059"/>
<polygon fill="#191970" stroke="#191970" points="1753.9526,-108.5757 1744.0884,-112.442 1754.2107,-115.571 1753.9526,-108.5757"/>
</g>
<!-- Node87 -->
<g id="node21" class="node">
<title>Node87</title>
<g id="a_node21"><a xlink:href="../../d6/db1/trackqa_8cxx.html" target="_top" xlink:title="/home/travis/build\l/AliceO2Group/AliceO2\l/Analysis/Tasks/trackqa.cxx">
<polygon fill="none" stroke="#000000" points="2915.5,-6 2915.5,-47 3066.5,-47 3066.5,-6 2915.5,-6"/>
<text text-anchor="start" x="2923.5" y="-35" font-family="Helvetica,sans-Serif" font-size="10.00" fill="#000000">/home/travis/build</text>
<text text-anchor="start" x="2923.5" y="-24" font-family="Helvetica,sans-Serif" font-size="10.00" fill="#000000">/AliceO2Group/AliceO2</text>
<text text-anchor="middle" x="2991" y="-13" font-family="Helvetica,sans-Serif" font-size="10.00" fill="#000000">/Analysis/Tasks/trackqa.cxx</text>
</a>
</g>
</g>
<!-- Node67&#45;&gt;Node87 -->
<g id="edge20" class="edge">
<title>Node67&#45;&gt;Node87</title>
<path fill="none" stroke="#191970" d="M1754.3183,-113.8443C2008.1902,-109.0114 2686.1758,-92.6762 2907,-53 2915.278,-51.5127 2923.8762,-49.4413 2932.2751,-47.1054"/>
<polygon fill="#191970" stroke="#191970" points="1753.9403,-110.3507 1744.0081,-114.0386 1754.0723,-117.3494 1753.9403,-110.3507"/>
</g>
<!-- Node88 -->
<g id="node22" class="node">
<title>Node88</title>
<g id="a_node22"><a xlink:href="../../db/d90/trackselection_8cxx.html" target="_top" xlink:title="/home/travis/build\l/AliceO2Group/AliceO2\l/Analysis/Tasks/trackselection.cxx">
<polygon fill="none" stroke="#000000" points="3084.5,-6 3084.5,-47 3267.5,-47 3267.5,-6 3084.5,-6"/>
<text text-anchor="start" x="3092.5" y="-35" font-family="Helvetica,sans-Serif" font-size="10.00" fill="#000000">/home/travis/build</text>
<text text-anchor="start" x="3092.5" y="-24" font-family="Helvetica,sans-Serif" font-size="10.00" fill="#000000">/AliceO2Group/AliceO2</text>
<text text-anchor="middle" x="3176" y="-13" font-family="Helvetica,sans-Serif" font-size="10.00" fill="#000000">/Analysis/Tasks/trackselection.cxx</text>
</a>
</g>
</g>
<!-- Node67&#45;&gt;Node88 -->
<g id="edge21" class="edge">
<title>Node67&#45;&gt;Node88</title>
<path fill="none" stroke="#191970" d="M1754.0495,-113.942C2030.7904,-109.0679 2820.3094,-92.0444 3076,-53 3085.8538,-51.4953 3096.1351,-49.3975 3106.1955,-47.0345"/>
<polygon fill="#191970" stroke="#191970" points="1753.9639,-110.4429 1744.0267,-114.1172 1754.0863,-117.4418 1753.9639,-110.4429"/>
</g>
<!-- Node89 -->
<g id="node23" class="node">
<title>Node89</title>
<g id="a_node23"><a xlink:href="../../dd/d06/histogramTrackSelection_8cxx.html" target="_top" xlink:title="/home/travis/build\l/AliceO2Group/AliceO2\l/Analysis/Tutorials/src\l/histogramTrackSelection.cxx">
<polygon fill="none" stroke="#000000" points="3286,-.5 3286,-52.5 3446,-52.5 3446,-.5 3286,-.5"/>
<text text-anchor="start" x="3294" y="-40.5" font-family="Helvetica,sans-Serif" font-size="10.00" fill="#000000">/home/travis/build</text>
<text text-anchor="start" x="3294" y="-29.5" font-family="Helvetica,sans-Serif" font-size="10.00" fill="#000000">/AliceO2Group/AliceO2</text>
<text text-anchor="start" x="3294" y="-18.5" font-family="Helvetica,sans-Serif" font-size="10.00" fill="#000000">/Analysis/Tutorials/src</text>
<text text-anchor="middle" x="3366" y="-7.5" font-family="Helvetica,sans-Serif" font-size="10.00" fill="#000000">/histogramTrackSelection.cxx</text>
</a>
</g>
</g>
<!-- Node67&#45;&gt;Node89 -->
<g id="edge22" class="edge">
<title>Node67&#45;&gt;Node89</title>
<path fill="none" stroke="#191970" d="M1754.1824,-114.9407C2057.0818,-112.695 2981.4134,-101.9087 3277,-53 3279.863,-52.5263 3282.7634,-51.9882 3285.6817,-51.3971"/>
<polygon fill="#191970" stroke="#191970" points="1754.078,-111.4413 1744.1037,-115.014 1754.1289,-118.4411 1754.078,-111.4413"/>
</g>
</g>
</svg>
